<?xml version="1.0" standalone="no"?>
<!DOCTYPE svg PUBLIC "-//W3C//DTD SVG 1.1//EN" "http://www.w3.org/Graphics/SVG/1.1/DTD/svg11.dtd" >
<svg xmlns="http://www.w3.org/2000/svg" xmlns:xlink="http://www.w3.org/1999/xlink" version="1.1">
<metadata>
Created by FontForge 20161003 at Mon Dec  4 10:20:18 2017
 By www-data
(c) Adobe Systems Inc. (c) Verbum AB. Font name is copyright of Volvo AB 1998.
</metadata>
<defs>
<font id="VolvoSerif_BoldItalic" horiz-adv-x="1159" >
  <font-face 
    font-family="VolvoSerif_BoldItalic"
    font-weight="700"
    font-style="italic"
    font-stretch="normal"
    units-per-em="2048"
    panose-1="2 7 8 4 7 3 0 0 0 3"
    ascent="1561"
    descent="-487"
    x-height="918"
    cap-height="1458"
    bbox="-305 -511 2410 2133"
    underline-thickness="50"
    underline-position="-175"
    slope="-12"
    unicode-range="U+0020-F002"
  />
<missing-glyph horiz-adv-x="1024" 
d="M128 0v1561h768v-1561h-768zM256 128h512v1305h-512v-1305z" />
    <glyph glyph-name=".notdef" horiz-adv-x="1024" 
d="M128 0v1561h768v-1561h-768zM256 128h512v1305h-512v-1305z" />
    <glyph glyph-name=".null" unicode="&#xe001;" horiz-adv-x="0" 
 />
    <glyph glyph-name="nonmarkingreturn" unicode="&#xe002;" horiz-adv-x="563" 
 />
    <glyph glyph-name="space" unicode=" " horiz-adv-x="563" 
 />
    <glyph glyph-name="exclam" unicode="!" horiz-adv-x="477" 
d="M672 1487l-298 -1000l-142 -85q29 219 61 438q16 91 31 182q18 109 18 184q0 90 -128 90l12 84q197 32 446 107zM401 166q0 -71 -45 -126q-48 -57 -116 -57q-123 0 -123 126q0 68 51 123t121 55q50 0 81 -35.5t31 -85.5z" />
    <glyph glyph-name="quotedbl" unicode="&#x22;" horiz-adv-x="733" 
d="M912 1540l-210 -610h-91l35 610h266zM529 1540l-210 -610h-91l35 610h266z" />
    <glyph glyph-name="numbersign" unicode="#" horiz-adv-x="1374" 
d="M1382 840h-359l-25 -191h343v-119h-356l-74 -530h-133l77 530h-200l-78 -530h-127l74 530h-342v119h359l26 191h-342v125h357l66 493h137l-70 -493h197l65 493h132l-70 -493h343v-125zM894 840h-196l-28 -191h199z" />
    <glyph glyph-name="dollar" unicode="$" horiz-adv-x="1118" 
d="M1111 1441l-49 -321l-123 2q13 54 13 78q0 68 -44 110q-30 29 -104 61l-91 -468q183 -100 248 -166q110 -110 110 -274q0 -183 -159 -335q-131 -126 -380 -147l-41 -216h-109l39 216q-70 0 -173 11q-166 18 -175 19l59 356h118q-6 -72 -6 -74q0 -86 57 -144
q53 -54 140 -71l107 553q-161 91 -224 153q-107 104 -107 244q0 124 80 239q76 109 191 164q81 39 229 53l31 161h109l-31 -165q150 -13 285 -39zM695 1375q-92 -20 -140 -58q-33 -13 -58 -70q-22 -50 -22 -92q0 -109 139 -196zM791 332q0 120 -143 234l-98 -487
q98 21 150 65q91 79 91 188z" />
    <glyph glyph-name="percent" unicode="%" horiz-adv-x="1714" 
d="M1700 584q0 -261 -138 -443q-116 -152 -264 -152q-123 0 -186 97q-53 82 -53 209q0 130 44 273q48 153 125 244q99 116 208 116q135 0 205 -111q59 -92 59 -233zM1466 1456l-911 -1454h-130l910 1454h131zM825 1126q0 -260 -138 -442q-116 -154 -263 -154q-123 0 -187 99
q-53 82 -53 209q0 130 44 272q48 154 125 244q99 116 208 116q136 0 206 -110q58 -92 58 -234zM1511 703q0 143 -55 143q-87 0 -156 -286q-55 -229 -55 -361q0 -136 58 -136q12 0 30 14q58 44 121 252q57 187 57 365v9zM637 1246q0 143 -55 143q-87 0 -156 -286
q-55 -229 -55 -362q0 -135 57 -135q12 0 30 14q58 44 122 252q57 187 57 365v9z" />
    <glyph glyph-name="ampersand" unicode="&#x26;" horiz-adv-x="1800" 
d="M1816 1007q-19 -92 -76 -162q-71 -86 -238 -86h-35h-35q-27 0 -47 -1q18 -95 18 -127q0 -149 -126 -342q157 -144 261 -144q74 0 174 88l63 -65q-212 -192 -415 -192q-129 0 -273 121q-230 -121 -485 -121q-199 0 -338 97q-158 112 -158 304q0 228 245 344q50 23 159 56
q-61 97 -75 127q-32 69 -32 145q0 147 91 264q121 155 337 155q132 0 219 -69q95 -75 95 -203q0 -129 -106 -230q-71 -67 -218 -142q197 -268 374 -449q54 87 54 168q0 64 -32.5 124.5t-87.5 86.5q-18 8 -87 19l131 200q97 -4 142 -4h352q77 0 149 38zM920 1157
q0 78 -50 135.5t-127 57.5q-56 0 -96.5 -48t-40.5 -106q0 -89 159 -299q155 119 155 260zM998 182q-169 170 -401 461q-13 18 -38 53q-71 -69 -98 -120q-35 -64 -35 -152q0 -142 89 -225.5t233 -83.5q97 0 250 67z" />
    <glyph glyph-name="quotesingle" unicode="'" horiz-adv-x="391" 
d="M547 1540l-211 -610h-90l34 610h267z" />
    <glyph glyph-name="parenleft" unicode="(" horiz-adv-x="862" 
d="M1049 1575l-19 -102q-16 2 -43 2q-113 0 -186 -89q-27 -32 -53 -83q-46 -90 -93 -302q-13 -61 -63 -317q-20 -101 -57 -307q-31 -186 -31 -309v-15q0 -134 71 -204q40 -38 117 -38l-14 -95q-19 -2 -45 -2q-156 0 -264 115q-140 147 -140 443q0 268 77 560q88 335 237 514
q98 118 178 161q124 68 295 68h33z" />
    <glyph glyph-name="parenright" unicode=")" horiz-adv-x="862" 
d="M698 995q0 -255 -72 -532q-80 -303 -214 -489q-105 -144 -213 -202q-119 -64 -280 -64h-43l19 100q9 0 24.5 -1t22.5 -1q110 0 183 91q55 68 78 134q41 120 137 594q84 414 84 587q0 193 -117 248q-27 13 -74 17l17 90h78q113 0 209 -88q161 -149 161 -484z" />
    <glyph glyph-name="asterisk" unicode="*" horiz-adv-x="733" 
d="M821 1255l-180 -61l145 -129l-63 -65q-50 46 -149 131l-40 -200l-80 14l38 198l-198 -67l-27 82l198 66l-151 133l56 72l154 -131l36 189l82 -13l-41 -202l188 62z" />
    <glyph glyph-name="plus" unicode="+" 
d="M1200 504h-514v-513h-113v513h-512v112h512v514h113v-514h514v-112z" />
    <glyph glyph-name="comma" unicode="," horiz-adv-x="539" 
d="M397 184q0 -150 -112 -276q-79 -89 -242 -190l-73 95q36 28 114 86q66 103 66 185q0 38 -27 127l260 76q14 -52 14 -103z" />
    <glyph glyph-name="hyphen" unicode="-" horiz-adv-x="649" 
d="M628 604l-45 -225h-467l47 225h465z" />
    <glyph glyph-name="hyphen" unicode="&#x2010;" horiz-adv-x="649" 
d="M628 604l-45 -225h-467l47 225h465z" />
    <glyph glyph-name="period" unicode="." horiz-adv-x="506" 
d="M379 164q0 -73 -54 -127t-126 -54q-54 0 -85.5 36t-31.5 92q0 70 55.5 124t126.5 54q50 0 82.5 -37.5t32.5 -87.5z" />
    <glyph glyph-name="slash" unicode="/" horiz-adv-x="862" 
d="M1069 1454l-985 -1454h-132l982 1454h135z" />
    <glyph glyph-name="zero" unicode="0" 
d="M1163 979q0 -293 -113 -565q-136 -329 -373 -414q-64 -22 -126 -22q-143 0 -253 122q-126 139 -126 422q0 259 95 493q109 267 304 391q105 67 209 67q202 0 301 -155q82 -129 82 -339zM877 1143q0 223 -95 223q-112 0 -212 -305q-63 -192 -97 -406q-27 -167 -27 -303
q0 -260 99 -260q129 0 231 374q67 245 92 497q9 79 9 180z" />
    <glyph glyph-name="one" unicode="1" 
d="M966 1471q-30 -147 -133 -663l-79 -401q-31 -145 -31 -212q0 -90 126 -97q21 0 67 -2l-20 -97q-31 1 -171 8q-102 5 -168 5q-62 0 -370 -10l23 105q20 -3 52 -3q128 0 170 104q7 16 41 188l181 910l-325 -41l22 111q96 12 615 95z" />
    <glyph glyph-name="two" unicode="2" 
d="M1051 1092q0 -199 -253 -454q-145 -135 -432 -411h612l-74 -223h-881q26 25 74 76q61 74 156 171q47 54 146 159q105 106 231 262q28 34 81 106q69 109 69 201q0 119 -107 189q-93 61 -220 61q-43 0 -136 -18q48 140 77 262h67q178 0 280 -26q151 -37 239 -140
q71 -83 71 -215z" />
    <glyph glyph-name="three" unicode="3" 
d="M1055 475q0 -153 -106 -277q-185 -217 -546 -217q-86 0 -238 34l55 268h75q0 -7 -1 -17.5t-1 -15.5q0 -75 58 -120q53 -40 132 -40q121 0 211 88t90 207q0 123 -85 191q-78 63 -205 63q-31 0 -94 -9l43 226q12 0 32.5 -1t30.5 -1q137 0 199 80q45 57 45 137q0 82 -66 130
q-60 44 -145 44q-61 0 -184 -45l49 258q118 19 196 19q129 0 213 -40q78 -36 127 -107.5t49 -155.5q0 -196 -172 -301q-35 -22 -95 -42q2 -1 22 -6q73 -17 143 -60q168 -103 168 -290z" />
    <glyph glyph-name="four" unicode="4" 
d="M1084 1477l-178 -920h172l-36 -178h-174l-74 -379h-275l74 379h-481l13 59q119 138 359 413q106 118 314 358q35 42 108 123q6 8 19.5 25t104.5 120h54zM718 1008l-357 -451h268z" />
    <glyph glyph-name="five" unicode="5" 
d="M1091 1454l-68 -231h-508l-39 -211q40 4 65 4q158 0 276 -68q104 -60 168 -177q62 -113 62 -234q0 -184 -120 -335q-171 -213 -466 -213q-121 0 -306 55l55 288l86 -11q-7 -32 -7 -57q0 -76 70 -121q62 -39 143 -39q163 0 258 144q49 73 49 174q0 53 -6 81
q-26 119 -149 194q-112 69 -242 69q-31 0 -102 -9l137 697h644z" />
    <glyph glyph-name="six" unicode="6" 
d="M1145 598q0 -238 -154 -424q-163 -196 -397 -196q-208 0 -322 144q-104 131 -104 343q0 168 58 351q57 180 154 323q133 197 337 284q126 54 301 54q16 0 50 -1t53 -1l-61 -240h-81q8 23 8 41q0 80 -104 80q-96 0 -185 -91q-70 -72 -119 -179q-59 -130 -83 -331
q22 32 75 80q106 97 265 97q103 0 186 -62q123 -92 123 -272zM866 461q0 107 -46 174q-53 76 -154 76q-98 0 -191 -135q-16 -122 -16 -183v-49q0 -92 46 -165q53 -85 138 -85q58 0 110 48q113 106 113 319z" />
    <glyph glyph-name="seven" unicode="7" 
d="M1211 1454l-703 -1454h-205v7l667 1216h-677l75 231h843z" />
    <glyph glyph-name="eight" unicode="8" 
d="M1120 1182q0 -215 -293 -384q112 -139 152 -210q70 -124 70 -248q0 -182 -154 -278q-129 -79 -322 -79q-161 0 -261 80q-109 89 -109 248q0 113 82 223q70 93 178 162q13 8 57 34q-209 240 -209 403t149 262q130 86 300 86q142 0 246 -76q114 -85 114 -223zM932 1178
q0 86 -43 142q-47 62 -131 62q-72 0 -123 -56t-51 -128q0 -60 29 -116q12 -23 66 -99q37 -51 75 -99q178 141 178 294zM793 272q0 118 -210 373q-33 -27 -94 -88q-86 -104 -86 -227q0 -95 48 -166q54 -80 143 -80q83 0 141 53.5t58 134.5z" />
    <glyph glyph-name="nine" unicode="9" 
d="M1171 981q0 -98 -18 -191q-65 -328 -245 -541q-228 -268 -597 -268q-14 0 -45.5 1t-50.5 1q37 106 64 238h78q-5 -29 -5 -39q0 -38 33 -61q29 -21 70 -21q101 0 197 97q139 141 203 516q-131 -191 -327 -191q-155 0 -242 92.5t-87 247.5q0 289 212 482q69 63 190 106
q76 27 147 27q116 0 176 -32q71 -37 103 -66q144 -131 144 -398zM889 1079q0 109 -39 186q-50 97 -145 97q-110 0 -175 -132q-53 -108 -53 -233q0 -106 47 -176q54 -82 154 -82q87 0 184 127q27 132 27 213z" />
    <glyph glyph-name="colon" unicode=":" horiz-adv-x="506" 
d="M530 809q0 -67 -50 -123q-52 -59 -118 -59q-49 0 -84.5 38.5t-35.5 88.5q0 67 51.5 123.5t118.5 56.5q52 0 85 -36t33 -89zM379 166q0 -70 -54 -126.5t-124 -56.5q-119 0 -119 128q0 64 55 121t119 57q52 0 87.5 -35.5t35.5 -87.5z" />
    <glyph glyph-name="semicolon" unicode=";" horiz-adv-x="539" 
d="M559 811q0 -68 -51.5 -121t-120.5 -53q-52 0 -88.5 33.5t-36.5 85.5q0 68 53.5 124t120.5 56q55 0 89 -35.5t34 -89.5zM399 186q0 -193 -198 -361q-18 -15 -158 -107l-73 93q180 102 180 263q0 44 -27 135l262 78q14 -82 14 -101z" />
    <glyph glyph-name="less" unicode="&#x3c;" 
d="M1210 -16l-1071 528v97l1071 528v-124l-922 -452l922 -454v-123z" />
    <glyph glyph-name="equal" unicode="=" 
d="M1227 684h-1139v113h1139v-113zM1227 322h-1139v112h1139v-112z" />
    <glyph glyph-name="greater" unicode="&#x3e;" 
d="M1186 512l-1071 -528v123l922 454l-922 452v124l1071 -528v-97z" />
    <glyph glyph-name="question" unicode="?" horiz-adv-x="776" 
d="M850 1227q0 -184 -146 -347q-93 -85 -267 -266q-56 -66 -69 -140l-148 -74q24 117 108 243q34 51 105 152q128 173 128 278q0 67 -51 111.5t-119 44.5q-67 0 -170 -40l79 263q161 23 263 23q121 0 181 -42q106 -74 106 -206zM408 164q0 -70 -48.5 -124.5t-117.5 -54.5
q-115 0 -115 136q0 60 50.5 115t111.5 55q54 0 86.5 -36t32.5 -91z" />
    <glyph glyph-name="at" unicode="@" horiz-adv-x="1843" 
d="M1733 797q0 -151 -54 -295q-58 -152 -161 -251q-108 -104 -224 -104q-162 0 -162 181v8q-112 -184 -290 -184q-146 0 -220 115q-61 94 -61 237q0 135 56 266q59 137 159 220q116 97 256 97q163 0 207 -137l21 82h171q-30 -137 -90 -410q-51 -227 -51 -284q0 -66 51 -66
q76 0 155 121q118 182 118 402q0 256 -161 416q-154 153 -386 153q-324 0 -533 -280q-190 -254 -190 -586q0 -297 189 -470q181 -164 475 -164q374 0 651 279l71 -82q-297 -308 -739 -308q-357 0 -581 195q-236 204 -236 556q0 379 256 668q266 301 641 301q291 0 478 -194
q184 -191 184 -482zM1190 817q0 180 -139 180q-122 0 -216 -211q-81 -181 -81 -331q0 -193 141 -193q121 0 214 213q81 183 81 342z" />
    <glyph glyph-name="A" unicode="A" horiz-adv-x="1458" 
d="M1436 94l-25 -94q-139 6 -410 6h-204l26 94q36 0 95 13q30 17 30 77q0 52 -26 308h-404l-115 -195q-65 -110 -65 -147q0 -62 74 -62q6 0 18.5 -1t20.5 -1l-23 -93q-164 7 -235 7q-38 0 -115 -3.5t-118 -3.5l23 93q79 0 136 43q29 22 102 137q235 368 378.5 583t430.5 652
l76 4l117 -1210q6 -74 10 -92q12 -61 41 -84q40 -33 106 -33q11 0 29 1t27 1zM909 629l-37 440l-274 -440h311z" />
    <glyph glyph-name="B" unicode="B" horiz-adv-x="1331" 
d="M1292 1161q0 -44 -14 -96q-30 -111 -117 -178q-63 -49 -192 -96q32 -10 94 -33q209 -90 209 -307q0 -98 -47 -191q-75 -146 -212 -207q-113 -51 -294 -51q-51 0 -152.5 1t-152.5 1q12 0 -417 -5l34 93h24q63 0 98 21.5t59 109.5q5 15 28 129q56 278 149 762
q23 117 23 162q0 92 -103 92q-47 0 -76 -2l27 96q47 0 201 -5q124 -3 198 -3q23 0 76.5 1t83.5 1q266 0 371 -82q102 -80 102 -213zM1024 1143q0 130 -90 190q-34 23 -104 28q-54 2 -109 3l-107 -528q50 -7 97 -7q128 0 207 74q106 100 106 240zM969 414q0 107 -47 190
q-52 93 -148 117q-41 10 -112 10h-68l-62 -311q-7 -37 -24 -121q-16 -74 -16 -104q0 -105 170 -105q193 0 266 160q41 89 41 164z" />
    <glyph glyph-name="C" unicode="C" horiz-adv-x="1501" 
d="M1577 1389l-57 -299l-103 2q10 25 10 49q0 66 -77 135q-121 106 -316 106q-251 0 -422 -221q-157 -205 -157 -465q0 -199 83 -350q93 -168 267 -225q81 -27 156 -27q94 0 194 37q108 40 164 105q24 27 47 73l84 10l-45 -239q-313 -108 -477 -108q-323 0 -544.5 217
t-221.5 538q0 236 133.5 427t355.5 272q155 57 369 57q192 0 557 -94z" />
    <glyph glyph-name="D" unicode="D" horiz-adv-x="1714" 
d="M1743 858q0 -203 -98 -386q-94 -175 -261 -302q-105 -81 -208 -119q-149 -54 -361 -54q-76 0 -228.5 2.5t-228.5 2.5q-112 0 -354 -7l14 97h68q51 0 83.5 39t76.5 256l145 729q27 133 27 162q0 40 -31 64t-72 24q-33 0 -79 -6l22 100q70 -4 104 -4q22 0 65 1t65 1h403
q273 0 422 -42q224 -64 340 -242q86 -134 86 -316zM1427 834q0 28 -2 69q-6 134 -105 255q-96 116 -226 161q-102 35 -269 35q-71 0 -106 -2q-66 -325 -195 -973q-20 -104 -20 -152q0 -86 66 -116q43 -19 141 -19h26q179 0 322 74q176 90 275 281q93 178 93 387z" />
    <glyph glyph-name="E" unicode="E" horiz-adv-x="1288" 
d="M1329 1468q-22 -113 -65 -344h-109q19 70 19 111q0 87 -72 115q-42 16 -150 16q-80 0 -231 -4l-103 -512h72q242 0 307 45q33 22 56 94l86 -2q-68 -233 -68 -366h-90q0 9 1 24.5t1 22.5q0 92 -184 92q-117 0 -199 -10q-24 -109 -68 -336q-34 -182 -34 -197q0 -89 84 -108
q25 -7 79 -9t68 -2h29q96 0 143 13q168 44 215 270l98 -2q-35 -168 -65 -377q-356 8 -528 8q-253 0 -619 -13l18 93h33q87 0 125 55q26 38 66 230q31 151 149 753q27 136 27 156q0 30 -21 53q-27 24 -71 27h-21q-11 0 -33.5 -1t-33.5 -1l16 94q176 -4 254 -4q71 0 213 1
t213 1q20 0 60 2t61 2q149 0 272 10z" />
    <glyph glyph-name="F" unicode="F" 
d="M1309 1458l-58 -336h-114q18 59 18 117q0 129 -252 129h-182l-105 -520q37 -2 105 -2h55q163 0 221 61q16 17 25 80h88q-59 -236 -66 -371l-96 2q13 32 13 56q0 80 -166 80q-101 0 -199 -6q-61 -300 -96 -486q-13 -64 -13 -90q0 -78 95 -78q22 0 84 4l-19 -98
q-57 4 -168 4h-104q-252 0 -380 -5l13 95q21 -2 53 -2q70 0 107 37q19 23 33 70q24 81 43 186q32 178 75 385q22 108 64 322q25 122 25 170q0 64 -40 87q-29 17 -96 17h-28l14 92q135 -6 260 -6q391 0 791 6z" />
    <glyph glyph-name="G" unicode="G" horiz-adv-x="1757" 
d="M1743 711l-12 -99q-9 0 -21.5 1t-17.5 1q-62 0 -90 -53q-15 -27 -27 -102l-19 -111q-18 -95 -53 -291q-346 -91 -579 -91q-261 0 -467 143q-69 47 -140 137q-161 204 -161 467q0 113 39 231q90 275 331 418q219 131 525 131q235 0 659 -119l-51 -307l-98 2v45
q0 85 -80 158q-117 106 -348 106q-284 0 -480 -193t-196 -476q0 -157 62 -298q67 -151 185.5 -237t311.5 -86q121 0 231 55q17 110 47 326q6 48 6 59q0 83 -94 90q-24 3 -59 3l16 96q228 -12 447 -12q62 0 133 6z" />
    <glyph glyph-name="H" unicode="H" horiz-adv-x="1671" 
d="M1825 1456l-15 -94q-51 -2 -73 -7q-34 -8 -60 -32q-45 -42 -82 -221q-45 -235 -137 -703q-8 -36 -22 -110q-15 -78 -15 -107q0 -96 97 -96q16 0 73 4l-20 -93q-185 5 -361 5q-90 0 -286 -3l18 93h37q104 0 141 74q20 40 64 262l55 283l-651 -2q-20 -105 -62 -312
q-30 -138 -30 -192q0 -115 108 -115q35 0 55 2l-14 -92q-233 4 -340 4q-51 0 -153 -2t-155 -2l23 90q70 0 109 19q49 23 76 105q11 30 31 132l155 784q12 67 12 107q0 77 -39 104q-31 21 -108 21h-27l23 96q268 -14 336 -14q48 0 319 10l-14 -90h-10q-115 0 -154 -51
q-29 -39 -71 -236l-50 -260h652l49 248q24 124 24 168q0 80 -44 108q-33 22 -122 25l19 92q156 -12 307 -12q144 0 332 10z" />
    <glyph glyph-name="I" unicode="I" horiz-adv-x="733" 
d="M905 1458l-16 -94h-17q-68 0 -96 -14q-55 -29 -85 -124q-9 -27 -34 -153l-137 -696q-28 -140 -28 -174q0 -78 53 -98q27 -11 123 -11l-13 -94q-176 8 -256 8q-172 0 -397 -9l16 91h35q79 0 115 41q29 33 63 203q78 379 158 794q25 127 25 152q0 82 -117 82h-64l19 94
q205 -8 297 -8q155 0 356 10z" />
    <glyph glyph-name="J" unicode="J" horiz-adv-x="903" 
d="M1110 1458l-12 -94q-19 2 -47 2q-62 0 -97 -35q-28 -28 -45 -98q-13 -55 -149 -733q-37 -185 -90 -280q-74 -133 -217 -195q-90 -38 -183 -38q-68 0 -223 42l59 331h107q-14 -51 -14 -108q0 -137 88 -137q14 0 47 12q54 20 88 90q38 78 63 225q32 196 99 588
q34 195 34 238q0 92 -108 98h-43h-18l16 92q134 -8 291 -8q112 0 354 8z" />
    <glyph glyph-name="K" unicode="K" horiz-adv-x="1544" 
d="M1606 1458l-15 -90q-81 -6 -129 -29q-98 -45 -317 -239q-64 -58 -193 -172q1 -1 78 -170q66 -141 193 -424q36 -84 51 -112q36 -66 76 -95q46 -33 145 -37l-8 -88q-15 0 -40.5 -1t-37.5 -1q-36 0 -107.5 3t-107.5 3q-41 0 -123 -3.5t-123 -3.5h-65l20 89q86 4 86 57
q0 25 -53 138l-217 456l-146 -118q-8 -46 -53 -271q-24 -123 -24 -164q0 -96 104 -96q10 0 32 1t36 1l-27 -93q-52 0 -152 4.5t-149 4.5q-45 0 -122 -3q-87 -4 -122 -5q-29 0 -94 -1l16 95h64q49 0 86 35q32 30 52 111q12 62 24 125q55 272 159 819q9 46 9 71q0 61 -22.5 87
t-82.5 26q-43 0 -69 -2l14 90q96 -4 283 -4q-11 0 383 6l-17 -90q-9 0 -21 1t-18 1q-88 0 -135 -74q-26 -40 -72 -268l-53 -266q30 24 201 166q19 15 57 47q29 26 88 80q48 41 139 129q32 29 91 90q34 41 34 63q0 35 -61 39l14 80q152 -4 221 -4q106 0 220 6z" />
    <glyph glyph-name="L" unicode="L" horiz-adv-x="1331" 
d="M1260 369l-66 -370h-1195l24 93q8 0 22.5 -1t20.5 -1q98 0 133 86q10 25 28 111q22 98 121 604l41 209q27 127 27 170q0 104 -137 104h-33l20 88q202 -10 352 -10q149 0 306 6l-17 -90h-24q-81 0 -121 -35q-48 -41 -78 -178q-48 -246 -147 -735q-29 -138 -29 -187
q0 -71 41 -100q55 -39 246 -39h16q162 0 237 56q85 62 101 219h111z" />
    <glyph glyph-name="M" unicode="M" horiz-adv-x="1929" 
d="M2071 1456l-13 -94h-30q-86 0 -126 -44t-63 -218q-28 -187 -82 -559l-24 -174q-19 -132 -19 -179q0 -98 144 -98h26l-12 -90q-246 8 -361 8q-48 0 -134 -4q-100 -4 -138 -5l10 93q45 -4 62 -4q43 0 69 27q32 31 58 178q48 306 147 917l-346 -561q-142 -240 -434 -716
l-338 1103q0 -2 -70 -336q-21 -98 -59 -297q-31 -179 -31 -204q0 -109 133 -109h31l-12 -90q-31 -1 -82 -1q-26 0 -78 4.5t-78 4.5q-38 0 -115.5 -4.5t-116.5 -4.5l13 91h23q80 0 125 55q14 18 24 41q14 31 109 500q96 475 96 524q0 32 -10 72q-22 86 -136 86h-22l14 90
q152 -12 221 -12q58 0 177 8l338 -1048q41 66 124 200q352 563 547 858q151 -14 252 -14q-10 0 187 6z" />
    <glyph glyph-name="N" unicode="N" horiz-adv-x="1630" 
d="M1802 1456l-14 -94q-110 0 -156 -74q-36 -59 -88 -316q-33 -174 -65 -347q-45 -231 -131 -696h-23l-831 1208q-6 -26 -74 -422q-39 -224 -62 -400q-10 -79 -10 -122q0 -109 107 -109q9 0 30.5 1t34.5 1l-14 -87q-160 7 -230 7q13 0 -258 -6l21 90h24q61 0 97 31
q47 41 84 227q41 234 127 701q30 160 30 194q0 38 -26 74q-39 53 -123 53h-23l13 88q227 -6 221 -6q49 0 155 8l498 -712q76 -109 225 -328q26 150 80 450q15 76 39 230q19 145 19 160q0 105 -105 110h-35h-39l25 92q28 -1 138 -8q82 -6 134 -6q62 0 205 8z" />
    <glyph glyph-name="O" unicode="O" horiz-adv-x="1800" 
d="M1806 723q0 -165 -77 -336q-93 -203 -304 -317q-195 -104 -432 -104q-347 0 -583 205q-246 216 -246 558q0 191 94 359q92 165 254 272q198 131 455 131q285 0 501 -142q227 -150 306 -413q32 -109 32 -213zM1507 764q0 168 -59 308q-68 160 -197 237q-116 69 -233 69
q-152 0 -291 -108q-124 -96 -194 -269q-66 -159 -66 -329q0 -228 116 -398q131 -192 347 -192q248 0 422 213q155 190 155 469z" />
    <glyph glyph-name="P" unicode="P" horiz-adv-x="1245" 
d="M1329 1135q0 -186 -146 -324.5t-470 -138.5q-22 0 -66 1t-65 1l-56 -283q-30 -158 -30 -188q0 -99 98 -111q35 -4 68 -4l-17 -91q-27 1 -135 8q-80 5 -131 5q-62 0 -187.5 -3t-191.5 -3l20 90h33q74 0 117 47q33 37 66 195q44 226 135 680q9 42 28 133q17 87 17 123
q0 60 -60 80q-29 9 -108 12l20 90q94 -2 273 -2q60 0 181 2t181 2q196 0 291 -59q135 -85 135 -262zM1044 1124q0 133 -110 203q-52 33 -135 33q-56 0 -82 -2l-113 -574q65 -6 127 -6q142 0 230 103q83 98 83 243z" />
    <glyph glyph-name="Q" unicode="Q" horiz-adv-x="1800" 
d="M1806 723q0 -166 -77 -336q-140 -305 -510 -394q193 -166 383 -166q82 0 198 47l-6 -109q-166 -79 -297 -79q-302 0 -631 288q-304 38 -498 236q-204 209 -204 519q0 191 94 359q92 165 254 272q198 131 455 131q285 0 501 -142q227 -150 306 -413q32 -109 32 -213z
M1507 764q0 168 -59 308q-68 160 -197 237q-116 69 -233 69q-152 0 -291 -108q-124 -96 -194 -269q-66 -159 -66 -329q0 -228 116 -398q131 -192 347 -192q248 0 422 213q155 190 155 469z" />
    <glyph glyph-name="R" unicode="R" horiz-adv-x="1501" 
d="M1458 0q-82 -26 -194 -26q-181 0 -285 116q-62 70 -150 272q-75 177 -151 334h-84l-88 -428q-10 -52 -10 -75q0 -64 52 -85q34 -14 114 -14l-23 -95q-150 9 -264 9q-63 0 -190 -4.5t-192 -4.5l19 99q19 -2 45 -2q88 0 133 70q23 34 58 209l166 825q10 54 10 78
q0 84 -117 88h-14h-49l18 96q414 -12 610 -12h97q161 0 250 -37q172 -71 172 -256q0 -114 -72 -220q-68 -100 -173 -158q-76 -41 -175 -58q39 -92 127 -283q86 -178 153 -270q63 -86 158 -86q31 0 49 2v-84zM1110 1143q0 112 -70 172q-59 51 -198 51h-115l-115 -567
q78 -8 115 -8q263 0 346 198q37 88 37 154z" />
    <glyph glyph-name="S" unicode="S" horiz-adv-x="1118" 
d="M1108 1440l-45 -320h-117q8 66 8 92q0 72 -73 121q-65 43 -142 43q-109 0 -182 -59q-82 -67 -82 -162q0 -119 187 -223q219 -123 277 -175q132 -118 132 -292q0 -110 -65 -219q-162 -268 -549 -268q-123 0 -381 32l55 357h119q-6 -40 -6 -70q0 -106 74 -166
q68 -55 176 -55q116 0 203 67q94 73 94 185q0 145 -179 262q-87 53 -175 107q-103 66 -153 131q-65 86 -65 196q0 92 45 184q134 275 486 275q104 0 358 -43z" />
    <glyph glyph-name="T" unicode="T" horiz-adv-x="1288" 
d="M1483 1458l-68 -338h-119q31 89 31 133q0 101 -178 101q-4 0 -176 -6q-79 -370 -191 -957q-30 -161 -30 -203q0 -87 118 -94h43h21l-31 -94q-174 10 -311 10q-113 0 -359 -11l23 101q114 4 156 47q32 34 54 122l28 134q62 318 188 953q-25 2 -70 2q-161 0 -234 -40
q-98 -53 -114 -200h-117l48 340q163 -4 237 -4q72 0 214 2t214 2h623z" />
    <glyph glyph-name="U" unicode="U" horiz-adv-x="1587" 
d="M1759 1462l-20 -88q-102 -4 -137 -47q-30 -36 -62 -180q-49 -221 -156 -660q-8 -35 -30 -104q-156 -413 -631 -413q-206 0 -348 107q-156 119 -156 318q0 76 49 324q29 151 88 455q13 60 13 94q0 77 -115 84q-37 2 -59 2l18 100q154 -14 256 -14q253 0 420 14l-21 -94
h-43q-75 0 -120 -37q-24 -20 -41 -51q-27 -50 -109 -500q-13 -65 -37 -194q-18 -107 -18 -162q0 -149 85 -238.5t234 -89.5q175 0 293 102q106 93 162 269q20 65 67 313l76 393q17 91 17 115q0 84 -113 88h-16h-45l16 90q115 -4 166 -4h135q33 0 89 3q68 4 93 5z" />
    <glyph glyph-name="V" unicode="V" horiz-adv-x="1458" 
d="M1661 1460l-23 -102q-14 2 -39 2q-83 0 -169 -107q-14 -17 -68 -94q-93 -133 -494 -739q-77 -121 -239 -359q-24 -38 -76 -117l-55 -15q-17 240 -58 618q-18 198 -37 396q-31 311 -51 355q-26 61 -112 64h-15h-39l19 94q167 -10 291 -10q56 0 173 4t177 4l-17 -96
q-53 4 -69 4q-96 0 -96 -123q0 -49 20 -238q23 -204 59 -614q4 7 27 43q267 426 444 721q64 106 64 149q0 60 -104 64l16 92q156 -4 227 -4q132 0 244 8z" />
    <glyph glyph-name="W" unicode="W" horiz-adv-x="1929" 
d="M2128 1454l-21 -88q-95 -17 -147 -78q-21 -24 -113 -190q-32 -59 -118 -226q-129 -246 -322 -600q-55 -99 -162 -300l-69 -43q-26 297 -117 989q-324 -628 -516 -952l-76 -45q-25 425 -82 1244q-5 71 -9 92q-11 53 -41 77.5t-140 35.5l16 86q176 -12 256 -12
q-14 0 360 12l-22 -96q-83 0 -111 -15q-41 -23 -41 -96q0 -3 9 -121q1 -28 8 -143q13 -178 39 -536q63 124 192 374q19 34 55 103q14 27 41 84q16 27 45 82q95 178 177 370l49 27l112 -1073q24 46 72 137q107 197 305 598q47 106 47 158q0 63 -86 63q-5 0 -15.5 -1t-16.5 -1
l20 90q150 -10 264 -10q43 0 158 4z" />
    <glyph glyph-name="X" unicode="X" horiz-adv-x="1587" 
d="M1657 1458l-17 -94q-23 -4 -69 -16q-45 -17 -166 -146q-84 -91 -256 -268q-2 -4 -8 -10l-8 -11q-10 -11 -17 -16q-46 -44 -133 -135q52 -99 156 -299q36 -74 114 -219q18 -33 66 -92q51 -48 168 -48h43l-19 -100q-229 4 -333 4q-113 0 -359 -8l21 90q14 -2 34 -2
q84 0 84 66q0 37 -36 116q-28 56 -56 113q-19 40 -96 195l-328 -357q-53 -58 -53 -88q0 -39 62 -43h14h18l-16 -88q-39 0 -114 1t-111 1q10 0 -230 -5l21 91q120 36 231 141q17 16 84 84q179 182 377 361q-24 52 -80 158q-64 126 -196 378q-74 134 -170 146q-6 0 -16 1
t-15 1q-6 0 -20.5 -1t-24.5 -1l22 100q51 0 148.5 -3t144.5 -3q152 0 346 10l-16 -96q-9 0 -23.5 1t-19.5 1q-74 0 -74 -59v-6q0 -30 43 -115q51 -106 156 -318q100 98 215 230q158 182 158 231q0 26 -41 33q-25 4 -74 4l22 92q76 -2 226 -2h221z" />
    <glyph glyph-name="Y" unicode="Y" horiz-adv-x="1417" 
d="M1618 1473l-21 -97q-105 -5 -170 -71q-14 -15 -100 -138q-135 -191 -401 -577q-16 -82 -47 -244q-29 -143 -29 -160q0 -88 119 -88h4q16 0 65 4l-24 -100q-30 0 -86.5 1t-83.5 1q-164 0 -504 -7l16 91h39q87 0 125 39q35 36 55 135q22 107 58 305q-78 221 -246 660
q-36 87 -88 114q-23 13 -63 13h-39l18 100q297 -10 352 -10q36 0 246 10l-14 -92q-8 0 -20.5 1t-16.5 1q-74 0 -74 -68q0 -27 39 -129q23 -57 68 -172q32 -94 100 -280q7 9 20 26q14 23 41 66q41 61 86 137q58 91 170 277q39 67 39 98q0 52 -61 55q-12 2 -39 2l14 90
q140 -4 203 -4q140 0 250 11z" />
    <glyph glyph-name="Z" unicode="Z" horiz-adv-x="1374" 
d="M1466 1464q-343 -452 -1024 -1355q123 1 371 10q117 6 157 15q84 17 140 71q62 59 111 166h102l-76 -371q-241 4 -717 4q-53 0 -160 -1t-161 -1q-59 0 -207 -3q17 23 76 99q46 62 139 185q131 171 455 600q68 92 207 276q49 64 145 193h-113q-366 0 -467 -78
q-64 -50 -102 -164l-113 6l64 350q264 -6 254 -6q57 0 173 1t173 1q56 0 169 -1t169 -1q151 0 235 4z" />
    <glyph glyph-name="bracketleft" unicode="[" horiz-adv-x="819" 
d="M1042 1575l-18 -102h-276l-328 -1654h274l-18 -101h-567l366 1857h567z" />
    <glyph glyph-name="backslash" unicode="\" horiz-adv-x="795" 
d="M770 -36h-118l-484 1490h118z" />
    <glyph glyph-name="bracketright" unicode="]" horiz-adv-x="819" 
d="M803 1573l-365 -1859h-566l18 103h276l328 1656h-275l17 100h567z" />
    <glyph glyph-name="asciicircum" unicode="^" horiz-adv-x="936" 
d="M987 717h-170l-264 553l-270 -553h-170l374 741h138z" />
    <glyph glyph-name="underscore" unicode="_" horiz-adv-x="1032" 
d="M1149 -421h-1073v129h1073v-129z" />
    <glyph glyph-name="grave" unicode="`" horiz-adv-x="578" 
d="M547 1082l-68 -73q-21 4 -79 28q-120 49 -200 108q-73 54 -171 160q134 24 272 72q66 -157 173 -243q23 -17 73 -52z" />
    <glyph glyph-name="a" unicode="a" 
d="M1195 194q-84 -82 -182 -142q-122 -74 -208 -74q-137 0 -137 147q0 49 14 115q-221 -262 -434 -262q-91 0 -145 57q-52 55 -52 147q0 110 72 254q61 122 148 224q142 166 305 227q117 43 342 43q71 0 216 -4q-198 -595 -198 -707q0 -53 41 -53q38 0 158 104zM859 827
q-6 1 -23 2h-23q-76 0 -129 -26q-185 -90 -301 -405q-37 -99 -37 -156q0 -90 82 -90q69 0 173 121q155 181 258 554z" />
    <glyph glyph-name="b" unicode="b" 
d="M1128 721q0 -57 -6 -87q-28 -134 -148 -290q-111 -142 -236 -229q-201 -137 -435 -137q-156 0 -190 105q-7 19 -7 58v9q0 78 27 188q25 93 49 185l136 543q57 230 57 280q0 67 -89 67q-20 -1 -60 -2l18 94q208 6 442 57l-237 -911q247 289 471 289q208 0 208 -219z
M848 672q0 108 -88 108q-114 0 -267 -205q-139 -185 -139 -352q0 -131 107 -131q45 0 102 34q89 54 171 197q70 123 102 245q12 48 12 104z" />
    <glyph glyph-name="c" unicode="c" horiz-adv-x="819" 
d="M888 928l-43 -234h-132v23q0 110 -99 110q-70 0 -122 -46q-67 -60 -113 -195q-41 -122 -41 -226q0 -192 164 -192q158 0 283 217l79 -48q-35 -66 -103 -141q-44 -48 -70 -72q-163 -148 -359 -148q-123 0 -193 84q-65 79 -65 204q0 169 103 338q127 209 309 287
q102 43 266 43q45 0 136 -4z" />
    <glyph glyph-name="d" unicode="d" horiz-adv-x="1202" 
d="M1306 1566q-16 -76 -53 -213q-16 -69 -49 -206t-190 -757q-33 -129 -33 -157q0 -57 51 -57q36 0 142 82l60 -72q-242 -216 -392 -216q-133 0 -133 122q0 68 30 153q-57 -71 -167 -154q-154 -115 -302 -115q-95 0 -152 58t-57 152q0 100 64 232q57 117 164.5 230.5
t220.5 176.5q147 82 396 105q81 286 81 411q0 84 -76 84q-35 0 -75 -7l23 104q57 -4 83 -4q90 0 364 48zM886 839q-111 -10 -169 -32q-74 -27 -143 -97q-81 -83 -143 -206q-69 -135 -69 -236q0 -116 91 -116q43 0 96 32q107 65 185 195q72 121 152 460z" />
    <glyph glyph-name="e" unicode="e" horiz-adv-x="946" 
d="M967 709q0 -93 -77 -171q-142 -143 -534 -153q-6 -32 -6 -66q0 -196 166 -196q79 0 176 59q86 53 148 126l52 -83q-259 -247 -505 -247q-142 0 -226 101q-77 94 -77 238q0 242 193 432.5t436 190.5q109 0 179 -59q75 -64 75 -172zM735 748q0 94 -94 94q-159 0 -265 -364
q204 16 295 115q64 70 64 155z" />
    <glyph glyph-name="f" unicode="f" horiz-adv-x="606" 
d="M1089 1595l-80 -311h-144q50 90 50 135q0 28 -27.5 45t-58.5 17q-30 0 -51 -8q-71 -27 -125 -176q-40 -112 -91 -379h145l-20 -107h-149l-49 -216q-58 -262 -85 -350q-57 -191 -145 -328q-122 -193 -312 -244q-30 -7 -119 -12q13 68 13 175q61 -52 99 -52q31 0 57 16
q53 32 93 157q39 119 101 427q29 143 87 427h-138l23 104l135 2q53 221 128 357q181 325 557 325q35 0 106 -4z" />
    <glyph glyph-name="g" unicode="g" horiz-adv-x="989" 
d="M1098 1012q0 -119 -175 -229q31 -68 31 -111q0 -94 -64 -173q-68 -84 -266 -151q-25 -9 -74 -26q-24 -6 -73 -23q-65 -28 -65 -74q0 -48 148 -65q97 -12 130 -18q75 -15 123 -44q115 -70 115 -201q0 -98 -88 -178q-153 -140 -447 -140q-278 0 -378 116q-43 52 -43 109
q0 144 282 196q-158 45 -158 133q0 106 263 203q-191 71 -191 246q0 111 93 219q117 137 347 137q153 0 265 -86q26 48 26 78q0 38 -39 85l216 90q22 -62 22 -93zM698 737q0 109 -80 109q-58 0 -109 -74q-73 -106 -73 -264q0 -42 24 -73q26 -34 64 -34q76 0 130 135
q44 110 44 201zM705 -183q0 93 -202 128q-28 5 -77 13q-246 -42 -246 -164q0 -68 88 -104q67 -27 152 -27q99 0 179 32q106 42 106 122z" />
    <glyph glyph-name="h" unicode="h" horiz-adv-x="1118" 
d="M1142 194q-238 -218 -394 -218q-121 0 -121 110q0 42 55 233l55 190q33 112 33 144q0 62 -51 62q-36 0 -76 -28q-130 -92 -224 -293q-37 -82 -108 -367l-251 -37l231 912q31 114 61 227q37 146 37 227q0 57 -31 76q-23 14 -82 14h-18h-20l23 88q160 9 222 15
q123 13 219 40l-241 -962q95 121 207 208q145 111 258 111q133 0 133 -127q0 -44 -70 -279q-19 -65 -55 -195q-31 -120 -31 -134q0 -37 41 -37q35 0 140 86z" />
    <glyph glyph-name="i" unicode="i" horiz-adv-x="606" 
d="M649 1257q0 -65 -53 -121.5t-119 -56.5q-45 0 -78.5 30.5t-33.5 76.5q0 69 53 127.5t121 58.5q48 0 79 -33t31 -82zM626 176q-78 -71 -180 -128q-124 -67 -204 -67q-52 0 -86.5 31t-34.5 82q0 43 17 102l32 98q29 102 78 256q39 123 39 138q0 41 -43 41q-27 0 -114 -65
l-60 70q82 73 188 131q126 69 207 69q43 0 73.5 -26t30.5 -68q0 -34 -63 -237q-24 -81 -72 -242q-41 -129 -41 -156q0 -45 39 -45q22 0 136 79z" />
    <glyph glyph-name="j" unicode="j" horiz-adv-x="606" 
d="M676 1290q0 -66 -47 -120t-113 -54q-51 0 -84 31.5t-33 83.5q0 65 54 118.5t118 53.5q45 0 75 -34t30 -79zM612 825q0 -113 -112 -425.5t-207 -460.5q-170 -266 -386 -266q-21 0 -71 5l41 161l82 -4q-11 -35 -11 -49q0 -33 37 -33q27 0 53 37q16 24 54 130
q37 100 122 386q95 319 95 364q0 63 -45 63q-25 0 -107 -59l-56 66q263 200 407 200q104 0 104 -115z" />
    <glyph glyph-name="k" unicode="k" horiz-adv-x="1075" 
d="M1094 791q0 -119 -149 -244q-113 -96 -256 -156l42 -99q49 -120 105 -120q43 0 150 100l56 -74q-221 -220 -362 -220q-61 0 -103 42q-47 46 -150 372q126 29 183 51q98 38 159 101q54 55 54 103q0 55 -59 55q-66 0 -157 -78q-118 -103 -200 -260.5t-104 -317.5l-262 -63
q70 268 268 1050q70 274 70 319q0 84 -94 84q-19 0 -61 -5l18 92q147 15 446 61l-259 -1030q269 359 534 359q131 0 131 -122z" />
    <glyph glyph-name="l" unicode="l" horiz-adv-x="594" 
d="M700 1570l-250 -987q-85 -342 -85 -368q0 -59 51 -59q45 0 166 108l61 -70q-217 -216 -416 -216q-137 0 -137 112q0 46 18 112q16 55 31 110q62 251 95 377q42 166 127 498q26 102 26 144q0 88 -88 88q-24 0 -75 -4l25 100q240 17 451 55z" />
    <glyph glyph-name="m" unicode="m" horiz-adv-x="1714" 
d="M1762 167q-179 -136 -307 -174q-67 -21 -105 -21q-55 0 -88 34t-33 88q0 62 94 364q49 157 49 187q0 45 -47 45q-71 0 -171 -101q-110 -111 -170 -259q-33 -79 -90 -297q-159 -35 -276 -82q120 372 175 603q18 37 18 97q0 47 -39 47q-52 0 -122 -62q-51 -45 -100 -110
q-80 -107 -127 -235q-25 -70 -72 -256q-128 -23 -263 -78q49 183 121 448q59 216 59 246q0 41 -45 41q-20 0 -61 -25q-31 -19 -61 -37l-49 71q302 239 415 239q36 0 59 -26t23 -62q0 -79 -68 -267q91 125 229 231q160 122 273 122q48 0 78.5 -30.5t30.5 -78.5
q0 -91 -52 -234q19 25 59 67q257 274 441 274q115 0 115 -119q0 -71 -48 -226q-36 -115 -73 -230q-35 -118 -35 -144q0 -59 53 -59q66 0 165 99z" />
    <glyph glyph-name="n" unicode="n" 
d="M1218 181q-52 -39 -153 -112q-84 -55 -171 -76q-64 -17 -106 -17q-52 0 -88 27q-41 31 -41 83q0 24 14 79t26 76q108 325 108 396q0 55 -47 55q-56 0 -135 -74q-158 -151 -286 -601l-246 -42q56 213 109.5 424.5t53.5 247.5q0 60 -47 60q-34 0 -103 -59l-62 69q6 7 48 40
q240 189 371 189q72 0 72 -108q0 -82 -51 -259q79 124 211 232q153 125 266 125q58 0 100 -32q45 -35 45 -93q0 -48 -54 -222q-38 -118 -75 -236q-29 -101 -29 -122q0 -63 58 -63q43 0 158 92z" />
    <glyph glyph-name="o" unicode="o" horiz-adv-x="1118" 
d="M1096 600q0 -150 -85 -299.5t-212 -232.5q-140 -90 -328 -90q-133 0 -229 59q-158 98 -158 285q0 159 97 325q80 139 225 217q140 76 305 76t271 -88q114 -93 114 -252zM831 651q0 199 -139 199q-80 0 -161 -77q-84 -79 -134 -228q-47 -135 -47 -264q0 -209 150 -209
q43 0 92 28q106 61 177 247q62 162 62 304z" />
    <glyph glyph-name="p" unicode="p" 
d="M1155 682q0 -124 -80 -270q-70 -127 -173 -227q-205 -196 -466 -196q-33 0 -95 4q-46 -161 -46 -207q0 -75 122 -76h20.5h22.5l-27 -88q-153 8 -339 8q-117 0 -240 -13l23 91h54q56 0 80 16t37 56q9 34 18 69q5 18 88 351l120 481l-136 -68l-58 79q109 56 222 96l70 275
q138 16 250 51l-61 -245q160 63 313 63q281 0 281 -250zM856 612q0 185 -170 185q-68 0 -150 -24q-45 -190 -90 -362q-53 -206 -53 -249q0 -76 96 -76q146 0 263 196q104 174 104 330z" />
    <glyph glyph-name="q" unicode="q" 
d="M1181 928l-145 -579q-25 -96 -106 -425q-31 -123 -31 -154q0 -70 78 -70q24 0 75 5l-23 -91q-189 14 -322 14q-126 0 -258 -6l25 91q20 -3 52 -3q86 0 122 62q8 13 42 154l66 265q6 28 20 81q-45 -42 -130 -130l-7 -7q-7 -9 -14 -13q-14 -10 -43 -31q-156 -113 -306 -113
q-98 0 -158 54q-63 56 -63 154q0 186 175 404q47 59 113 118q142 126 298 177q142 47 346 47q62 0 194 -4zM925 842q-118 0 -177 -17q-77 -23 -155 -93q-94 -83 -162 -214q-73 -140 -73 -256q0 -108 103 -108q104 0 226 146q100 118 151 244q4 10 20 61q12 31 33 94
q16 60 34 143z" />
    <glyph glyph-name="r" unicode="r" horiz-adv-x="819" 
d="M897 918q-76 -184 -80 -304q-41 4 -59 4q-164 0 -280 -226q-66 -129 -129 -375l-252 -42q37 148 102 372q13 63 43 187q16 62 16 99q0 53 -43 53q-31 0 -128 -71l-47 70q296 228 425 228q70 0 70 -92q0 -61 -44 -245q129 192 225 265q85 64 181 77z" />
    <glyph glyph-name="s" unicode="s" horiz-adv-x="903" 
d="M888 886l-62 -251l-139 6q9 45 9 64q0 56 -42.5 94.5t-100.5 38.5q-39 0 -71.5 -30.5t-32.5 -68.5q0 -73 114 -147q140 -91 170 -119q82 -78 82 -186q0 -104 -71 -183q-103 -115 -330 -115q-186 0 -380 49q40 155 59 276l157 -9q-4 -45 -4 -65q0 -74 50 -116
q46 -40 122 -40q57 0 99 34t42 89q0 83 -110 151q-147 90 -165 106q-79 70 -79 175q0 130 100.5 210.5t292.5 80.5q120 0 290 -44z" />
    <glyph glyph-name="t" unicode="t" horiz-adv-x="606" 
d="M698 911l-27 -100h-162q-28 -118 -87 -353q-45 -172 -45 -210q0 -70 53 -70q37 0 144 94l58 -70q-230 -219 -411 -219q-48 0 -81.5 29.5t-33.5 77.5q0 69 29 182q25 91 49 182l91 357h-182l27 100h180l49 192q144 26 249 54l-62 -246h162z" />
    <glyph glyph-name="u" unicode="u" 
d="M1191 206q-60 -49 -191 -144q-128 -79 -216 -79q-102 0 -102 99q0 50 50 217q-88 -119 -216 -210q-149 -106 -266 -106q-51 0 -81 35t-30 84q0 70 37 207l58 208q30 122 30 136q0 58 -47 58q-35 0 -115 -74l-54 72q302 229 423 229q90 0 90 -94q0 -35 -39 -167
q-104 -354 -104 -411q0 -65 57 -65q29 0 80 40q205 163 318 662q87 14 257 57l-116 -447q-53 -210 -53 -253q0 -61 45 -61q30 0 70 30q29 26 59 51z" />
    <glyph glyph-name="v" unicode="v" horiz-adv-x="1032" 
d="M1083 836q0 -138 -185 -383q-150 -198 -291 -317q-77 -64 -150 -107q-89 -51 -168 -51q-68 0 -110 41.5t-42 109.5q0 21 31 146l66 265q24 102 24 122q0 47 -41 47q-23 0 -124 -67l-56 71q289 219 416 219q104 0 104 -88q0 -20 -51 -218q-92 -356 -92 -388q0 -62 57 -62
q51 0 153 103q147 150 208 337q16 50 16 89q0 61 -45 61q-25 0 -76 -39l-32 86q170 121 284 121q44 0 74 -28t30 -70z" />
    <glyph glyph-name="w" unicode="w" horiz-adv-x="1544" 
d="M1604 829q0 -72 -71 -206q-93 -180 -260 -356q-184 -193 -352 -263q-65 -26 -104 -26q-117 0 -117 133q0 66 29 167q7 17 16 54q-82 -118 -171 -204q-153 -147 -287 -147q-129 0 -129 125q0 66 36 201l56 204q26 108 26 126q0 61 -49 61q-32 0 -123 -73l-58 65
q84 81 200 150q140 84 225 84q96 0 96 -90q0 -34 -20 -111q-16 -57 -31 -114q-26 -92 -51 -185q-35 -127 -35 -180q0 -47 43 -47q70 0 202 184q153 216 210 497q51 8 150 29q31 8 99 24q-28 -117 -86 -348q-71 -281 -71 -335q0 -51 51 -51q29 0 77 38q96 75 189 214
q105 157 105 258q0 63 -47 63q-3 0 -54 -22l-31 81q163 107 234 107q103 0 103 -107z" />
    <glyph glyph-name="x" unicode="x" horiz-adv-x="1032" 
d="M1066 919l-43 -189q-61 18 -89 18q-78 0 -158 -78q-37 -36 -116 -142q32 -77 105 -227q42 -74 77 -74q27 0 72 61l73 -45q-161 -262 -285 -262q-21 0 -48 12q-40 18 -165 312q-93 -147 -154 -211q-109 -113 -220 -113q-27 0 -86 9q25 64 62 201q56 -33 91 -33
q126 0 278 229q-34 74 -105 219q-47 92 -93 92q-39 0 -103 -63l-52 68q192 217 311 217q71 0 149 -177q20 -45 58 -134q186 317 374 317q32 0 67 -7z" />
    <glyph glyph-name="y" unicode="y" horiz-adv-x="1075" 
d="M1114 831q0 -89 -148 -335q-104 -174 -217 -326q-177 -239 -318 -383q-144 -146 -302 -146q-55 0 -137 32q23 135 29 252h81v-9.5v-9.5q0 -41 16 -62q34 -46 103 -46q128 0 219 124q-67 258 -102 403q-23 101 -78 303q-28 91 -82 91q-30 0 -85 -61l-64 50q61 77 138 143
q104 89 165 89q42 0 74 -30q43 -40 96 -235q44 -166 126 -525q281 452 281 546q0 66 -57 66q-24 0 -75 -28l-41 64q204 140 276 140q44 0 73 -31.5t29 -75.5z" />
    <glyph glyph-name="z" unicode="z" horiz-adv-x="903" 
d="M936 918l-572 -820h75q131 0 196 21q115 36 155 162h102l-76 -281h-816l580 831h-88q-142 0 -194 -50q-30 -28 -66 -113h-117q42 113 79 243z" />
    <glyph glyph-name="braceleft" unicode="{" horiz-adv-x="723" 
d="M898 1542l-20 -96q-163 0 -227 -113q-29 -52 -61 -228l-35 -190q-31 -171 -84 -256q-66 -108 -200 -152q140 -78 140 -261q0 -66 -16 -157l-28 -162q-19 -105 -19 -155q0 -163 177 -185l-20 -96q-382 8 -382 333q0 63 14 139l29 148q26 138 26 185q0 151 -131 174l20 93
q173 31 218 250q5 30 14 81l50 252q37 193 117 279q109 117 343 117h75z" />
    <glyph glyph-name="bar" unicode="|" horiz-adv-x="477" 
d="M519 1540l-409 -2051h-110l408 2051h111z" />
    <glyph glyph-name="braceright" unicode="}" horiz-adv-x="723" 
d="M699 562l-20 -92q-173 -32 -218 -251q-6 -30 -15 -81l-49 -250q-38 -194 -117 -280q-109 -117 -342 -117h-75l20 96q162 0 226 113q29 52 61 228l35 189q31 171 83 256q67 108 201 152q-140 78 -140 261q0 66 16 157l28 164q19 104 19 155q0 162 -177 184l20 96
q382 -8 382 -333q0 -63 -14 -139l-29 -149q-27 -138 -27 -185q0 -150 132 -174z" />
    <glyph glyph-name="asciitilde" unicode="~" horiz-adv-x="1022" 
d="M1073 623q-133 -164 -270 -164q-78 0 -216.5 71.5t-211.5 71.5q-62 0 -110 -45q-17 -15 -77 -92l-75 123q116 168 262 168q71 0 173 -45q82 -38 165 -76q56 -23 92 -23q92 0 196 133z" />
    <glyph glyph-name="currency" horiz-adv-x="1239" 
d="M1372 1284l-90 -72q-61 75 -112 105q-62 37 -148 37q-251 0 -387 -428h545l-52 -105h-522q-20 -82 -28 -147h475l-52 -105h-436q-4 -69 -4 -100q0 -356 246 -356q179 0 371 198l77 -84q-238 -246 -495 -246q-212 0 -344 138q-140 148 -140 407v43h-145l51 105h103
q5 46 26 147h-127l52 105h106q82 246 248 394q174 157 389 157q260 0 393 -193z" />
    <glyph glyph-name="currency" unicode="&#x20ac;" horiz-adv-x="1239" 
d="M1372 1284l-90 -72q-61 75 -112 105q-62 37 -148 37q-251 0 -387 -428h545l-52 -105h-522q-20 -82 -28 -147h475l-52 -105h-436q-4 -69 -4 -100q0 -356 246 -356q179 0 371 198l77 -84q-238 -246 -495 -246q-212 0 -344 138q-140 148 -140 407v43h-145l51 105h103
q5 46 26 147h-127l52 105h106q82 246 248 394q174 157 389 157q260 0 393 -193z" />
    <glyph glyph-name="currency" unicode="&#xa4;" horiz-adv-x="1239" 
d="M1372 1284l-90 -72q-61 75 -112 105q-62 37 -148 37q-251 0 -387 -428h545l-52 -105h-522q-20 -82 -28 -147h475l-52 -105h-436q-4 -69 -4 -100q0 -356 246 -356q179 0 371 198l77 -84q-238 -246 -495 -246q-212 0 -344 138q-140 148 -140 407v43h-145l51 105h103
q5 46 26 147h-127l52 105h106q82 246 248 394q174 157 389 157q260 0 393 -193z" />
    <glyph glyph-name="nonbreakingspace" unicode="&#xa0;" horiz-adv-x="563" 
 />
    <glyph glyph-name="exclamdown" unicode="&#xa1;" horiz-adv-x="477" 
d="M586 1350q0 -71 -51.5 -127t-120.5 -56q-51 0 -83 38q-30 35 -30 87q0 73 48 128t120 55q53 0 85 -36.5t32 -88.5zM488 160l-13 -84q-210 -37 -448 -110l301 1001l140 88q-27 -220 -56 -417q-18 -108 -50 -327q-4 -32 -4 -51q0 -100 99 -100h31z" />
    <glyph glyph-name="cent" unicode="&#xa2;" horiz-adv-x="819" 
d="M888 928l-43 -234h-132v23q0 83 -59 103l-129 -652q141 15 260 217l79 -48q-35 -66 -103 -141q-127 -140 -268 -191l-43 -219h-95l39 196q-31 -6 -62 -6q-122 0 -193 85q-65 79 -65 203q0 168 103 338q160 266 403 315l33 168h94l-30 -155q11 0 36 1t39 1q45 0 136 -4z
M560 820q-100 -29 -167 -194q-55 -139 -55 -266q0 -146 95 -182z" />
    <glyph glyph-name="sterling" unicode="&#xa3;" horiz-adv-x="1245" 
d="M1285 1432q-14 -55 -55 -312h-124q6 72 6 70q0 90 -64 141q-59 47 -151 47q-115 0 -171 -93q-46 -78 -46 -202q0 -35 16 -245h259l-22 -117l-237 -2q-26 -151 -75 -250q-53 -103 -161 -210q-69 -67 -151 -123q211 87 348 87q75 0 155 -31q43 -18 86 -35q50 -20 89 -20
q73 0 163 61l62 -86q-178 -160 -342 -160q-74 0 -211.5 47.5t-212.5 47.5q-132 0 -327 -94l-69 114q54 35 154 118q31 33 63 85q109 180 134 451h-191l24 117h172q0 21 -2 74q-1 50 -1 75q0 180 93 302q19 24 60 70q140 130 392 130q133 0 337 -57z" />
    <glyph glyph-name="yen" unicode="&#xa5;" horiz-adv-x="1417" 
d="M1637 1473l-20 -97q-104 -5 -168 -72q-28 -29 -102 -137q-109 -155 -325 -467h249l-20 -112h-307q-7 -43 -22 -131h299l-19 -113h-304q-28 -141 -28 -158q0 -88 117 -88q20 0 71 5l-25 -101q-29 0 -85 1t-84 1q-168 0 -504 -7l18 91h38q85 0 126 43q35 36 52 120
q6 30 17 93h-307l20 113h309l20 110l-5 21h-292l19 112h229q-62 177 -196 527q-37 88 -88 115q-24 12 -66 12h-19.5h-18.5l20 100q296 -10 352 -10q42 0 246 10l-15 -92q-8 0 -20 1t-17 1q-73 0 -73 -68q0 -32 38 -129q23 -57 68 -172q33 -94 101 -280q7 9 20.5 28.5
t41.5 64t86 136t169 277.5q39 67 39 98q0 50 -62 55q-5 1 -39 2l15 90q135 -4 203 -4q141 0 248 11z" />
    <glyph glyph-name="brokenbar" unicode="&#xa6;" horiz-adv-x="477" 
d="M499 1419l-158 -788h-110l157 788h111zM296 397l-157 -787h-111l157 787h111z" />
    <glyph glyph-name="section" unicode="&#xa7;" horiz-adv-x="1075" 
d="M1030 1436l-29 -213l-98 10q-3 28 -14 80q-28 86 -135 86q-78 0 -132.5 -58.5t-54.5 -136.5q0 -77 105 -203q21 -25 88 -114q15 -17 45 -53q196 -240 196 -398q0 -191 -276 -360q45 -86 45 -159q0 -155 -132 -253q-119 -89 -278 -89q-123 0 -247 47l41 221l104 -12
q-2 -14 -2 -33q0 -58 41 -93.5t100 -35.5q63 0 109.5 52.5t46.5 115.5q0 85 -129 241q-26 29 -78 88q-207 236 -207 371q0 222 279 397q-58 111 -58 201q0 141 109 239q115 105 305 105q102 0 256 -43zM788 328q0 42 -22 92q-30 65 -109 170q-45 56 -114 145q-36 49 -76 113
q-119 -58 -119 -166q0 -74 70 -178q60 -78 121 -156q87 -115 137 -190q112 75 112 170z" />
    <glyph glyph-name="dieresis" unicode="&#xa8;" horiz-adv-x="578" 
d="M819 1247q0 -64 -50 -113t-114 -49q-106 0 -106 117q0 8 10 44q15 52 58.5 87t97.5 35q46 0 75 -37t29 -84zM375 1253q0 -66 -53.5 -116t-120.5 -50q-95 0 -95 115q0 68 47 119t113 51q48 0 78.5 -35t30.5 -84z" />
    <glyph glyph-name="copyright" unicode="&#xa9;" horiz-adv-x="1714" 
d="M1683 723q0 -307 -219.5 -524.5t-527.5 -217.5q-315 0 -531.5 216.5t-216.5 531.5t217 529.5t533 214.5t530.5 -217t214.5 -533zM1567 725q0 265 -182 449t-447 184q-263 0 -448 -184.5t-185 -446.5t185 -446.5t448 -184.5q261 0 445 184t184 445zM1286 422
q-31 -31 -63 -55q-112 -82 -279 -82q-193 0 -320 113q-132 118 -132 309q0 222 155 355q123 105 307 105q112 0 326 -68v-190h-71q-46 178 -244 178q-115 0 -194 -94.5t-79 -273.5q0 -200 105 -288q73 -60 178 -60q70 0 144 47q84 55 113 139l54 -4v-131z" />
    <glyph glyph-name="ordfeminine" unicode="&#xaa;" horiz-adv-x="748" 
d="M872 1015q-145 -145 -258 -145q-94 0 -94 101q0 21 6 54q-128 -155 -270 -155q-62 0 -97.5 38t-35.5 100q0 125 112 271q109 143 231 187q74 27 220 27q94 0 147 -2q-128 -395 -128 -461q0 -29 20 -29q16 0 103 70zM642 1417h-24q-47 0 -80 -16q-72 -35 -143 -154.5
t-71 -202.5q0 -51 47 -51q43 0 107 77q99 117 164 347z" />
    <glyph glyph-name="guillemotleft" unicode="&#xab;" horiz-adv-x="946" 
d="M949 875l-285 -433l99 -383l-76 -42l-256 434q151 161 451 485zM595 875l-285 -435l98 -381l-76 -40l-255 432q2 2 453 485z" />
    <glyph glyph-name="logicalnot" unicode="&#xac;" 
d="M1206 322h-112v362h-1026v113h1138v-475z" />
    <glyph glyph-name="minus" unicode="&#xad;" 
d="M1200 504h-1139v112h1139v-112z" />
    <glyph glyph-name="minus" unicode="&#x2212;" 
d="M1200 504h-1139v112h1139v-112z" />
    <glyph glyph-name="registered" unicode="&#xae;" horiz-adv-x="1714" 
d="M1683 723q0 -307 -219.5 -524.5t-527.5 -217.5q-315 0 -531.5 216.5t-216.5 531.5t217 529.5t533 214.5t530.5 -217t214.5 -533zM1567 725q0 265 -182 449t-447 184q-263 0 -448 -184.5t-185 -446.5t185 -446.5t448 -184.5q261 0 445 184t184 445zM1362 285h-39
q-187 0 -249 117l-117 217q-29 54 -77 57q-38 2 -57 5v-194q0 -72 11 -95q17 -38 75 -38q9 0 19 1v-62q-219 6 -207 6q-16 0 -172 -4v61q72 3 90 37q10 21 10 73v13.5v12.5v440q0 88 -16 119q-18 35 -92 43v61q67 0 147.5 -1t106.5 -1q27 0 89.5 4t88.5 4q78 0 122 -14
q69 -23 115.5 -85t46.5 -132q0 -120 -98 -188q-17 -14 -63 -38l134 -241q56 -100 102 -113q12 -4 30 -4v-61zM1067 905q0 76 -36 123q-51 66 -144 66q-46 0 -66 -5v-334q33 -7 78 -7q22 0 44 6q124 34 124 151z" />
    <glyph glyph-name="macron" unicode="&#xaf;" horiz-adv-x="578" 
d="M631 1122h-683v172h683v-172z" />
    <glyph glyph-name="macron" unicode="&#x2c9;" horiz-adv-x="578" 
d="M631 1122h-683v172h683v-172z" />
    <glyph glyph-name="degree" unicode="&#xb0;" horiz-adv-x="733" 
d="M819 1235q0 -126 -89.5 -215.5t-215.5 -89.5q-127 0 -216 88.5t-89 216.5q0 126 89.5 215.5t215.5 89.5t215.5 -89.5t89.5 -215.5zM688 1235q0 73 -51 123.5t-125 50.5q-71 0 -121.5 -52.5t-50.5 -123.5q0 -72 51.5 -122t122.5 -50q74 0 124 50t50 124z" />
    <glyph glyph-name="plusminus" unicode="&#xb1;" 
d="M1239 741h-514v-514h-113v514h-512v113h512v514h113v-514h514v-113zM1239 0h-1139v113h1139v-113z" />
    <glyph glyph-name="twosuperior" unicode="&#xb2;" horiz-adv-x="748" 
d="M717 1225q0 -131 -165 -296q-90 -84 -268 -255h387l-52 -154h-581q14 16 22 24q75 83 228 245q76 78 147 170q19 22 53 67q42 66 42 127q0 72 -66 115q-59 39 -138 39q-16 0 -94 -12q26 77 52 180q10 0 25.5 1t22.5 1q242 0 337 -110q48 -56 48 -142z" />
    <glyph glyph-name="threesuperior" unicode="&#xb3;" horiz-adv-x="748" 
d="M715 827q0 -100 -69 -180q-121 -143 -355 -143q-59 0 -161 23l37 182h58v-25q0 -98 117 -98q76 0 132 54.5t56 129.5q0 76 -53 118q-49 40 -129 40q-24 0 -66 -7l30 159q20 -3 44 -3q86 0 124 50q28 36 28 83q0 50 -41 80q-36 27 -90 27q-40 0 -124 -31l32 180
q94 13 133 13q81 0 139 -27q115 -55 115 -174q0 -74 -43.5 -134t-113.5 -86q86 -23 140 -81q60 -63 60 -150z" />
    <glyph glyph-name="acute" unicode="&#xb4;" horiz-adv-x="578" 
d="M543 1297q-106 -121 -203 -181q-80 -50 -243 -109l-60 67q100 64 148.5 123t94.5 168q142 -49 263 -68z" />
    <glyph glyph-name="mu" unicode="&#xb5;" 
d="M1191 206q-60 -49 -191 -144q-128 -79 -216 -79q-102 0 -102 99q0 53 50 214q-39 -60 -129 -184q-111 -138 -189 -138q-38 0 -74 33q-45 -152 -45 -221q0 -75 122 -76h20.5h22.5l-27 -88q-153 8 -339 8q-117 0 -240 -13l23 91h61q86 0 110 71q6 24 18 69l168 669
q30 118 30 136q0 58 -47 58q-29 0 -115 -74l-55 72q151 112 202 143q137 86 222 86q90 0 90 -94q0 -38 -39 -167q-104 -344 -104 -411q0 -65 57 -65q30 0 79 40q127 103 211 302q55 132 108 360q87 14 257 57l-116 -447q-18 -63 -35 -125q-18 -75 -18 -128q0 -61 45 -61
q30 0 70 30q29 26 59 51z" />
    <glyph glyph-name="mu" unicode="&#x3bc;" 
d="M1191 206q-60 -49 -191 -144q-128 -79 -216 -79q-102 0 -102 99q0 53 50 214q-39 -60 -129 -184q-111 -138 -189 -138q-38 0 -74 33q-45 -152 -45 -221q0 -75 122 -76h20.5h22.5l-27 -88q-153 8 -339 8q-117 0 -240 -13l23 91h61q86 0 110 71q6 24 18 69l168 669
q30 118 30 136q0 58 -47 58q-29 0 -115 -74l-55 72q151 112 202 143q137 86 222 86q90 0 90 -94q0 -38 -39 -167q-104 -344 -104 -411q0 -65 57 -65q30 0 79 40q127 103 211 302q55 132 108 360q87 14 257 57l-116 -447q-18 -63 -35 -125q-18 -75 -18 -128q0 -61 45 -61
q30 0 70 30q29 26 59 51z" />
    <glyph glyph-name="paragraph" unicode="&#xb6;" horiz-adv-x="1122" 
d="M1079 1346h-67v-1687h-117v1687h-289v-1687h-117v1019q-153 18 -239 120t-86 259q0 134 71 235q73 105 199 144q73 22 187 22h458v-112z" />
    <glyph glyph-name="periodcentered" unicode="&#xb7;" horiz-adv-x="391" 
d="M418 596q0 -53 -38 -89t-91 -36q-51 0 -87 38t-36 89q0 52 38 88.5t89 36.5q52 0 88.5 -37.5t36.5 -89.5z" />
    <glyph glyph-name="periodcentered" unicode="&#x2219;" horiz-adv-x="391" 
d="M418 596q0 -53 -38 -89t-91 -36q-51 0 -87 38t-36 89q0 52 38 88.5t89 36.5q52 0 88.5 -37.5t36.5 -89.5z" />
    <glyph glyph-name="cedilla" unicode="&#xb8;" horiz-adv-x="578" 
d="M492 -77q0 -67 -36 -133q-51 -96 -140 -153q-63 -40 -193 -85l-38 52q120 106 120 238v9q142 36 281 101q6 -22 6 -29z" />
    <glyph glyph-name="onesuperior" unicode="&#xb9;" horiz-adv-x="748" 
d="M659 1486q-26 -123 -88 -434q-16 -87 -51 -260q-18 -83 -18 -135q0 -49 74 -57h-1h50l-13 -76q-193 11 -223 11q6 0 -245 -7l17 78q9 0 21 -1t17 -1q60 0 87 33q21 26 31 89q5 21 13 61l28 152q30 142 85 426l-208 -26l15 84q116 14 409 63z" />
    <glyph glyph-name="ordmasculine" unicode="&#xba;" horiz-adv-x="721" 
d="M819 1266q0 -97 -55.5 -194.5t-138.5 -151.5q-93 -60 -213 -60q-106 0 -178 60q-76 63 -76 167q0 109 62 214q113 190 345 190q107 0 178 -57q76 -62 76 -168zM637 1300q0 121 -84 121q-96 0 -160 -136q-53 -113 -53 -224q0 -129 90 -129q91 0 154 142q53 119 53 226z
" />
    <glyph glyph-name="guillemotright" unicode="&#xbb;" horiz-adv-x="946" 
d="M931 483q-45 -49 -133 -144q-106 -111 -316 -339l-68 59l286 435l-97 381l76 40zM581 485q-200 -209 -410 -441q-13 -13 -42 -44l-67 59l286 433l-99 382l76 43z" />
    <glyph glyph-name="onequarter" unicode="&#xbc;" horiz-adv-x="1647" 
d="M1643 956l-114 -591h110l-26 -125h-113l-47 -243h-188l49 243h-312l12 47q78 89 232 265q112 125 201 231q22 28 70 80q4 5 12 14q22 27 71 79h43zM1509 1456l-911 -1454h-130l910 1454h131zM659 1486q-26 -123 -88 -434q-16 -87 -51 -260q-18 -83 -18 -135q0 -49 74 -57
h-1h50l-13 -76q-193 11 -223 11q6 0 -245 -7l17 78q9 0 21 -1t17 -1q60 0 87 33q21 26 31 89q5 21 13 61l28 152q30 142 85 426l-208 -26l15 84q116 14 409 63zM1389 629l-207 -264h156z" />
    <glyph glyph-name="onehalf" unicode="&#xbd;" horiz-adv-x="1647" 
d="M1659 705q0 -133 -163 -296q-91 -84 -270 -255h389l-51 -155h-585q13 11 23.5 22.5t12.5 14.5q21 21 61.5 65t61.5 66q30 34 92 102q77 79 149 170q96 120 96 192q0 73 -67 117q-58 38 -138 38q-42 0 -97 -11q20 58 55 179h48q245 0 337 -108q46 -54 46 -141zM1421 1456
l-911 -1454h-130l910 1454h131zM659 1486q-26 -123 -88 -434q-16 -87 -51 -260q-18 -83 -18 -135q0 -49 74 -57h-1h50l-13 -76q-193 11 -223 11q6 0 -245 -7l17 78q9 0 21 -1t17 -1q60 0 87 33q21 26 31 89q5 21 13 61l28 152q30 142 85 426l-208 -26l15 84q116 14 409 63z
" />
    <glyph glyph-name="threequarters" unicode="&#xbe;" horiz-adv-x="1647" 
d="M1645 956l-114 -591h110l-26 -125h-112l-48 -243h-188l47 243h-310l12 47q78 89 232 265q112 125 201 231q22 28 70 80q4 5 12 14q22 27 69 79h45zM1482 1456l-910 -1454h-131l910 1454h131zM715 827q0 -100 -69 -180q-121 -143 -355 -143q-59 0 -161 23l37 182h58v-25
q0 -98 117 -98q76 0 132 54.5t56 129.5q0 76 -53 118q-49 40 -129 40q-24 0 -66 -7l30 159q20 -3 44 -3q86 0 124 50q28 36 28 83q0 50 -41 80q-36 27 -90 27q-40 0 -124 -31l32 180q94 13 133 13q81 0 139 -27q115 -55 115 -174q0 -74 -43.5 -134t-113.5 -86
q86 -23 140 -81q60 -63 60 -150zM1392 629l-208 -264h156z" />
    <glyph glyph-name="questiondown" unicode="&#xbf;" horiz-adv-x="776" 
d="M817 1339q0 -65 -46 -120q-48 -58 -114 -58q-57 0 -89.5 39t-32.5 96q0 65 51.5 118.5t115.5 53.5q54 0 86 -39q29 -36 29 -90zM724 1054q-13 -89 -70 -186l-166 -240q-105 -157 -105 -251q0 -69 54 -113q50 -41 120 -41q69 0 167 40q-54 -154 -78 -263
q-164 -24 -284 -24q-122 0 -196 68.5t-74 191.5q0 222 270 459q147 129 189 208q12 22 25 77z" />
    <glyph glyph-name="Agrave" unicode="&#xc0;" horiz-adv-x="1458" 
d="M1436 94l-25 -94q-139 6 -410 6h-204l26 94q36 0 95 13q30 17 30 77q0 52 -26 308h-404l-115 -195q-65 -110 -65 -147q0 -62 74 -62q6 0 18.5 -1t20.5 -1l-23 -93q-164 7 -235 7q-38 0 -115 -3.5t-118 -3.5l23 93q79 0 136 43q29 22 102 137q235 368 378.5 583t430.5 652
l76 4l117 -1210q6 -74 10 -92q12 -61 41 -84q40 -33 106 -33q11 0 29 1t27 1zM909 629l-37 440l-274 -440h311zM1264 1610l-68 -73q-21 4 -79 28q-120 49 -200 108q-73 54 -171 160q134 24 272 72q66 -157 173 -243q23 -17 73 -52z" />
    <glyph glyph-name="Aacute" unicode="&#xc1;" horiz-adv-x="1458" 
d="M1436 94l-25 -94q-139 6 -410 6h-204l26 94q36 0 95 13q30 17 30 77q0 52 -26 308h-404l-115 -195q-65 -110 -65 -147q0 -62 74 -62q6 0 18.5 -1t20.5 -1l-23 -93q-164 7 -235 7q-38 0 -115 -3.5t-118 -3.5l23 93q79 0 136 43q29 22 102 137q235 368 378.5 583t430.5 652
l76 4l117 -1210q6 -74 10 -92q12 -61 41 -84q40 -33 106 -33q11 0 29 1t27 1zM909 629l-37 440l-274 -440h311zM1357 1825q-106 -121 -203 -181q-80 -50 -243 -109l-60 67q100 64 148.5 123t94.5 168q142 -49 263 -68z" />
    <glyph glyph-name="Acircumflex" unicode="&#xc2;" horiz-adv-x="1458" 
d="M1436 94l-25 -94q-139 6 -410 6h-204l26 94q36 0 95 13q30 17 30 77q0 52 -26 308h-404l-115 -195q-65 -110 -65 -147q0 -62 74 -62q6 0 18.5 -1t20.5 -1l-23 -93q-164 7 -235 7q-38 0 -115 -3.5t-118 -3.5l23 93q79 0 136 43q29 22 102 137q235 368 378.5 583t430.5 652
l76 4l117 -1210q6 -74 10 -92q12 -61 41 -84q40 -33 106 -33q11 0 29 1t27 1zM909 629l-37 440l-274 -440h311zM1366 1598l-77 -64q-64 54 -85 75q-42 41 -70 89q-22 -17 -67 -49q-75 -48 -267 -122l-80 90q34 15 98 47q176 97 268 248h224q-19 -67 -19 -108q0 -101 75 -206
z" />
    <glyph glyph-name="Atilde" unicode="&#xc3;" horiz-adv-x="1458" 
d="M1436 94l-25 -94q-139 6 -410 6h-204l26 94q36 0 95 13q30 17 30 77q0 52 -26 308h-404l-115 -195q-65 -110 -65 -147q0 -62 74 -62q6 0 18.5 -1t20.5 -1l-23 -93q-164 7 -235 7q-38 0 -115 -3.5t-118 -3.5l23 93q79 0 136 43q29 22 102 137q235 368 378.5 583t430.5 652
l76 4l117 -1210q6 -74 10 -92q12 -61 41 -84q40 -33 106 -33q11 0 29 1t27 1zM909 629l-37 440l-274 -440h311zM1433 1828q0 -153 -67 -222q-49 -50 -125 -50q-70 0 -181.5 62.5t-150.5 62.5q-17 0 -39 -12q-37 -19 -41 -88h-108q0 117 53 195q60 91 170 91q63 0 134 -36
q60 -35 121 -69q36 -20 58 -20q64 0 72 91h102v-9h-2z" />
    <glyph glyph-name="Adieresis" unicode="&#xc4;" horiz-adv-x="1458" 
d="M1436 94l-25 -94q-139 6 -410 6h-204l26 94q36 0 95 13q30 17 30 77q0 52 -26 308h-404l-115 -195q-65 -110 -65 -147q0 -62 74 -62q6 0 18.5 -1t20.5 -1l-23 -93q-164 7 -235 7q-38 0 -115 -3.5t-118 -3.5l23 93q79 0 136 43q29 22 102 137q235 368 378.5 583t430.5 652
l76 4l117 -1210q6 -74 10 -92q12 -61 41 -84q40 -33 106 -33q11 0 29 1t27 1zM909 629l-37 440l-274 -440h311zM1464 1707q0 -64 -50 -113t-114 -49q-106 0 -106 117q0 8 10 44q15 52 58.5 87t97.5 35q46 0 75 -37t29 -84zM1020 1713q0 -66 -53.5 -116t-120.5 -50
q-95 0 -95 115q0 68 47 119t113 51q48 0 78.5 -35t30.5 -84z" />
    <glyph glyph-name="Aring" unicode="&#xc5;" horiz-adv-x="1458" 
d="M1436 94l-25 -94q-139 6 -410 6h-204l26 94q36 0 95 13q30 17 30 77q0 52 -26 308h-404l-115 -195q-65 -110 -65 -147q0 -62 74 -62q6 0 18.5 -1t20.5 -1l-23 -93q-164 7 -235 7q-38 0 -115 -3.5t-118 -3.5l23 93q79 0 136 43q29 22 102 137q235 368 378.5 583t430.5 652
l76 4l117 -1210q6 -74 10 -92q12 -61 41 -84q40 -33 106 -33q11 0 29 1t27 1zM909 629l-37 440l-274 -440h311zM1325 1755q0 -89 -64 -153t-153 -64t-153 64t-64 153t64 153t153 64t153 -64t64 -153zM1222 1755q0 47 -33.5 80.5t-80.5 33.5q-48 0 -81.5 -33.5t-33.5 -80.5
q0 -48 33.5 -81.5t81.5 -33.5q47 0 80.5 33.5t33.5 81.5z" />
    <glyph glyph-name="AE" unicode="&#xc6;" horiz-adv-x="2183" 
d="M2224 1454l-67 -332h-113q27 76 27 109q0 83 -70 109q-41 16 -141 16h-234l-106 -531h65q177 0 273 21q36 8 59 28q22 24 29 80h92q-40 -148 -72 -358l-94 2q10 51 10 64q0 69 -131 69h-92q-107 0 -158 -2l-61 -299q-37 -176 -37 -235q0 -71 59 -93q34 -12 137 -12
t179 16q105 23 158 95q43 59 69 180l104 -2q-15 -70 -45 -207q-5 -24 -30 -172l-1008 2q8 0 -176 -5l18 97h6q132 0 170 27q46 32 77 141q9 29 36 164l62 303l-392 -2q-23 -28 -364 -467q-64 -82 -64 -115q0 -55 66 -55q14 0 67 4l-32 -99q-127 9 -226 9q-110 0 -281 -7
l15 91q68 5 150 62q104 72 218 200q94 114 189 228q86 101 146 178q18 24 55 71q78 96 281 347q83 104 83 141q0 47 -83 47h-89l19 94q242 -4 444 -4zM1358 1368h-21q-12 -17 -358 -450q-27 -34 -80 -99h338z" />
    <glyph glyph-name="Ccedilla" unicode="&#xc7;" horiz-adv-x="1501" 
d="M1577 1389l-57 -299l-103 2q10 25 10 49q0 66 -77 135q-121 106 -316 106q-251 0 -422 -221q-157 -205 -157 -465q0 -199 83 -350q93 -168 267 -225q81 -27 156 -27q94 0 194 37q108 40 164 105q24 27 47 73l84 10l-45 -239q-313 -108 -477 -108q-323 0 -544.5 217
t-221.5 538q0 236 133.5 427t354.5 272q156 57 370 57q192 0 557 -94zM963 -77q0 -67 -36 -133q-51 -96 -140 -153q-63 -40 -193 -85l-38 52q120 106 120 238v9q142 36 281 101q6 -22 6 -29z" />
    <glyph glyph-name="Egrave" unicode="&#xc8;" horiz-adv-x="1288" 
d="M1329 1468q-22 -113 -65 -344h-109q19 70 19 111q0 87 -72 115q-42 16 -150 16q-80 0 -231 -4l-103 -512h72q242 0 307 45q33 22 56 94l86 -2q-68 -233 -68 -366h-90q0 9 1 24.5t1 22.5q0 92 -184 92q-117 0 -199 -10q-24 -109 -68 -336q-34 -182 -34 -197q0 -89 84 -108
q25 -7 79 -9t68 -2h29q96 0 143 13q168 44 215 270l98 -2q-35 -168 -65 -377q-356 8 -528 8q-253 0 -619 -13l18 93h33q87 0 125 55q26 38 66 230q31 151 149 753q27 136 27 156q0 30 -21 53q-27 24 -71 27h-21q-11 0 -33.5 -1t-33.5 -1l16 94q176 -4 254 -4q71 0 213 1
t213 1q20 0 60 2t61 2q149 0 272 10zM1079 1610l-68 -73q-21 4 -79 28q-120 49 -200 108q-73 54 -171 160q134 24 272 72q66 -157 173 -243q23 -17 73 -52z" />
    <glyph glyph-name="Eacute" unicode="&#xc9;" horiz-adv-x="1288" 
d="M1329 1468q-22 -113 -65 -344h-109q19 70 19 111q0 87 -72 115q-42 16 -150 16q-80 0 -231 -4l-103 -512h72q242 0 307 45q33 22 56 94l86 -2q-68 -233 -68 -366h-90q0 9 1 24.5t1 22.5q0 92 -184 92q-117 0 -199 -10q-24 -109 -68 -336q-34 -182 -34 -197q0 -89 84 -108
q25 -7 79 -9t68 -2h29q96 0 143 13q168 44 215 270l98 -2q-35 -168 -65 -377q-356 8 -528 8q-253 0 -619 -13l18 93h33q87 0 125 55q26 38 66 230q31 151 149 753q27 136 27 156q0 30 -21 53q-27 24 -71 27h-21q-11 0 -33.5 -1t-33.5 -1l16 94q176 -4 254 -4q71 0 213 1
t213 1q20 0 60 2t61 2q149 0 272 10zM1254 1825q-106 -121 -203 -181q-80 -50 -243 -109l-60 67q100 64 148.5 123t94.5 168q142 -49 263 -68z" />
    <glyph glyph-name="Ecircumflex" unicode="&#xca;" horiz-adv-x="1288" 
d="M1329 1468q-22 -113 -65 -344h-109q19 70 19 111q0 87 -72 115q-42 16 -150 16q-80 0 -231 -4l-103 -512h72q242 0 307 45q33 22 56 94l86 -2q-68 -233 -68 -366h-90q0 9 1 24.5t1 22.5q0 92 -184 92q-117 0 -199 -10q-24 -109 -68 -336q-34 -182 -34 -197q0 -89 84 -108
q25 -7 79 -9t68 -2h29q96 0 143 13q168 44 215 270l98 -2q-35 -168 -65 -377q-356 8 -528 8q-253 0 -619 -13l18 93h33q87 0 125 55q26 38 66 230q31 151 149 753q27 136 27 156q0 30 -21 53q-27 24 -71 27h-21q-11 0 -33.5 -1t-33.5 -1l16 94q176 -4 254 -4q71 0 213 1
t213 1q20 0 60 2t61 2q149 0 272 10zM1206 1598l-77 -64q-64 54 -85 75q-42 41 -70 89q-22 -17 -67 -49q-75 -48 -267 -122l-80 90q34 15 98 47q176 97 268 248h224q-19 -67 -19 -108q0 -101 75 -206z" />
    <glyph glyph-name="Edieresis" unicode="&#xcb;" horiz-adv-x="1288" 
d="M1329 1468q-22 -113 -65 -344h-109q19 70 19 111q0 87 -72 115q-42 16 -150 16q-80 0 -231 -4l-103 -512h72q242 0 307 45q33 22 56 94l86 -2q-68 -233 -68 -366h-90q0 9 1 24.5t1 22.5q0 92 -184 92q-117 0 -199 -10q-24 -109 -68 -336q-34 -182 -34 -197q0 -89 84 -108
q25 -7 79 -9t68 -2h29q96 0 143 13q168 44 215 270l98 -2q-35 -168 -65 -377q-356 8 -528 8q-253 0 -619 -13l18 93h33q87 0 125 55q26 38 66 230q31 151 149 753q27 136 27 156q0 30 -21 53q-27 24 -71 27h-21q-11 0 -33.5 -1t-33.5 -1l16 94q176 -4 254 -4q71 0 213 1
t213 1q20 0 60 2t61 2q149 0 272 10zM1208 1707q0 -64 -50 -113t-114 -49q-106 0 -106 117q0 8 10 44q15 52 58.5 87t97.5 35q46 0 75 -37t29 -84zM764 1713q0 -66 -53.5 -116t-120.5 -50q-95 0 -95 115q0 68 47 119t113 51q48 0 78.5 -35t30.5 -84z" />
    <glyph glyph-name="Igrave" unicode="&#xcc;" horiz-adv-x="733" 
d="M905 1458l-16 -94h-17q-68 0 -96 -14q-55 -29 -85 -124q-9 -27 -34 -153l-137 -696q-28 -140 -28 -174q0 -78 53 -98q27 -11 123 -11l-13 -94q-176 8 -256 8q-172 0 -397 -9l16 91h35q79 0 115 41q29 33 63 203q78 379 158 794q25 127 25 152q0 82 -117 82h-64l19 94
q205 -8 297 -8q155 0 356 10zM772 1610l-68 -73q-21 4 -79 28q-120 49 -200 108q-73 54 -171 160q134 24 272 72q66 -157 173 -243q23 -17 73 -52z" />
    <glyph glyph-name="Iacute" unicode="&#xcd;" horiz-adv-x="733" 
d="M905 1458l-16 -94h-17q-68 0 -96 -14q-55 -29 -85 -124q-9 -27 -34 -153l-137 -696q-28 -140 -28 -174q0 -78 53 -98q27 -11 123 -11l-13 -94q-176 8 -256 8q-172 0 -397 -9l16 91h35q79 0 115 41q29 33 63 203q78 379 158 794q25 127 25 152q0 82 -117 82h-64l19 94
q205 -8 297 -8q155 0 356 10zM926 1825q-106 -121 -203 -181q-80 -50 -243 -109l-60 67q100 64 148.5 123t94.5 168q142 -49 263 -68z" />
    <glyph glyph-name="Icircumflex" unicode="&#xce;" horiz-adv-x="733" 
d="M905 1458l-16 -94h-17q-68 0 -96 -14q-55 -29 -85 -124q-9 -27 -34 -153l-137 -696q-28 -140 -28 -174q0 -78 53 -98q27 -11 123 -11l-13 -94q-176 8 -256 8q-172 0 -397 -9l16 91h35q79 0 115 41q29 33 63 203q78 379 158 794q25 127 25 152q0 82 -117 82h-64l19 94
q205 -8 297 -8q155 0 356 10zM909 1598l-77 -64q-64 54 -85 75q-42 41 -70 89q-22 -17 -67 -49q-75 -48 -267 -122l-80 90q34 15 98 47q176 97 268 248h224q-19 -67 -19 -108q0 -101 75 -206z" />
    <glyph glyph-name="Idieresis" unicode="&#xcf;" horiz-adv-x="733" 
d="M905 1458l-16 -94h-17q-68 0 -96 -14q-55 -29 -85 -124q-9 -27 -34 -153l-137 -696q-28 -140 -28 -174q0 -78 53 -98q27 -11 123 -11l-13 -94q-176 8 -256 8q-172 0 -397 -9l16 91h35q79 0 115 41q29 33 63 203q78 379 158 794q25 127 25 152q0 82 -117 82h-64l19 94
q205 -8 297 -8q155 0 356 10zM956 1707q0 -64 -50 -113t-114 -49q-106 0 -106 117q0 8 10 44q15 52 58.5 87t97.5 35q46 0 75 -37t29 -84zM512 1713q0 -66 -53.5 -116t-120.5 -50q-95 0 -95 115q0 68 47 119t113 51q48 0 78.5 -35t30.5 -84z" />
    <glyph glyph-name="Eth" unicode="&#xd0;" horiz-adv-x="1714" 
d="M1743 858q0 -412 -359 -688q-225 -173 -569 -173q-76 0 -228.5 2.5t-228.5 2.5q-112 0 -354 -7l14 97h68q50 0 84 39q31 36 76 256l59 293h-184l22 119h183q22 106 65 317q27 128 27 162q0 40 -31 64t-72 24q-33 0 -79 -6l22 100q74 -4 104 -4q89 0 266 2t265 2
q273 0 423 -43q222 -64 341 -243q86 -131 86 -316zM1427 834q0 35 -2 69q-8 135 -105 254q-94 115 -226 162q-99 35 -269 35q-71 0 -106 -2l-111 -553h385l-22 -119h-385l-62 -301q-20 -100 -20 -152q0 -86 66 -116q43 -19 141 -19h26q181 0 322 74q176 92 275 281
q93 177 93 387z" />
    <glyph glyph-name="Ntilde" unicode="&#xd1;" horiz-adv-x="1630" 
d="M1802 1456l-14 -94q-110 0 -156 -74q-36 -59 -88 -316q-33 -174 -65 -347q-45 -231 -131 -696h-23l-831 1208q-6 -26 -74 -422q-39 -224 -62 -400q-10 -79 -10 -122q0 -109 107 -109q9 0 30.5 1t34.5 1l-14 -87q-160 7 -230 7q13 0 -258 -6l21 90h24q61 0 97 31
q47 41 84 227q41 234 127 701q30 160 30 194q0 38 -26 74q-39 53 -123 53h-23l13 88q227 -6 221 -6q49 0 155 8l498 -712q76 -109 225 -328q26 150 80 450q15 76 39 230q19 145 19 160q0 105 -105 110h-35h-39l25 92q28 -1 138 -8q82 -6 134 -6q62 0 205 8zM1423 1828
q0 -153 -67 -222q-49 -50 -125 -50q-70 0 -181.5 62.5t-150.5 62.5q-17 0 -39 -12q-37 -19 -41 -88h-108q0 117 53 195q60 91 170 91q63 0 134 -36q60 -35 121 -69q36 -20 58 -20q64 0 72 91h102v-9h-2z" />
    <glyph glyph-name="Ograve" unicode="&#xd2;" horiz-adv-x="1800" 
d="M1806 723q0 -165 -77 -336q-93 -203 -304 -317q-195 -104 -432 -104q-347 0 -583 205q-246 216 -246 558q0 191 94 359q92 165 254 272q198 131 455 131q285 0 501 -142q227 -150 306 -413q32 -109 32 -213zM1507 764q0 168 -59 308q-68 160 -197 237q-116 69 -233 69
q-152 0 -291 -108q-124 -96 -194 -269q-66 -159 -66 -329q0 -228 116 -398q131 -192 347 -192q248 0 422 213q155 190 155 469zM1325 1610l-68 -73q-21 4 -79 28q-120 49 -200 108q-73 54 -171 160q134 24 272 72q66 -157 173 -243q23 -17 73 -52z" />
    <glyph glyph-name="Oacute" unicode="&#xd3;" horiz-adv-x="1800" 
d="M1806 723q0 -165 -77 -336q-93 -203 -304 -317q-195 -104 -432 -104q-347 0 -583 205q-246 216 -246 558q0 191 94 359q92 165 254 272q198 131 455 131q285 0 501 -142q227 -150 306 -413q32 -109 32 -213zM1507 764q0 168 -59 308q-68 160 -197 237q-116 69 -233 69
q-152 0 -291 -108q-124 -96 -194 -269q-66 -159 -66 -329q0 -228 116 -398q131 -192 347 -192q248 0 422 213q155 190 155 469zM1397 1825q-106 -121 -203 -181q-80 -50 -243 -109l-60 67q100 64 148.5 123t94.5 168q142 -49 263 -68z" />
    <glyph glyph-name="Ocircumflex" unicode="&#xd4;" horiz-adv-x="1800" 
d="M1806 723q0 -165 -77 -336q-93 -203 -304 -317q-195 -104 -432 -104q-347 0 -583 205q-246 216 -246 558q0 191 94 359q92 165 254 272q198 131 455 131q285 0 501 -142q227 -150 306 -413q32 -109 32 -213zM1507 764q0 168 -59 308q-68 160 -197 237q-116 69 -233 69
q-152 0 -291 -108q-124 -96 -194 -269q-66 -159 -66 -329q0 -228 116 -398q131 -192 347 -192q248 0 422 213q155 190 155 469zM1411 1598l-77 -64q-64 54 -85 75q-42 41 -70 89q-22 -17 -67 -49q-75 -48 -267 -122l-80 90q34 15 98 47q176 97 268 248h224q-19 -67 -19 -108
q0 -101 75 -206z" />
    <glyph glyph-name="Otilde" unicode="&#xd5;" horiz-adv-x="1800" 
d="M1806 723q0 -165 -77 -336q-93 -203 -304 -317q-195 -104 -432 -104q-347 0 -583 205q-246 216 -246 558q0 191 94 359q92 165 254 272q198 131 455 131q285 0 501 -142q227 -150 306 -413q32 -109 32 -213zM1507 764q0 168 -59 308q-68 160 -197 237q-116 69 -233 69
q-152 0 -291 -108q-124 -96 -194 -269q-66 -159 -66 -329q0 -228 116 -398q131 -192 347 -192q248 0 422 213q155 190 155 469zM1485 1828q0 -153 -67 -222q-49 -50 -125 -50q-70 0 -181.5 62.5t-150.5 62.5q-17 0 -39 -12q-37 -19 -41 -88h-108q0 117 53 195q60 91 170 91
q63 0 134 -36q60 -35 121 -69q36 -20 58 -20q64 0 72 91h102v-9h-2z" />
    <glyph glyph-name="Odieresis" unicode="&#xd6;" horiz-adv-x="1800" 
d="M1806 723q0 -165 -77 -336q-93 -203 -304 -317q-195 -104 -432 -104q-347 0 -583 205q-246 216 -246 558q0 191 94 359q92 165 254 272q198 131 455 131q285 0 501 -142q227 -150 306 -413q32 -109 32 -213zM1507 764q0 168 -59 308q-68 160 -197 237q-116 69 -233 69
q-152 0 -291 -108q-124 -96 -194 -269q-66 -159 -66 -329q0 -228 116 -398q131 -192 347 -192q248 0 422 213q155 190 155 469zM1474 1707q0 -64 -50 -113t-114 -49q-106 0 -106 117q0 8 10 44q15 52 58.5 87t97.5 35q46 0 75 -37t29 -84zM1030 1713q0 -66 -53.5 -116
t-120.5 -50q-95 0 -95 115q0 68 47 119t113 51q48 0 78.5 -35t30.5 -84z" />
    <glyph glyph-name="multiply" unicode="&#xd7;" 
d="M1144 961l-399 -400l399 -401l-81 -82l-399 402l-402 -402l-81 82l401 401l-401 400l81 81l402 -399l399 399z" />
    <glyph glyph-name="Oslash" unicode="&#xd8;" horiz-adv-x="1800" 
d="M1833 1446l-234 -207q205 -224 205 -514q0 -179 -78 -340q-100 -208 -307 -318q-192 -101 -436 -101q-316 0 -582 210l-200 -176h-135l272 244q-172 211 -172 489q0 179 78 328q109 209 304 321q190 109 429 109q321 0 555 -191l164 146h137zM1393 1176
q-150 204 -373 204q-90 0 -188 -45q-94 -43 -160 -110q-97 -99 -154 -257q-53 -149 -53 -296q0 -133 49 -275zM1509 766q0 132 -39 254q-9 28 -32 76l-883 -781q134 -233 373 -233q163 0 299 96q174 124 239 320q43 129 43 268z" />
    <glyph glyph-name="Ugrave" unicode="&#xd9;" horiz-adv-x="1587" 
d="M1759 1462l-20 -88q-102 -4 -137 -47q-30 -36 -62 -180q-49 -221 -156 -660q-8 -35 -30 -104q-156 -413 -631 -413q-206 0 -348 107q-156 119 -156 318q0 76 49 324q29 151 88 455q13 60 13 94q0 77 -115 84q-37 2 -59 2l18 100q154 -14 256 -14q253 0 420 14l-21 -94
h-43q-75 0 -120 -37q-24 -20 -41 -51q-27 -50 -109 -500q-13 -65 -37 -194q-18 -107 -18 -162q0 -149 85 -238.5t234 -89.5q175 0 293 102q106 93 162 269q20 65 67 313l76 393q17 91 17 115q0 84 -113 88h-16h-45l16 90q115 -4 166 -4h135q33 0 89 3q68 4 93 5zM1223 1610
l-68 -73q-21 4 -79 28q-120 49 -200 108q-73 54 -171 160q134 24 272 72q66 -157 173 -243q23 -17 73 -52z" />
    <glyph glyph-name="Uacute" unicode="&#xda;" horiz-adv-x="1587" 
d="M1759 1462l-20 -88q-102 -4 -137 -47q-30 -36 -62 -180q-49 -221 -156 -660q-8 -35 -30 -104q-156 -413 -631 -413q-206 0 -348 107q-156 119 -156 318q0 76 49 324q29 151 88 455q13 60 13 94q0 77 -115 84q-37 2 -59 2l18 100q154 -14 256 -14q253 0 420 14l-21 -94
h-43q-75 0 -120 -37q-24 -20 -41 -51q-27 -50 -109 -500q-13 -65 -37 -194q-18 -107 -18 -162q0 -149 85 -238.5t234 -89.5q175 0 293 102q106 93 162 269q20 65 67 313l76 393q17 91 17 115q0 84 -113 88h-16h-45l16 90q115 -4 166 -4h135q33 0 89 3q68 4 93 5zM1438 1825
q-106 -121 -203 -181q-80 -50 -243 -109l-60 67q100 64 148.5 123t94.5 168q142 -49 263 -68z" />
    <glyph glyph-name="Ucircumflex" unicode="&#xdb;" horiz-adv-x="1587" 
d="M1759 1462l-20 -88q-102 -4 -137 -47q-30 -36 -62 -180q-49 -221 -156 -660q-8 -35 -30 -104q-156 -413 -631 -413q-206 0 -348 107q-156 119 -156 318q0 76 49 324q29 151 88 455q13 60 13 94q0 77 -115 84q-37 2 -59 2l18 100q154 -14 256 -14q253 0 420 14l-21 -94
h-43q-75 0 -120 -37q-24 -20 -41 -51q-27 -50 -109 -500q-13 -65 -37 -194q-18 -107 -18 -162q0 -149 85 -238.5t234 -89.5q175 0 293 102q106 93 162 269q20 65 67 313l76 393q17 91 17 115q0 84 -113 88h-16h-45l16 90q115 -4 166 -4h135q33 0 89 3q68 4 93 5zM1411 1598
l-77 -64q-64 54 -85 75q-42 41 -70 89q-22 -17 -67 -49q-75 -48 -267 -122l-80 90q34 15 98 47q176 97 268 248h224q-19 -67 -19 -108q0 -101 75 -206z" />
    <glyph glyph-name="Udieresis" unicode="&#xdc;" horiz-adv-x="1587" 
d="M1759 1462l-20 -88q-102 -4 -137 -47q-30 -36 -62 -180q-49 -221 -156 -660q-8 -35 -30 -104q-156 -413 -631 -413q-206 0 -348 107q-156 119 -156 318q0 76 49 324q29 151 88 455q13 60 13 94q0 77 -115 84q-37 2 -59 2l18 100q154 -14 256 -14q253 0 420 14l-21 -94
h-43q-75 0 -120 -37q-24 -20 -41 -51q-27 -50 -109 -500q-13 -65 -37 -194q-18 -107 -18 -162q0 -149 85 -238.5t234 -89.5q175 0 293 102q106 93 162 269q20 65 67 313l76 393q17 91 17 115q0 84 -113 88h-16h-45l16 90q115 -4 166 -4h135q33 0 89 3q68 4 93 5zM1421 1707
q0 -64 -50 -113t-114 -49q-106 0 -106 117q0 8 10 44q15 52 58.5 87t97.5 35q46 0 75 -37t29 -84zM977 1713q0 -66 -53.5 -116t-120.5 -50q-95 0 -95 115q0 68 47 119t113 51q48 0 78.5 -35t30.5 -84z" />
    <glyph glyph-name="Yacute" unicode="&#xdd;" horiz-adv-x="1417" 
d="M1618 1473l-21 -97q-105 -5 -170 -71q-14 -15 -100 -138q-135 -191 -401 -577q-16 -82 -47 -244q-29 -143 -29 -160q0 -88 119 -88h4q16 0 65 4l-24 -100q-30 0 -86.5 1t-83.5 1q-164 0 -504 -7l16 91h39q87 0 125 39q35 36 55 135q22 107 58 305q-78 221 -246 660
q-36 87 -88 114q-23 13 -63 13h-39l18 100q297 -10 352 -10q36 0 246 10l-14 -92q-8 0 -20.5 1t-16.5 1q-74 0 -74 -68q0 -27 39 -129q23 -57 68 -172q32 -94 100 -280q7 9 20 26q14 23 41 66q41 61 86 137q58 91 170 277q39 67 39 98q0 52 -61 55q-12 2 -39 2l14 90
q140 -4 203 -4q140 0 250 11zM1336 1825q-106 -121 -203 -181q-80 -50 -243 -109l-60 67q100 64 148.5 123t94.5 168q142 -49 263 -68z" />
    <glyph glyph-name="Thorn" unicode="&#xde;" horiz-adv-x="1245" 
d="M1274 848q0 -190 -145 -325q-148 -138 -472 -138q-22 0 -67 1t-64 1q-30 -148 -30 -184q0 -75 46 -98q30 -15 120 -17l-18 -86q-179 8 -265 8q-62 0 -187 -3t-191 -3l20 90h24q80 0 124 48q36 39 67 195l135 680q43 211 43 263q0 90 -135 90h-44l18 86q200 -8 296 -8
q157 0 357 10l-18 -90q-77 0 -112 -18q-85 -44 -96 -185q25 0 84 2q55 2 84 2q198 0 291 -60q135 -87 135 -261zM989 838q0 131 -111 203q-49 32 -135 32q-55 0 -82 -2l-113 -574q62 -5 128 -5q141 0 229 103q84 99 84 243z" />
    <glyph glyph-name="germandbls" unicode="&#xdf;" horiz-adv-x="1245" 
d="M1251 1366q0 -129 -109 -257q-90 -106 -222 -178q134 -150 182 -225q90 -139 90 -270q0 -190 -142 -331t-333 -141q-109 0 -257 87l67 250h115q-24 -81 -24 -111q0 -53 39 -86q36 -32 91 -32q125 0 193 122q22 40 22 113q0 188 -259 479q-33 33 -99 105q169 43 260 152
q116 138 116 313q0 135 -113 135q-53 0 -101 -40q-84 -69 -142 -315q-12 -47 -53.5 -250.5t-104.5 -466.5q-41 -171 -55 -216q-36 -120 -87 -204q-18 -32 -57 -94q-156 -231 -423 -246q5 38 11 113q0 19 3 66q52 -56 97 -56q32 0 64 24q50 36 85 141q41 126 100 422
q26 126 78 379q9 51 28 152q101 467 375 621q154 87 293 87q112 0 190 -64q82 -68 82 -178z" />
    <glyph glyph-name="agrave" unicode="&#xe0;" 
d="M1195 194q-84 -82 -182 -142q-122 -74 -208 -74q-137 0 -137 147q0 49 14 115q-221 -262 -434 -262q-91 0 -145 57q-52 55 -52 147q0 110 72 254q61 122 148 224q142 166 305 227q117 43 342 43q71 0 216 -4q-198 -595 -198 -707q0 -53 41 -53q38 0 158 104zM859 827
q-6 1 -23 2h-23q-76 0 -129 -26q-185 -90 -301 -405q-37 -99 -37 -156q0 -90 82 -90q69 0 173 121q155 181 258 554zM1018 1082l-68 -73q-21 4 -79 28q-120 49 -200 108q-73 54 -171 160q134 24 272 72q66 -157 173 -243q23 -17 73 -52z" />
    <glyph glyph-name="aacute" unicode="&#xe1;" 
d="M1195 194q-84 -82 -182 -142q-122 -74 -208 -74q-137 0 -137 147q0 49 14 115q-221 -262 -434 -262q-91 0 -145 57q-52 55 -52 147q0 110 72 254q61 122 148 224q142 166 305 227q117 43 342 43q71 0 216 -4q-198 -595 -198 -707q0 -53 41 -53q38 0 158 104zM859 827
q-6 1 -23 2h-23q-76 0 -129 -26q-185 -90 -301 -405q-37 -99 -37 -156q0 -90 82 -90q69 0 173 121q155 181 258 554zM1147 1297q-106 -121 -203 -181q-80 -50 -243 -109l-60 67q100 64 148.5 123t94.5 168q142 -49 263 -68z" />
    <glyph glyph-name="acircumflex" unicode="&#xe2;" 
d="M1195 194q-84 -82 -182 -142q-122 -74 -208 -74q-137 0 -137 147q0 49 14 115q-221 -262 -434 -262q-91 0 -145 57q-52 55 -52 147q0 110 72 254q61 122 148 224q142 166 305 227q117 43 342 43q71 0 216 -4q-198 -595 -198 -707q0 -53 41 -53q38 0 158 104zM859 827
q-6 1 -23 2h-23q-76 0 -129 -26q-185 -90 -301 -405q-37 -99 -37 -156q0 -90 82 -90q69 0 173 121q155 181 258 554zM1124 1070l-77 -64q-64 54 -85 75q-42 41 -70 89q-22 -17 -67 -49q-75 -48 -267 -122l-80 90q34 15 98 47q176 97 268 248h224q-19 -67 -19 -108
q0 -101 75 -206z" />
    <glyph glyph-name="atilde" unicode="&#xe3;" 
d="M1195 194q-84 -82 -182 -142q-122 -74 -208 -74q-137 0 -137 147q0 49 14 115q-221 -262 -434 -262q-91 0 -145 57q-52 55 -52 147q0 110 72 254q61 122 148 224q142 166 305 227q117 43 342 43q71 0 216 -4q-198 -595 -198 -707q0 -53 41 -53q38 0 158 104zM859 827
q-6 1 -23 2h-23q-76 0 -129 -26q-185 -90 -301 -405q-37 -99 -37 -156q0 -90 82 -90q69 0 173 121q155 181 258 554zM1167 1300q0 -153 -67 -222q-49 -50 -125 -50q-70 0 -181.5 62.5t-150.5 62.5q-17 0 -39 -12q-37 -19 -41 -88h-108q0 117 53 195q60 91 170 91
q63 0 134 -36q60 -35 121 -69q36 -20 58 -20q64 0 72 91h102v-9h-2z" />
    <glyph glyph-name="adieresis" unicode="&#xe4;" 
d="M1195 194q-84 -82 -182 -142q-122 -74 -208 -74q-137 0 -137 147q0 49 14 115q-221 -262 -434 -262q-91 0 -145 57q-52 55 -52 147q0 110 72 254q61 122 148 224q142 166 305 227q117 43 342 43q71 0 216 -4q-198 -595 -198 -707q0 -53 41 -53q38 0 158 104zM859 827
q-6 1 -23 2h-23q-76 0 -129 -26q-185 -90 -301 -405q-37 -99 -37 -156q0 -90 82 -90q69 0 173 121q155 181 258 554zM1188 1247q0 -64 -50 -113t-114 -49q-106 0 -106 117q0 8 10 44q15 52 58.5 87t97.5 35q46 0 75 -37t29 -84zM744 1253q0 -66 -53.5 -116t-120.5 -50
q-95 0 -95 115q0 68 47 119t113 51q48 0 78.5 -35t30.5 -84z" />
    <glyph glyph-name="aring" unicode="&#xe5;" 
d="M1195 194q-84 -82 -182 -142q-122 -74 -208 -74q-137 0 -137 147q0 49 14 115q-221 -262 -434 -262q-91 0 -145 57q-52 55 -52 147q0 110 72 254q61 122 148 224q142 166 305 227q117 43 342 43q71 0 216 -4q-198 -595 -198 -707q0 -53 41 -53q38 0 158 104zM859 827
q-6 1 -23 2h-23q-76 0 -129 -26q-185 -90 -301 -405q-37 -99 -37 -156q0 -90 82 -90q69 0 173 121q155 181 258 554zM1079 1227q0 -89 -64 -153t-153 -64t-153 64t-64 153t64 153t153 64t153 -64t64 -153zM976 1227q0 47 -33.5 80.5t-80.5 33.5q-48 0 -81.5 -33.5
t-33.5 -80.5q0 -48 33.5 -81.5t81.5 -33.5q47 0 80.5 33.5t33.5 81.5z" />
    <glyph glyph-name="ae" unicode="&#xe6;" horiz-adv-x="1548" 
d="M1569 772q0 -133 -185 -250q-148 -94 -389 -127q-6 -37 -6 -73q0 -158 166 -158q118 0 229 98l56 -86q-281 -198 -486 -198q-221 0 -221 215q0 34 8 100q-271 -315 -481 -315q-93 0 -152 65q-57 63 -57 158q0 168 150 366q169 225 358 303q103 43 219 53q24 2 223 5
q47 0 148 9q96 7 145 7q275 0 275 -172zM1341 788q0 76 -63 76q-21 0 -55 -16q-131 -62 -207 -359q95 4 155 35.5t113 108.5q57 84 57 155zM893 825q-16 2 -47 2q-171 0 -326 -170q-70 -76 -124 -182q-62 -121 -62 -207t76 -86q91 0 200 103q103 96 176 251q47 100 107 289z
" />
    <glyph glyph-name="ccedilla" unicode="&#xe7;" horiz-adv-x="819" 
d="M888 928l-43 -234h-132v23q0 110 -99 110q-70 0 -122 -46q-67 -60 -113 -195q-41 -122 -41 -226q0 -192 164 -192q158 0 283 217l79 -48q-35 -66 -103 -141q-44 -48 -70 -72q-163 -148 -359 -148q-123 0 -193 84q-65 79 -65 204q0 169 103 338q127 209 309 287
q102 43 266 43q45 0 136 -4zM532 -77q0 -67 -35 -133q-51 -96 -140 -153q-63 -40 -193 -85l-38 52q120 106 120 238v9q142 36 281 101q5 -22 5 -29z" />
    <glyph glyph-name="egrave" unicode="&#xe8;" horiz-adv-x="946" 
d="M967 709q0 -93 -77 -171q-142 -143 -534 -153q-6 -32 -6 -66q0 -196 166 -196q79 0 176 59q86 53 148 126l52 -83q-259 -247 -505 -247q-142 0 -226 101q-77 94 -77 238q0 242 193 432.5t436 190.5q109 0 179 -59q75 -64 75 -172zM735 748q0 94 -94 94q-159 0 -265 -364
q204 16 295 115q64 70 64 155zM875 1082l-68 -73q-21 4 -79 28q-120 49 -200 108q-73 54 -171 160q134 24 272 72q66 -157 173 -243q23 -17 73 -52z" />
    <glyph glyph-name="eacute" unicode="&#xe9;" horiz-adv-x="946" 
d="M967 709q0 -93 -77 -171q-142 -143 -534 -153q-6 -32 -6 -66q0 -196 166 -196q79 0 176 59q86 53 148 126l52 -83q-259 -247 -505 -247q-142 0 -226 101q-77 94 -77 238q0 242 193 432.5t436 190.5q109 0 179 -59q75 -64 75 -172zM735 748q0 94 -94 94q-159 0 -265 -364
q204 16 295 115q64 70 64 155zM1014 1297q-106 -121 -203 -181q-80 -50 -243 -109l-60 67q100 64 148.5 123t94.5 168q142 -49 263 -68z" />
    <glyph glyph-name="ecircumflex" unicode="&#xea;" horiz-adv-x="946" 
d="M967 709q0 -93 -77 -171q-142 -143 -534 -153q-6 -32 -6 -66q0 -196 166 -196q79 0 176 59q86 53 148 126l52 -83q-259 -247 -505 -247q-142 0 -226 101q-77 94 -77 238q0 242 193 432.5t436 190.5q109 0 179 -59q75 -64 75 -172zM735 748q0 94 -94 94q-159 0 -265 -364
q204 16 295 115q64 70 64 155zM970 1070l-77 -64q-64 54 -85 75q-42 41 -70 89q-22 -17 -67 -49q-75 -48 -267 -122l-80 90q34 15 98 47q176 97 268 248h224q-19 -67 -19 -108q0 -101 75 -206z" />
    <glyph glyph-name="edieresis" unicode="&#xeb;" horiz-adv-x="946" 
d="M967 709q0 -93 -77 -171q-142 -143 -534 -153q-6 -32 -6 -66q0 -196 166 -196q79 0 176 59q86 53 148 126l52 -83q-259 -247 -505 -247q-142 0 -226 101q-77 94 -77 238q0 242 193 432.5t436 190.5q109 0 179 -59q75 -64 75 -172zM735 748q0 94 -94 94q-159 0 -265 -364
q204 16 295 115q64 70 64 155zM1024 1247q0 -64 -50 -113t-114 -49q-106 0 -106 117q0 8 10 44q15 52 58.5 87t97.5 35q46 0 75 -37t29 -84zM580 1253q0 -66 -53.5 -116t-120.5 -50q-95 0 -95 115q0 68 47 119t113 51q48 0 78.5 -35t30.5 -84z" />
    <glyph glyph-name="igrave" unicode="&#xec;" horiz-adv-x="606" 
d="M626 176q-78 -71 -180 -128q-124 -67 -204 -67q-52 0 -86.5 31t-34.5 82q0 43 17 102l32 98q29 102 78 256q39 123 39 138q0 41 -43 41q-27 0 -114 -65l-60 70q82 73 188 131q126 69 207 69q43 0 73.5 -26t30.5 -68q0 -34 -63 -237q-24 -81 -72 -242q-41 -129 -41 -156
q0 -45 39 -45q22 0 136 79zM608 1082l-68 -73q-21 4 -79 28q-120 49 -200 108q-73 54 -171 160q134 24 272 72q66 -157 173 -243q23 -17 73 -52z" />
    <glyph glyph-name="iacute" unicode="&#xed;" horiz-adv-x="606" 
d="M626 176q-78 -71 -180 -128q-124 -67 -204 -67q-52 0 -86.5 31t-34.5 82q0 43 17 102l32 98q29 102 78 256q39 123 39 138q0 41 -43 41q-27 0 -114 -65l-60 70q82 73 188 131q126 69 207 69q43 0 73.5 -26t30.5 -68q0 -34 -63 -237q-24 -81 -72 -242q-41 -129 -41 -156
q0 -45 39 -45q22 0 136 79zM727 1297q-106 -121 -203 -181q-80 -50 -243 -109l-60 67q100 64 148.5 123t94.5 168q142 -49 263 -68z" />
    <glyph glyph-name="icircumflex" unicode="&#xee;" horiz-adv-x="606" 
d="M626 176q-78 -71 -180 -128q-124 -67 -204 -67q-52 0 -86.5 31t-34.5 82q0 43 17 102l32 98q29 102 78 256q39 123 39 138q0 41 -43 41q-27 0 -114 -65l-60 70q82 73 188 131q126 69 207 69q43 0 73.5 -26t30.5 -68q0 -34 -63 -237q-24 -81 -72 -242q-41 -129 -41 -156
q0 -45 39 -45q22 0 136 79zM735 1070l-77 -64q-64 54 -85 75q-42 41 -70 89q-22 -17 -67 -49q-75 -48 -267 -122l-80 90q34 15 98 47q176 97 268 248h224q-19 -67 -19 -108q0 -101 75 -206z" />
    <glyph glyph-name="idieresis" unicode="&#xef;" horiz-adv-x="606" 
d="M626 176q-78 -71 -180 -128q-124 -67 -204 -67q-52 0 -86.5 31t-34.5 82q0 43 17 102l32 98q29 102 78 256q39 123 39 138q0 41 -43 41q-27 0 -114 -65l-60 70q82 73 188 131q126 69 207 69q43 0 73.5 -26t30.5 -68q0 -34 -63 -237q-24 -81 -72 -242q-41 -129 -41 -156
q0 -45 39 -45q22 0 136 79zM779 1247q0 -64 -50 -113t-114 -49q-106 0 -106 117q0 8 10 44q15 52 58.5 87t97.5 35q46 0 75 -37t29 -84zM335 1253q0 -66 -53.5 -116t-120.5 -50q-95 0 -95 115q0 68 47 119t113 51q48 0 78.5 -35t30.5 -84z" />
    <glyph glyph-name="eth" unicode="&#xf0;" horiz-adv-x="1118" 
d="M1098 662q0 -283 -170 -479q-178 -205 -457 -205q-159 0 -269 90q-118 97 -118 254q0 165 97 325q74 122 203 204q137 87 273 87q129 0 197 -76q-46 261 -157 423l-231 -119l-52 70l229 117q-94 107 -233 160l38 89q191 -48 335 -178l232 117l50 -68l-217 -110
q117 -129 185 -329q65 -189 65 -372zM831 651q0 199 -139 199q-82 0 -161 -77q-83 -81 -134 -229q-47 -135 -47 -263q0 -209 150 -209q145 0 247 223q84 186 84 356z" />
    <glyph glyph-name="ntilde" unicode="&#xf1;" 
d="M1218 181q-52 -39 -153 -112q-84 -55 -171 -76q-64 -17 -106 -17q-52 0 -88 27q-41 31 -41 83q0 24 14 79t26 76q108 325 108 396q0 55 -47 55q-56 0 -135 -74q-158 -151 -286 -601l-246 -42q56 213 109.5 424.5t53.5 247.5q0 60 -47 60q-34 0 -103 -59l-62 69q6 7 48 40
q240 189 371 189q72 0 72 -108q0 -82 -51 -259q79 124 211 232q153 125 266 125q58 0 100 -32q45 -35 45 -93q0 -48 -54 -222q-38 -118 -75 -236q-29 -101 -29 -122q0 -63 58 -63q43 0 158 92zM1075 1300q0 -153 -67 -222q-49 -50 -125 -50q-70 0 -181.5 62.5t-150.5 62.5
q-17 0 -39 -12q-37 -19 -41 -88h-108q0 117 53 195q60 91 170 91q63 0 134 -36q60 -35 121 -69q36 -20 58 -20q64 0 72 91h102v-9h-2z" />
    <glyph glyph-name="ograve" unicode="&#xf2;" horiz-adv-x="1118" 
d="M1096 600q0 -150 -85 -299.5t-212 -232.5q-140 -90 -328 -90q-133 0 -229 59q-158 98 -158 285q0 159 97 325q80 139 225 217q140 76 305 76t271 -88q114 -93 114 -252zM831 651q0 199 -139 199q-80 0 -161 -77q-84 -79 -134 -228q-47 -135 -47 -264q0 -209 150 -209
q43 0 92 28q106 61 177 247q62 162 62 304zM895 1082l-68 -73q-21 4 -79 28q-120 49 -200 108q-73 54 -171 160q134 24 272 72q66 -157 173 -243q23 -17 73 -52z" />
    <glyph glyph-name="oacute" unicode="&#xf3;" horiz-adv-x="1118" 
d="M1096 600q0 -150 -85 -299.5t-212 -232.5q-140 -90 -328 -90q-133 0 -229 59q-158 98 -158 285q0 159 97 325q80 139 225 217q140 76 305 76t271 -88q114 -93 114 -252zM831 651q0 199 -139 199q-80 0 -161 -77q-84 -79 -134 -228q-47 -135 -47 -264q0 -209 150 -209
q43 0 92 28q106 61 177 247q62 162 62 304zM1035 1297q-106 -121 -203 -181q-80 -50 -243 -109l-60 67q100 64 148.5 123t94.5 168q142 -49 263 -68z" />
    <glyph glyph-name="ocircumflex" unicode="&#xf4;" horiz-adv-x="1118" 
d="M1096 600q0 -150 -85 -299.5t-212 -232.5q-140 -90 -328 -90q-133 0 -229 59q-158 98 -158 285q0 159 97 325q80 139 225 217q140 76 305 76t271 -88q114 -93 114 -252zM831 651q0 199 -139 199q-80 0 -161 -77q-84 -79 -134 -228q-47 -135 -47 -264q0 -209 150 -209
q43 0 92 28q106 61 177 247q62 162 62 304zM1022 1070l-77 -64q-64 54 -85 75q-42 41 -70 89q-22 -17 -67 -49q-75 -48 -267 -122l-80 90q34 15 98 47q176 97 268 248h224q-19 -67 -19 -108q0 -101 75 -206z" />
    <glyph glyph-name="otilde" unicode="&#xf5;" horiz-adv-x="1118" 
d="M1096 600q0 -150 -85 -299.5t-212 -232.5q-140 -90 -328 -90q-133 0 -229 59q-158 98 -158 285q0 159 97 325q80 139 225 217q140 76 305 76t271 -88q114 -93 114 -252zM831 651q0 199 -139 199q-80 0 -161 -77q-84 -79 -134 -228q-47 -135 -47 -264q0 -209 150 -209
q43 0 92 28q106 61 177 247q62 162 62 304zM1075 1300q0 -153 -67 -222q-49 -50 -125 -50q-70 0 -181.5 62.5t-150.5 62.5q-17 0 -39 -12q-37 -19 -41 -88h-108q0 117 53 195q60 91 170 91q63 0 134 -36q60 -35 121 -69q36 -20 58 -20q64 0 72 91h102v-9h-2z" />
    <glyph glyph-name="odieresis" unicode="&#xf6;" horiz-adv-x="1118" 
d="M1096 600q0 -150 -85 -299.5t-212 -232.5q-140 -90 -328 -90q-133 0 -229 59q-158 98 -158 285q0 159 97 325q80 139 225 217q140 76 305 76t271 -88q114 -93 114 -252zM831 651q0 199 -139 199q-80 0 -161 -77q-84 -79 -134 -228q-47 -135 -47 -264q0 -209 150 -209
q43 0 92 28q106 61 177 247q62 162 62 304zM1065 1247q0 -64 -50 -113t-114 -49q-106 0 -106 117q0 8 10 44q15 52 58.5 87t97.5 35q46 0 75 -37t29 -84zM621 1253q0 -66 -53.5 -116t-120.5 -50q-95 0 -95 115q0 68 47 119t113 51q48 0 78.5 -35t30.5 -84z" />
    <glyph glyph-name="divide" unicode="&#xf7;" 
d="M727 848q0 -41 -27.5 -68.5t-68.5 -27.5t-68.5 27.5t-27.5 68.5t27.5 68.5t68.5 27.5t68.5 -27.5t27.5 -68.5zM1200 504h-1139v112h1139v-112zM727 272q0 -41 -27.5 -68.5t-68.5 -27.5t-68.5 27.5t-27.5 68.5q0 40 27.5 68.5t68.5 28.5t68.5 -28.5t27.5 -68.5z" />
    <glyph glyph-name="oslash" unicode="&#xf8;" horiz-adv-x="1118" 
d="M1094 596q0 -148 -86 -298.5t-213 -233.5q-133 -86 -330 -86q-92 0 -173 31l-87 -121h-97q66 86 118 160q-144 100 -144 278q0 165 97 319q52 84 93 122q55 51 96 78q152 97 341 97q84 0 158 -26l94 124h92l-115 -154q156 -100 156 -290zM791 812q-46 36 -101 36
q-124 0 -218 -144q-72 -110 -106 -260q-20 -91 -20 -143q0 -32 3 -83q75 100 225 301q71 99 217 293zM831 655q0 41 -4 82l-445 -606q44 -59 116 -59q108 0 199 131q59 85 98 217q36 127 36 235z" />
    <glyph glyph-name="ugrave" unicode="&#xf9;" 
d="M1191 206q-60 -49 -191 -144q-128 -79 -216 -79q-102 0 -102 99q0 50 50 217q-88 -119 -216 -210q-149 -106 -266 -106q-51 0 -81 35t-30 84q0 70 37 207l58 208q30 122 30 136q0 58 -47 58q-35 0 -115 -74l-54 72q302 229 423 229q90 0 90 -94q0 -35 -39 -167
q-104 -354 -104 -411q0 -65 57 -65q29 0 80 40q205 163 318 662q87 14 257 57l-116 -447q-53 -210 -53 -253q0 -61 45 -61q30 0 70 30q29 26 59 51zM875 1082l-68 -73q-21 4 -79 28q-120 49 -200 108q-73 54 -171 160q134 24 272 72q66 -157 173 -243q23 -17 73 -52z" />
    <glyph glyph-name="uacute" unicode="&#xfa;" 
d="M1191 206q-60 -49 -191 -144q-128 -79 -216 -79q-102 0 -102 99q0 50 50 217q-88 -119 -216 -210q-149 -106 -266 -106q-51 0 -81 35t-30 84q0 70 37 207l58 208q30 122 30 136q0 58 -47 58q-35 0 -115 -74l-54 72q302 229 423 229q90 0 90 -94q0 -35 -39 -167
q-104 -354 -104 -411q0 -65 57 -65q29 0 80 40q205 163 318 662q87 14 257 57l-116 -447q-53 -210 -53 -253q0 -61 45 -61q30 0 70 30q29 26 59 51zM1075 1297q-106 -121 -203 -181q-80 -50 -243 -109l-60 67q100 64 148.5 123t94.5 168q142 -49 263 -68z" />
    <glyph glyph-name="ucircumflex" unicode="&#xfb;" 
d="M1191 206q-60 -49 -191 -144q-128 -79 -216 -79q-102 0 -102 99q0 50 50 217q-88 -119 -216 -210q-149 -106 -266 -106q-51 0 -81 35t-30 84q0 70 37 207l58 208q30 122 30 136q0 58 -47 58q-35 0 -115 -74l-54 72q302 229 423 229q90 0 90 -94q0 -35 -39 -167
q-104 -354 -104 -411q0 -65 57 -65q29 0 80 40q205 163 318 662q87 14 257 57l-116 -447q-53 -210 -53 -253q0 -61 45 -61q30 0 70 30q29 26 59 51zM1022 1070l-77 -64q-64 54 -85 75q-42 41 -70 89q-22 -17 -67 -49q-75 -48 -267 -122l-80 90q34 15 98 47q176 97 268 248
h224q-19 -67 -19 -108q0 -101 75 -206z" />
    <glyph glyph-name="udieresis" unicode="&#xfc;" 
d="M1191 206q-60 -49 -191 -144q-128 -79 -216 -79q-102 0 -102 99q0 50 50 217q-88 -119 -216 -210q-149 -106 -266 -106q-51 0 -81 35t-30 84q0 70 37 207l58 208q30 122 30 136q0 58 -47 58q-35 0 -115 -74l-54 72q302 229 423 229q90 0 90 -94q0 -35 -39 -167
q-104 -354 -104 -411q0 -65 57 -65q29 0 80 40q205 163 318 662q87 14 257 57l-116 -447q-53 -210 -53 -253q0 -61 45 -61q30 0 70 30q29 26 59 51zM1095 1247q0 -64 -50 -113t-114 -49q-106 0 -106 117q0 8 10 44q15 52 58.5 87t97.5 35q46 0 75 -37t29 -84zM651 1253
q0 -66 -53.5 -116t-120.5 -50q-95 0 -95 115q0 68 47 119t113 51q48 0 78.5 -35t30.5 -84z" />
    <glyph glyph-name="yacute" unicode="&#xfd;" horiz-adv-x="1075" 
d="M1114 831q0 -89 -148 -335q-104 -174 -217 -326q-177 -239 -318 -383q-144 -146 -302 -146q-55 0 -137 32q23 135 29 252h81v-9.5v-9.5q0 -41 16 -62q34 -46 103 -46q128 0 219 124q-67 258 -102 403q-23 101 -78 303q-28 91 -82 91q-30 0 -85 -61l-64 50q61 77 138 143
q104 89 165 89q42 0 74 -30q43 -40 96 -235q44 -166 126 -525q281 452 281 546q0 66 -57 66q-24 0 -75 -28l-41 64q204 140 276 140q44 0 73 -31.5t29 -75.5zM1014 1297q-106 -121 -203 -181q-80 -50 -243 -109l-60 67q100 64 148.5 123t94.5 168q142 -49 263 -68z" />
    <glyph glyph-name="thorn" unicode="&#xfe;" 
d="M1128 721q0 -54 -6 -87q-41 -219 -274 -428q-239 -215 -463 -215q-48 0 -83 14q-52 -175 -52 -219q0 -76 115 -76h50l-27 -88q-153 8 -339 8q-117 0 -240 -13l23 91h23q17 -1 26 -1q59 0 86.5 17.5t53.5 123.5q52 225 161 675l136 543q18 69 37 138q20 81 20 142
q0 67 -90 67q-35 0 -59 -3l18 95q208 6 442 57l-237 -911q250 289 471 289q100 0 154 -59t54 -160zM848 672q0 108 -88 108q-118 0 -267 -205q-139 -190 -139 -352q0 -131 107 -131q122 0 242 180q97 146 133 296q12 51 12 104z" />
    <glyph glyph-name="ydieresis" unicode="&#xff;" horiz-adv-x="1075" 
d="M1114 831q0 -89 -148 -335q-104 -174 -217 -326q-177 -239 -318 -383q-144 -146 -302 -146q-55 0 -137 32q23 135 29 252h81v-9.5v-9.5q0 -41 16 -62q34 -46 103 -46q128 0 219 124q-67 258 -102 403q-23 101 -78 303q-28 91 -82 91q-30 0 -85 -61l-64 50q61 77 138 143
q104 89 165 89q42 0 74 -30q43 -40 96 -235q44 -166 126 -525q281 452 281 546q0 66 -57 66q-24 0 -75 -28l-41 64q204 140 276 140q44 0 73 -31.5t29 -75.5zM1044 1247q0 -64 -50 -113t-114 -49q-106 0 -106 117q0 8 10 44q15 52 58.5 87t97.5 35q46 0 75 -37t29 -84z
M600 1253q0 -66 -53.5 -116t-120.5 -50q-95 0 -95 115q0 68 47 119t113 51q48 0 78.5 -35t30.5 -84z" />
    <glyph glyph-name="Amacron" unicode="&#x100;" horiz-adv-x="1458" 
d="M1436 94l-25 -94q-139 6 -410 6h-204l26 94q36 0 95 13q30 17 30 77q0 52 -26 308h-404l-115 -195q-65 -110 -65 -147q0 -62 74 -62q6 0 18.5 -1t20.5 -1l-23 -93q-164 7 -235 7q-38 0 -115 -3.5t-118 -3.5l23 93q79 0 136 43q29 22 102 137q235 368 378.5 583t430.5 652
l76 4l117 -1210q6 -74 10 -92q12 -61 41 -84q40 -33 106 -33q11 0 29 1t27 1zM909 629l-37 440l-274 -440h311zM1323 1591h-683v172h683v-172z" />
    <glyph glyph-name="amacron" unicode="&#x101;" 
d="M1195 194q-84 -82 -182 -142q-122 -74 -208 -74q-137 0 -137 147q0 49 14 115q-221 -262 -434 -262q-91 0 -145 57q-52 55 -52 147q0 110 72 254q61 122 148 224q142 166 305 227q117 43 342 43q71 0 216 -4q-198 -595 -198 -707q0 -53 41 -53q38 0 158 104zM859 827
q-6 1 -23 2h-23q-76 0 -129 -26q-185 -90 -301 -405q-37 -99 -37 -156q0 -90 82 -90q69 0 173 121q155 181 258 554zM1178 1122h-683v172h683v-172z" />
    <glyph glyph-name="Abreve" unicode="&#x102;" horiz-adv-x="1458" 
d="M1436 94l-25 -94q-139 6 -410 6h-204l26 94q36 0 95 13q30 17 30 77q0 52 -26 308h-404l-115 -195q-65 -110 -65 -147q0 -62 74 -62q6 0 18.5 -1t20.5 -1l-23 -93q-164 7 -235 7q-38 0 -115 -3.5t-118 -3.5l23 93q79 0 136 43q29 22 102 137q235 368 378.5 583t430.5 652
l76 4l117 -1210q6 -74 10 -92q12 -61 41 -84q40 -33 106 -33q11 0 29 1t27 1zM909 629l-37 440l-274 -440h311zM1337 1896q-70 -165 -154 -228q-71 -55 -185 -55t-186 55q-84 63 -152 228l54 28q86 -118 284 -118q197 0 283 118z" />
    <glyph glyph-name="abreve" unicode="&#x103;" 
d="M1195 194q-84 -82 -182 -142q-122 -74 -208 -74q-137 0 -137 147q0 49 14 115q-221 -262 -434 -262q-91 0 -145 57q-52 55 -52 147q0 110 72 254q61 122 148 224q142 166 305 227q117 43 342 43q71 0 216 -4q-198 -595 -198 -707q0 -53 41 -53q38 0 158 104zM859 827
q-6 1 -23 2h-23q-76 0 -129 -26q-185 -90 -301 -405q-37 -99 -37 -156q0 -90 82 -90q69 0 173 121q155 181 258 554zM1150 1368q-70 -165 -154 -228q-71 -55 -185 -55t-186 55q-84 63 -152 228l54 28q86 -118 284 -118q197 0 283 118z" />
    <glyph glyph-name="Aogonek" unicode="&#x104;" horiz-adv-x="1458" 
d="M1436 94l-25 -94q-139 6 -410 6h-204l26 94q36 0 95 13q30 17 30 77q0 52 -26 308h-404l-115 -195q-65 -110 -65 -147q0 -62 74 -62q6 0 18.5 -1t20.5 -1l-23 -93q-164 7 -235 7q-38 0 -115 -3.5t-118 -3.5l23 93q79 0 136 43q29 22 102 137q235 368 378.5 583t430.5 652
l76 4l117 -1210q6 -74 10 -92q12 -61 41 -84q40 -33 106 -33q11 0 29 1t27 1zM909 629l-37 440l-274 -440h311zM949 -351q-30 -40 -100 -69.5t-137 -29.5q-210 0 -210 170q0 96 114 188q93 75 188 100h90q-192 -153 -192 -269q0 -94 70 -94q78 0 135 53z" />
    <glyph glyph-name="aogonek" unicode="&#x105;" 
d="M1195 194q-84 -82 -182 -142q-122 -74 -208 -74q-137 0 -137 147q0 49 14 115q-221 -262 -434 -262q-91 0 -145 57q-52 55 -52 147q0 110 72 254q61 122 148 224q142 166 305 227q117 43 342 43q71 0 216 -4q-198 -595 -198 -707q0 -53 41 -53q38 0 158 104zM859 827
q-6 1 -23 2h-23q-76 0 -129 -26q-185 -90 -301 -405q-37 -99 -37 -156q0 -90 82 -90q69 0 173 121q155 181 258 554zM966 -351q-30 -40 -100 -69.5t-137 -29.5q-210 0 -210 170q0 96 114 188q93 75 188 100h90q-192 -153 -192 -269q0 -94 70 -94q78 0 135 53z" />
    <glyph glyph-name="Cacute" unicode="&#x106;" horiz-adv-x="1501" 
d="M1577 1389l-57 -299l-103 2q10 25 10 49q0 66 -77 135q-121 106 -316 106q-251 0 -422 -221q-157 -205 -157 -465q0 -199 83 -350q93 -168 267 -225q81 -27 156 -27q94 0 194 37q108 40 164 105q24 27 47 73l84 10l-45 -239q-313 -108 -477 -108q-323 0 -544.5 217
t-221.5 538q0 236 133.5 427t355.5 272q155 57 369 57q192 0 557 -94zM1252 1825q-106 -121 -203 -181q-80 -50 -243 -109l-60 67q100 64 148.5 123t94.5 168q142 -49 263 -68z" />
    <glyph glyph-name="cacute" unicode="&#x107;" horiz-adv-x="819" 
d="M888 928l-43 -234h-132v23q0 110 -99 110q-70 0 -122 -46q-67 -60 -113 -195q-41 -122 -41 -226q0 -192 164 -192q158 0 283 217l79 -48q-35 -66 -103 -141q-44 -48 -70 -72q-163 -148 -359 -148q-123 0 -193 84q-65 79 -65 204q0 169 103 338q127 209 309 287
q102 43 266 43q45 0 136 -4zM895 1297q-106 -121 -203 -181q-80 -50 -243 -109l-60 67q100 64 148.5 123t94.5 168q142 -49 263 -68z" />
    <glyph glyph-name="Ccircumflex" unicode="&#x108;" horiz-adv-x="1501" 
d="M1577 1389l-57 -299l-103 2q10 25 10 49q0 66 -77 135q-121 106 -316 106q-251 0 -422 -221q-157 -205 -157 -465q0 -199 83 -350q93 -168 267 -225q81 -27 156 -27q94 0 194 37q108 40 164 105q24 27 47 73l84 10l-45 -239q-313 -108 -477 -108q-323 0 -544.5 217
t-221.5 538q0 236 133.5 427t355.5 272q155 57 369 57q192 0 557 -94zM1302 1598l-77 -64q-64 54 -85 75q-42 41 -70 89q-22 -17 -67 -49q-75 -48 -267 -122l-80 90q34 15 98 47q176 97 268 248h224q-19 -67 -19 -108q0 -101 75 -206z" />
    <glyph glyph-name="ccircumflex" unicode="&#x109;" horiz-adv-x="819" 
d="M888 928l-43 -234h-132v23q0 110 -99 110q-70 0 -122 -46q-67 -60 -113 -195q-41 -122 -41 -226q0 -192 164 -192q158 0 283 217l79 -48q-35 -66 -103 -141q-44 -48 -70 -72q-163 -148 -359 -148q-123 0 -193 84q-65 79 -65 204q0 169 103 338q127 209 309 287
q102 43 266 43q45 0 136 -4zM921 1070l-77 -64q-64 54 -85 75q-42 41 -70 89q-22 -17 -67 -49q-75 -48 -267 -122l-80 90q34 15 98 47q176 97 268 248h224q-19 -67 -19 -108q0 -101 75 -206z" />
    <glyph glyph-name="Cdot" unicode="&#x10a;" horiz-adv-x="1501" 
d="M1577 1389l-57 -299l-103 2q10 25 10 49q0 66 -77 135q-121 106 -316 106q-251 0 -422 -221q-157 -205 -157 -465q0 -199 83 -350q93 -168 267 -225q81 -27 156 -27q94 0 194 37q108 40 164 105q24 27 47 73l84 10l-45 -239q-313 -108 -477 -108q-323 0 -544.5 217
t-221.5 538q0 236 133.5 427t355.5 272q155 57 369 57q192 0 557 -94zM1174 1692q0 -57 -40 -97.5t-97 -40.5t-97.5 40.5t-40.5 97.5t40.5 97t97.5 40t97 -40t40 -97z" />
    <glyph glyph-name="cdot" unicode="&#x10b;" horiz-adv-x="819" 
d="M888 928l-43 -234h-132v23q0 110 -99 110q-70 0 -122 -46q-67 -60 -113 -195q-41 -122 -41 -226q0 -192 164 -192q158 0 283 217l79 -48q-35 -66 -103 -141q-44 -48 -70 -72q-163 -148 -359 -148q-123 0 -193 84q-65 79 -65 204q0 169 103 338q127 209 309 287
q102 43 266 43q45 0 136 -4zM823 1225q0 -57 -40 -97.5t-97 -40.5t-97.5 40.5t-40.5 97.5t40.5 97t97.5 40t97 -40t40 -97z" />
    <glyph glyph-name="Ccaron" unicode="&#x10c;" horiz-adv-x="1501" 
d="M1577 1389l-57 -299l-103 2q10 25 10 49q0 66 -77 135q-121 106 -316 106q-251 0 -422 -221q-157 -205 -157 -465q0 -199 83 -350q93 -168 267 -225q81 -27 156 -27q94 0 194 37q108 40 164 105q24 27 47 73l84 10l-45 -239q-313 -108 -477 -108q-323 0 -544.5 217
t-221.5 538q0 236 133.5 427t355.5 272q155 57 369 57q192 0 557 -94zM1483 1837q-111 -42 -210 -117q-112 -84 -157 -174h-227q22 59 22 112q0 106 -74 202l76 61q83 -47 155 -160q96 80 332 169z" />
    <glyph glyph-name="ccaron" unicode="&#x10d;" horiz-adv-x="819" 
d="M888 928l-43 -234h-132v23q0 110 -99 110q-70 0 -122 -46q-67 -60 -113 -195q-41 -122 -41 -226q0 -192 164 -192q158 0 283 217l79 -48q-35 -66 -103 -141q-44 -48 -70 -72q-163 -148 -359 -148q-123 0 -193 84q-65 79 -65 204q0 169 103 338q127 209 309 287
q102 43 266 43q45 0 136 -4zM1066 1309q-111 -42 -210 -117q-112 -84 -157 -174h-227q22 59 22 112q0 106 -74 202l76 61q83 -47 155 -160q96 80 332 169z" />
    <glyph glyph-name="Dcaron" unicode="&#x10e;" horiz-adv-x="1714" 
d="M1743 858q0 -203 -98 -386q-94 -175 -261 -302q-105 -81 -208 -119q-149 -54 -361 -54q-76 0 -228.5 2.5t-228.5 2.5q-112 0 -354 -7l14 97h68q51 0 83.5 39t76.5 256l145 729q27 133 27 162q0 40 -31 64t-72 24q-33 0 -79 -6l22 100q70 -4 104 -4q22 0 65 1t65 1h403
q273 0 422 -42q224 -64 340 -242q86 -134 86 -316zM1427 834q0 28 -2 69q-6 134 -105 255q-96 116 -226 161q-102 35 -269 35q-71 0 -106 -2q-66 -325 -195 -973q-20 -104 -20 -152q0 -86 66 -116q43 -19 141 -19h26q179 0 322 74q176 90 275 281q93 178 93 387zM1315 1837
q-111 -42 -210 -117q-112 -84 -157 -174h-227q22 59 22 112q0 106 -74 202l76 61q83 -47 155 -160q96 80 332 169z" />
    <glyph glyph-name="dcaron" unicode="&#x10f;" horiz-adv-x="1319" 
d="M1306 1566q-16 -76 -53 -213q-16 -69 -49 -206t-190 -757q-33 -129 -33 -157q0 -57 51 -57q36 0 142 82l60 -72q-242 -216 -392 -216q-133 0 -133 122q0 68 30 153q-57 -71 -167 -154q-154 -115 -302 -115q-95 0 -152 58t-57 152q0 100 64 232q57 117 164.5 230.5
t220.5 176.5q147 82 396 105q81 286 81 411q0 84 -76 84q-35 0 -75 -7l23 104q57 -4 83 -4q90 0 364 48zM886 839q-111 -10 -169 -32q-74 -27 -143 -97q-81 -83 -143 -206q-69 -135 -69 -236q0 -116 91 -116q43 0 96 32q107 65 185 195q72 121 152 460zM1584 1462
q0 -207 -249 -360l-52 70q95 90 95 196q0 102 -50 186q121 48 215 106q41 -101 41 -198z" />
    <glyph glyph-name="Dslash" unicode="&#x110;" horiz-adv-x="1714" 
d="M1743 858q0 -412 -359 -688q-225 -173 -569 -173q-76 0 -228.5 2.5t-228.5 2.5q-112 0 -354 -7l14 97h68q50 0 84 39q31 36 76 256l59 293h-184l22 119h183q22 106 65 317q27 128 27 162q0 40 -31 64t-72 24q-33 0 -79 -6l22 100q74 -4 104 -4q89 0 266 2t265 2
q273 0 423 -43q222 -64 341 -243q86 -131 86 -316zM1427 834q0 35 -2 69q-8 135 -105 254q-94 115 -226 162q-99 35 -269 35q-71 0 -106 -2l-111 -553h385l-22 -119h-385l-62 -301q-20 -100 -20 -152q0 -86 66 -116q43 -19 141 -19h26q181 0 322 74q176 92 275 281
q93 177 93 387z" />
    <glyph glyph-name="dcroat" unicode="&#x111;" horiz-adv-x="1202" 
d="M1372 1217l-39 -125h-143q-26 -110 -176 -702q-33 -129 -33 -157q0 -57 51 -57q36 0 142 82l60 -72q-242 -216 -392 -216q-133 0 -133 122q0 68 30 153q-57 -71 -167 -154q-154 -115 -302 -115q-95 0 -152 58t-57 152q0 100 64 232q57 117 164.5 230.5t220.5 176.5
q147 82 396 105q24 84 42 162h-381l39 125h368q13 77 13 124q0 84 -76 84q-35 0 -75 -7l23 104q57 -4 83 -4q90 0 364 48q-16 -76 -53 -213q-11 -44 -33 -136h152zM886 839q-111 -10 -169 -32q-74 -27 -143 -97q-81 -83 -143 -206q-69 -135 -69 -236q0 -116 91 -116
q43 0 96 32q107 65 185 195q72 121 152 460z" />
    <glyph glyph-name="Emacron" unicode="&#x112;" horiz-adv-x="1288" 
d="M1329 1468q-22 -113 -65 -344h-109q19 70 19 111q0 87 -72 115q-42 16 -150 16q-80 0 -231 -4l-103 -512h72q242 0 307 45q33 22 56 94l86 -2q-68 -233 -68 -366h-90q0 9 1 24.5t1 22.5q0 92 -184 92q-117 0 -199 -10q-24 -109 -68 -336q-34 -182 -34 -197q0 -89 84 -108
q25 -7 79 -9t68 -2h29q96 0 143 13q168 44 215 270l98 -2q-35 -168 -65 -377q-356 8 -528 8q-253 0 -619 -13l18 93h33q87 0 125 55q26 38 66 230q31 151 149 753q27 136 27 156q0 30 -21 53q-27 24 -71 27h-21q-11 0 -33.5 -1t-33.5 -1l16 94q176 -4 254 -4q71 0 213 1
t213 1q20 0 60 2t61 2q149 0 272 10zM1174 1591h-683v172h683v-172z" />
    <glyph glyph-name="emacron" unicode="&#x113;" horiz-adv-x="946" 
d="M967 709q0 -93 -77 -171q-142 -143 -534 -153q-6 -32 -6 -66q0 -196 166 -196q79 0 176 59q86 53 148 126l52 -83q-259 -247 -505 -247q-142 0 -226 101q-77 94 -77 238q0 242 193 432.5t436 190.5q109 0 179 -59q75 -64 75 -172zM735 748q0 94 -94 94q-159 0 -265 -364
q204 16 295 115q64 70 64 155zM991 1122h-683v172h683v-172z" />
    <glyph glyph-name="Ebreve" unicode="&#x114;" horiz-adv-x="1288" 
d="M1329 1468q-22 -113 -65 -344h-109q19 70 19 111q0 87 -72 115q-42 16 -150 16q-80 0 -231 -4l-103 -512h72q242 0 307 45q33 22 56 94l86 -2q-68 -233 -68 -366h-90q0 9 1 24.5t1 22.5q0 92 -184 92q-117 0 -199 -10q-24 -109 -68 -336q-34 -182 -34 -197q0 -89 84 -108
q25 -7 79 -9t68 -2h29q96 0 143 13q168 44 215 270l98 -2q-35 -168 -65 -377q-356 8 -528 8q-253 0 -619 -13l18 93h33q87 0 125 55q26 38 66 230q31 151 149 753q27 136 27 156q0 30 -21 53q-27 24 -71 27h-21q-11 0 -33.5 -1t-33.5 -1l16 94q176 -4 254 -4q71 0 213 1
t213 1q20 0 60 2t61 2q149 0 272 10zM1195 1896q-70 -165 -154 -228q-71 -55 -185 -55t-186 55q-84 63 -152 228l54 28q86 -118 284 -118q197 0 283 118z" />
    <glyph glyph-name="ebreve" unicode="&#x115;" horiz-adv-x="946" 
d="M967 709q0 -93 -77 -171q-142 -143 -534 -153q-6 -32 -6 -66q0 -196 166 -196q79 0 176 59q86 53 148 126l52 -83q-259 -247 -505 -247q-142 0 -226 101q-77 94 -77 238q0 242 193 432.5t436 190.5q109 0 179 -59q75 -64 75 -172zM735 748q0 94 -94 94q-159 0 -265 -364
q204 16 295 115q64 70 64 155zM1029 1368q-70 -165 -154 -228q-71 -55 -185 -55t-186 55q-84 63 -152 228l54 28q86 -118 284 -118q197 0 283 118z" />
    <glyph glyph-name="Edot" unicode="&#x116;" horiz-adv-x="1288" 
d="M1329 1468q-22 -113 -65 -344h-109q19 70 19 111q0 87 -72 115q-42 16 -150 16q-80 0 -231 -4l-103 -512h72q242 0 307 45q33 22 56 94l86 -2q-68 -233 -68 -366h-90q0 9 1 24.5t1 22.5q0 92 -184 92q-117 0 -199 -10q-24 -109 -68 -336q-34 -182 -34 -197q0 -89 84 -108
q25 -7 79 -9t68 -2h29q96 0 143 13q168 44 215 270l98 -2q-35 -168 -65 -377q-356 8 -528 8q-253 0 -619 -13l18 93h33q87 0 125 55q26 38 66 230q31 151 149 753q27 136 27 156q0 30 -21 53q-27 24 -71 27h-21q-11 0 -33.5 -1t-33.5 -1l16 94q176 -4 254 -4q71 0 213 1
t213 1q20 0 60 2t61 2q149 0 272 10zM983 1692q0 -57 -40 -97.5t-97 -40.5t-97.5 40.5t-40.5 97.5t40.5 97t97.5 40t97 -40t40 -97z" />
    <glyph glyph-name="edot" unicode="&#x117;" horiz-adv-x="946" 
d="M967 709q0 -93 -77 -171q-142 -143 -534 -153q-6 -32 -6 -66q0 -196 166 -196q79 0 176 59q86 53 148 126l52 -83q-259 -247 -505 -247q-142 0 -226 101q-77 94 -77 238q0 242 193 432.5t436 190.5q109 0 179 -59q75 -64 75 -172zM735 748q0 94 -94 94q-159 0 -265 -364
q204 16 295 115q64 70 64 155zM848 1225q0 -57 -40 -97.5t-97 -40.5t-97.5 40.5t-40.5 97.5t40.5 97t97.5 40t97 -40t40 -97z" />
    <glyph glyph-name="Eogonek" unicode="&#x118;" horiz-adv-x="1288" 
d="M1329 1468q-22 -113 -65 -344h-109q19 70 19 111q0 87 -72 115q-42 16 -150 16q-80 0 -231 -4l-103 -512h72q242 0 307 45q33 22 56 94l86 -2q-68 -233 -68 -366h-90q0 9 1 24.5t1 22.5q0 92 -184 92q-117 0 -199 -10q-24 -109 -68 -336q-34 -182 -34 -197q0 -89 84 -108
q25 -7 79 -9t68 -2h29q96 0 143 13q168 44 215 270l98 -2q-35 -168 -65 -377q-356 8 -528 8q-253 0 -619 -13l18 93h33q87 0 125 55q26 38 66 230q31 151 149 753q27 136 27 156q0 30 -21 53q-27 24 -71 27h-21q-11 0 -33.5 -1t-33.5 -1l16 94q176 -4 254 -4q71 0 213 1
t213 1q20 0 60 2t61 2q149 0 272 10zM974 -349q-30 -40 -100 -69.5t-137 -29.5q-210 0 -210 170q0 96 114 188q93 75 188 100h90q-192 -153 -192 -269q0 -94 70 -94q78 0 135 53z" />
    <glyph glyph-name="eogonek" unicode="&#x119;" horiz-adv-x="946" 
d="M967 709q0 -93 -77 -171q-142 -143 -534 -153q-6 -32 -6 -66q0 -196 166 -196q79 0 176 59q86 53 148 126l52 -83q-259 -247 -505 -247q-142 0 -226 101q-77 94 -77 238q0 242 193 432.5t436 190.5q109 0 179 -59q75 -64 75 -172zM735 748q0 94 -94 94q-159 0 -265 -364
q204 16 295 115q64 70 64 155zM589 -351q-30 -40 -100 -69.5t-137 -29.5q-210 0 -210 170q0 96 114 188q93 75 188 100h90q-192 -153 -192 -269q0 -94 70 -94q78 0 135 53z" />
    <glyph glyph-name="Ecaron" unicode="&#x11a;" horiz-adv-x="1288" 
d="M1329 1468q-22 -113 -65 -344h-109q19 70 19 111q0 87 -72 115q-42 16 -150 16q-80 0 -231 -4l-103 -512h72q242 0 307 45q33 22 56 94l86 -2q-68 -233 -68 -366h-90q0 9 1 24.5t1 22.5q0 92 -184 92q-117 0 -199 -10q-24 -109 -68 -336q-34 -182 -34 -197q0 -89 84 -108
q25 -7 79 -9t68 -2h29q96 0 143 13q168 44 215 270l98 -2q-35 -168 -65 -377q-356 8 -528 8q-253 0 -619 -13l18 93h33q87 0 125 55q26 38 66 230q31 151 149 753q27 136 27 156q0 30 -21 53q-27 24 -71 27h-21q-11 0 -33.5 -1t-33.5 -1l16 94q176 -4 254 -4q71 0 213 1
t213 1q20 0 60 2t61 2q149 0 272 10zM1268 1837q-111 -42 -210 -117q-112 -84 -157 -174h-227q22 59 22 112q0 106 -74 202l76 61q83 -47 155 -160q96 80 332 169z" />
    <glyph glyph-name="ecaron" unicode="&#x11b;" horiz-adv-x="946" 
d="M967 709q0 -93 -77 -171q-142 -143 -534 -153q-6 -32 -6 -66q0 -196 166 -196q79 0 176 59q86 53 148 126l52 -83q-259 -247 -505 -247q-142 0 -226 101q-77 94 -77 238q0 242 193 432.5t436 190.5q109 0 179 -59q75 -64 75 -172zM735 748q0 94 -94 94q-159 0 -265 -364
q204 16 295 115q64 70 64 155zM1082 1309q-111 -42 -210 -117q-112 -84 -157 -174h-227q22 59 22 112q0 106 -74 202l76 61q83 -47 155 -160q96 80 332 169z" />
    <glyph glyph-name="Gcircumflex" unicode="&#x11c;" horiz-adv-x="1757" 
d="M1743 711l-12 -99q-9 0 -21.5 1t-17.5 1q-62 0 -90 -53q-15 -27 -27 -102l-19 -111q-18 -95 -53 -291q-346 -91 -579 -91q-261 0 -467 143q-69 47 -140 137q-161 204 -161 467q0 113 39 231q90 275 331 418q219 131 525 131q235 0 659 -119l-51 -307l-98 2v45
q0 85 -80 158q-117 106 -348 106q-284 0 -480 -193t-196 -476q0 -157 62 -298q67 -151 185.5 -237t311.5 -86q121 0 231 55q17 110 47 326q6 48 6 59q0 83 -94 90q-24 3 -59 3l16 96q228 -12 447 -12q62 0 133 6zM1372 1598l-77 -64q-64 54 -85 75q-42 41 -70 89
q-22 -17 -67 -49q-75 -48 -267 -122l-80 90q34 15 98 47q176 97 268 248h224q-19 -67 -19 -108q0 -101 75 -206z" />
    <glyph glyph-name="gcircumflex" unicode="&#x11d;" horiz-adv-x="989" 
d="M1098 1012q0 -119 -175 -229q31 -68 31 -111q0 -94 -64 -173q-68 -84 -266 -151q-25 -9 -74 -26q-24 -6 -73 -23q-65 -28 -65 -74q0 -48 148 -65q97 -12 130 -18q75 -15 123 -44q115 -70 115 -201q0 -98 -88 -178q-153 -140 -447 -140q-278 0 -378 116q-43 52 -43 109
q0 144 282 196q-158 45 -158 133q0 106 263 203q-191 71 -191 246q0 111 93 219q117 137 347 137q153 0 265 -86q26 48 26 78q0 38 -39 85l216 90q22 -62 22 -93zM698 737q0 109 -80 109q-58 0 -109 -74q-73 -106 -73 -264q0 -42 24 -73q26 -34 64 -34q76 0 130 135
q44 110 44 201zM705 -183q0 93 -202 128q-28 5 -77 13q-246 -42 -246 -164q0 -68 88 -104q67 -27 152 -27q99 0 179 32q106 42 106 122zM858 1070l-77 -64q-64 54 -85 75q-42 41 -70 89q-22 -17 -67 -49q-75 -48 -267 -122l-80 90q34 15 98 47q176 97 268 248h224
q-19 -67 -19 -108q0 -101 75 -206z" />
    <glyph glyph-name="Gbreve" unicode="&#x11e;" horiz-adv-x="1757" 
d="M1743 711l-12 -99q-9 0 -21.5 1t-17.5 1q-62 0 -90 -53q-15 -27 -27 -102l-19 -111q-18 -95 -53 -291q-346 -91 -579 -91q-261 0 -467 143q-69 47 -140 137q-161 204 -161 467q0 113 39 231q90 275 331 418q219 131 525 131q235 0 659 -119l-51 -307l-98 2v45
q0 85 -80 158q-117 106 -348 106q-284 0 -480 -193t-196 -476q0 -157 62 -298q67 -151 185.5 -237t311.5 -86q121 0 231 55q17 110 47 326q6 48 6 59q0 83 -94 90q-24 3 -59 3l16 96q228 -12 447 -12q62 0 133 6zM1435 1896q-70 -165 -154 -228q-71 -55 -185 -55t-186 55
q-84 63 -152 228l54 28q86 -118 284 -118q197 0 283 118z" />
    <glyph glyph-name="gbreve" unicode="&#x11f;" horiz-adv-x="989" 
d="M1098 1012q0 -119 -175 -229q31 -68 31 -111q0 -94 -64 -173q-68 -84 -266 -151q-25 -9 -74 -26q-24 -6 -73 -23q-65 -28 -65 -74q0 -48 148 -65q97 -12 130 -18q75 -15 123 -44q115 -70 115 -201q0 -98 -88 -178q-153 -140 -447 -140q-278 0 -378 116q-43 52 -43 109
q0 144 282 196q-158 45 -158 133q0 106 263 203q-191 71 -191 246q0 111 93 219q117 137 347 137q153 0 265 -86q26 48 26 78q0 38 -39 85l216 90q22 -62 22 -93zM698 737q0 109 -80 109q-58 0 -109 -74q-73 -106 -73 -264q0 -42 24 -73q26 -34 64 -34q76 0 130 135
q44 110 44 201zM705 -183q0 93 -202 128q-28 5 -77 13q-246 -42 -246 -164q0 -68 88 -104q67 -27 152 -27q99 0 179 32q106 42 106 122zM970 1368q-70 -165 -154 -228q-71 -55 -185 -55t-186 55q-84 63 -152 228l54 28q86 -118 284 -118q197 0 283 118z" />
    <glyph glyph-name="Gdot" unicode="&#x120;" horiz-adv-x="1757" 
d="M1743 711l-12 -99q-9 0 -21.5 1t-17.5 1q-62 0 -90 -53q-15 -27 -27 -102l-19 -111q-18 -95 -53 -291q-346 -91 -579 -91q-261 0 -467 143q-69 47 -140 137q-161 204 -161 467q0 113 39 231q90 275 331 418q219 131 525 131q235 0 659 -119l-51 -307l-98 2v45
q0 85 -80 158q-117 106 -348 106q-284 0 -480 -193t-196 -476q0 -157 62 -298q67 -151 185.5 -237t311.5 -86q121 0 231 55q17 110 47 326q6 48 6 59q0 83 -94 90q-24 3 -59 3l16 96q228 -12 447 -12q62 0 133 6zM1233 1692q0 -57 -40 -97.5t-97 -40.5t-97.5 40.5
t-40.5 97.5t40.5 97t97.5 40t97 -40t40 -97z" />
    <glyph glyph-name="gdot" unicode="&#x121;" horiz-adv-x="989" 
d="M1098 1012q0 -119 -175 -229q31 -68 31 -111q0 -94 -64 -173q-68 -84 -266 -151q-25 -9 -74 -26q-24 -6 -73 -23q-65 -28 -65 -74q0 -48 148 -65q97 -12 130 -18q75 -15 123 -44q115 -70 115 -201q0 -98 -88 -178q-153 -140 -447 -140q-278 0 -378 116q-43 52 -43 109
q0 144 282 196q-158 45 -158 133q0 106 263 203q-191 71 -191 246q0 111 93 219q117 137 347 137q153 0 265 -86q26 48 26 78q0 38 -39 85l216 90q22 -62 22 -93zM698 737q0 109 -80 109q-58 0 -109 -74q-73 -106 -73 -264q0 -42 24 -73q26 -34 64 -34q76 0 130 135
q44 110 44 201zM705 -183q0 93 -202 128q-28 5 -77 13q-246 -42 -246 -164q0 -68 88 -104q67 -27 152 -27q99 0 179 32q106 42 106 122zM795 1225q0 -57 -40 -97.5t-97 -40.5t-97.5 40.5t-40.5 97.5t40.5 97t97.5 40t97 -40t40 -97z" />
    <glyph glyph-name="Gcedilla" unicode="&#x122;" horiz-adv-x="1757" 
d="M1743 711l-12 -99q-9 0 -21.5 1t-17.5 1q-62 0 -90 -53q-15 -27 -27 -102l-19 -111q-18 -95 -53 -291q-346 -91 -579 -91q-261 0 -467 143q-69 47 -140 137q-161 204 -161 467q0 113 39 231q90 275 331 418q219 131 525 131q235 0 659 -119l-51 -307l-98 2v45
q0 85 -80 158q-117 106 -348 106q-284 0 -480 -193t-196 -476q0 -157 62 -298q67 -151 185.5 -237t311.5 -86q121 0 231 55q17 110 47 326q6 48 6 59q0 83 -94 90q-24 3 -59 3l16 96q228 -12 447 -12q62 0 133 6zM1119 -77q0 -67 -36 -133q-51 -96 -140 -153
q-63 -40 -193 -85l-38 52q120 106 120 238v9q142 36 281 101q6 -22 6 -29z" />
    <glyph glyph-name="gcedilla" unicode="&#x123;" horiz-adv-x="989" 
d="M1098 1012q0 -119 -175 -229q31 -68 31 -111q0 -94 -64 -173q-68 -84 -266 -151q-25 -9 -74 -26q-24 -6 -73 -23q-65 -28 -65 -74q0 -48 148 -65q97 -12 130 -18q75 -15 123 -44q115 -70 115 -201q0 -98 -88 -178q-153 -140 -447 -140q-278 0 -378 116q-43 52 -43 109
q0 144 282 196q-158 45 -158 133q0 106 263 203q-191 71 -191 246q0 111 93 219q117 137 347 137q153 0 265 -86q26 48 26 78q0 38 -39 85l216 90q22 -62 22 -93zM698 737q0 109 -80 109q-58 0 -109 -74q-73 -106 -73 -264q0 -42 24 -73q26 -34 64 -34q76 0 130 135
q44 110 44 201zM705 -183q0 93 -202 128q-28 5 -77 13q-246 -42 -246 -164q0 -68 88 -104q67 -27 152 -27q99 0 179 32q106 42 106 122zM486 1081q0 67 35 133q51 96 141 153q63 41 192 86l39 -53q-120 -105 -120 -237v-9q-143 -36 -282 -101q-5 22 -5 28z" />
    <glyph glyph-name="Hcircumflex" unicode="&#x124;" horiz-adv-x="1671" 
d="M1825 1456l-15 -94q-51 -2 -73 -7q-34 -8 -60 -32q-45 -42 -82 -221q-45 -235 -137 -703q-8 -36 -22 -110q-15 -78 -15 -107q0 -96 97 -96q16 0 73 4l-20 -93q-185 5 -361 5q-90 0 -286 -3l18 93h37q104 0 141 74q20 40 64 262l55 283l-651 -2q-20 -105 -62 -312
q-30 -138 -30 -192q0 -115 108 -115q35 0 55 2l-14 -92q-233 4 -340 4q-51 0 -153 -2t-155 -2l23 90q70 0 109 19q49 23 76 105q11 30 31 132l155 784q12 67 12 107q0 77 -39 104q-31 21 -108 21h-27l23 96q268 -14 336 -14q48 0 319 10l-14 -90h-10q-115 0 -154 -51
q-29 -39 -71 -236l-50 -260h652l49 248q24 124 24 168q0 80 -44 108q-33 22 -122 25l19 92q156 -12 307 -12q144 0 332 10zM1343 1598l-77 -64q-64 54 -85 75q-42 41 -70 89q-22 -17 -67 -49q-75 -48 -267 -122l-80 90q34 15 98 47q176 97 268 248h224q-19 -67 -19 -108
q0 -101 75 -206z" />
    <glyph glyph-name="hcircumflex" unicode="&#x125;" horiz-adv-x="1118" 
d="M1142 194q-238 -218 -394 -218q-121 0 -121 110q0 42 55 233l55 190q33 112 33 144q0 62 -51 62q-36 0 -76 -28q-130 -92 -224 -293q-37 -82 -108 -367l-251 -37l231 912q31 114 61 227q37 146 37 227q0 57 -31 76q-23 14 -82 14h-18h-20l23 88q160 9 222 15
q123 13 219 40l-241 -962q95 121 207 208q145 111 258 111q133 0 133 -127q0 -44 -70 -279q-19 -65 -55 -195q-31 -120 -31 -134q0 -37 41 -37q35 0 140 86zM1083 1680l-77 -64q-64 54 -85 75q-42 41 -70 89q-22 -17 -67 -49q-75 -48 -267 -122l-80 90q34 15 98 47
q176 97 268 248h224q-19 -67 -19 -108q0 -101 75 -206z" />
    <glyph glyph-name="Hbar" unicode="&#x126;" horiz-adv-x="1671" 
d="M1825 1456l-15 -94q-51 -2 -73 -7q-34 -8 -60 -32q-47 -44 -79 -207h192l-23 -119h-193q-38 -199 -116 -598q-8 -36 -22 -110q-15 -78 -15 -107q0 -96 97 -96q16 0 73 4l-20 -93q-185 5 -361 5q-90 0 -286 -3l18 93h37q104 0 141 74q20 40 64 262l55 283l-651 -2
q-20 -105 -62 -312q-30 -138 -30 -192q0 -119 108 -115q18 0 55 2l-14 -92q-233 4 -340 4q-51 0 -153 -2t-155 -2l23 90q70 0 109 19q49 23 76 105q11 30 31 132q44 217 130 651h-190l23 119h190l2 14q12 67 12 107q0 77 -39 104q-31 21 -108 21h-27l23 96q268 -14 336 -14
q48 0 319 10l-14 -90h-10q-115 0 -154 -51q-26 -35 -63 -197h653q14 71 14 117q0 80 -44 108q-33 22 -122 25l19 92q156 -12 307 -12q144 0 332 10zM1295 997h-653q-13 -72 -34 -180h652z" />
    <glyph glyph-name="hbar" unicode="&#x127;" horiz-adv-x="1118" 
d="M1142 194q-238 -218 -394 -218q-121 0 -121 110q0 42 55 233l55 190q33 112 33 144q0 62 -51 62q-36 0 -76 -28q-130 -92 -224 -293q-37 -82 -108 -367l-251 -37l231 912q15 58 49 190h-158l39 125h148q20 95 20 139q0 57 -31 76q-23 14 -82 14h-38l23 88q160 9 222 15
q123 13 219 40l-93 -372h378l-39 -125h-370l-117 -465q95 121 207 208q145 111 258 111q133 0 133 -127q0 -44 -70 -279q-19 -65 -55 -195q-31 -120 -31 -134q0 -37 41 -37q35 0 140 86z" />
    <glyph glyph-name="Itilde" unicode="&#x128;" horiz-adv-x="733" 
d="M905 1458l-16 -94h-17q-68 0 -96 -14q-55 -29 -85 -124q-9 -27 -34 -153l-137 -696q-28 -140 -28 -174q0 -78 53 -98q27 -11 123 -11l-13 -94q-176 8 -256 8q-172 0 -397 -9l16 91h35q79 0 115 41q29 33 63 203q78 379 158 794q25 127 25 152q0 82 -117 82h-64l19 94
q205 -8 297 -8q155 0 356 10zM956 1767q0 -153 -67 -222q-49 -50 -125 -50q-70 0 -181.5 62.5t-150.5 62.5q-17 0 -39 -12q-37 -19 -41 -88h-108q0 117 53 195q60 91 170 91q63 0 134 -36q60 -35 121 -69q36 -20 58 -20q64 0 72 91h102v-9h-2z" />
    <glyph glyph-name="itilde" unicode="&#x129;" horiz-adv-x="606" 
d="M626 176q-78 -71 -180 -128q-124 -67 -204 -67q-52 0 -86.5 31t-34.5 82q0 43 17 102l32 98q29 102 78 256q39 123 39 138q0 41 -43 41q-27 0 -114 -65l-60 70q82 73 188 131q126 69 207 69q43 0 73.5 -26t30.5 -68q0 -34 -63 -237q-24 -81 -72 -242q-41 -129 -41 -156
q0 -45 39 -45q22 0 136 79zM797 1300q0 -153 -67 -222q-49 -50 -125 -50q-70 0 -181.5 62.5t-150.5 62.5q-17 0 -39 -12q-37 -19 -41 -88h-108q0 117 53 195q60 91 170 91q63 0 134 -36q60 -35 121 -69q36 -20 58 -20q64 0 72 91h102v-9h-2z" />
    <glyph glyph-name="Imacron" unicode="&#x12a;" horiz-adv-x="733" 
d="M905 1458l-16 -94h-17q-68 0 -96 -14q-55 -29 -85 -124q-9 -27 -34 -153l-137 -696q-28 -140 -28 -174q0 -78 53 -98q27 -11 123 -11l-13 -94q-176 8 -256 8q-172 0 -397 -9l16 91h35q79 0 115 41q29 33 63 203q78 379 158 794q25 127 25 152q0 82 -117 82h-64l19 94
q205 -8 297 -8q155 0 356 10zM940 1591h-683v172h683v-172z" />
    <glyph glyph-name="imacron" unicode="&#x12b;" horiz-adv-x="606" 
d="M626 176q-78 -71 -180 -128q-124 -67 -204 -67q-52 0 -86.5 31t-34.5 82q0 43 17 102l32 98q29 102 78 256q39 123 39 138q0 41 -43 41q-27 0 -114 -65l-60 70q82 73 188 131q126 69 207 69q43 0 73.5 -26t30.5 -68q0 -34 -63 -237q-24 -81 -72 -242q-41 -129 -41 -156
q0 -45 39 -45q22 0 136 79zM809 1122h-683v172h683v-172z" />
    <glyph glyph-name="Ibreve" unicode="&#x12c;" horiz-adv-x="733" 
d="M905 1458l-16 -94h-17q-68 0 -96 -14q-55 -29 -85 -124q-9 -27 -34 -153l-137 -696q-28 -140 -28 -174q0 -78 53 -98q27 -11 123 -11l-13 -94q-176 8 -256 8q-172 0 -397 -9l16 91h35q79 0 115 41q29 33 63 203q78 379 158 794q25 127 25 152q0 82 -117 82h-64l19 94
q205 -8 297 -8q155 0 356 10zM945 1896q-70 -165 -154 -228q-71 -55 -185 -55t-186 55q-84 63 -152 228l54 28q86 -118 284 -118q197 0 283 118z" />
    <glyph glyph-name="ibreve" unicode="&#x12d;" horiz-adv-x="606" 
d="M626 176q-78 -71 -180 -128q-124 -67 -204 -67q-52 0 -86.5 31t-34.5 82q0 43 17 102l32 98q29 102 78 256q39 123 39 138q0 41 -43 41q-27 0 -114 -65l-60 70q82 73 188 131q126 69 207 69q43 0 73.5 -26t30.5 -68q0 -34 -63 -237q-24 -81 -72 -242q-41 -129 -41 -156
q0 -45 39 -45q22 0 136 79zM804 1368q-70 -165 -154 -228q-71 -55 -185 -55t-186 55q-84 63 -152 228l54 28q86 -118 284 -118q197 0 283 118z" />
    <glyph glyph-name="Iogonek" unicode="&#x12e;" horiz-adv-x="733" 
d="M905 1458l-16 -94h-17q-68 0 -96 -14q-55 -29 -85 -124q-9 -27 -34 -153l-137 -696q-28 -140 -28 -174q0 -78 53 -98q27 -11 123 -11l-13 -94q-176 8 -256 8q-172 0 -397 -9l16 91h35q79 0 115 41q29 33 63 203q78 379 158 794q25 127 25 152q0 82 -117 82h-64l19 94
q205 -8 297 -8q155 0 356 10zM560 -349q-30 -40 -100 -69.5t-137 -29.5q-210 0 -210 170q0 96 114 188q93 75 188 100h90q-192 -153 -192 -269q0 -94 70 -94q78 0 135 53z" />
    <glyph glyph-name="iogonek" unicode="&#x12f;" horiz-adv-x="606" 
d="M649 1257q0 -65 -53 -121.5t-119 -56.5q-45 0 -78.5 30.5t-33.5 76.5q0 69 53 127.5t121 58.5q48 0 79 -33t31 -82zM626 176q-78 -71 -180 -128q-124 -67 -204 -67q-52 0 -86.5 31t-34.5 82q0 43 17 102l32 98q29 102 78 256q39 123 39 138q0 41 -43 41q-27 0 -114 -65
l-60 70q82 73 188 131q126 69 207 69q43 0 73.5 -26t30.5 -68q0 -34 -63 -237q-24 -81 -72 -242q-41 -129 -41 -156q0 -45 39 -45q22 0 136 79zM410 -351q-30 -40 -100 -69.5t-137 -29.5q-210 0 -210 170q0 96 114 188q93 75 188 100h90q-192 -153 -192 -269q0 -94 70 -94
q78 0 135 53z" />
    <glyph glyph-name="Idotaccent" unicode="&#x130;" horiz-adv-x="733" 
d="M905 1458l-16 -94h-17q-68 0 -96 -14q-55 -29 -85 -124q-9 -27 -34 -153l-137 -696q-28 -140 -28 -174q0 -78 53 -98q27 -11 123 -11l-13 -94q-176 8 -256 8q-172 0 -397 -9l16 91h35q79 0 115 41q29 33 63 203q78 379 158 794q25 127 25 152q0 82 -117 82h-64l19 94
q205 -8 297 -8q155 0 356 10zM752 1692q0 -57 -40 -97.5t-97 -40.5t-97.5 40.5t-40.5 97.5t40.5 97t97.5 40t97 -40t40 -97z" />
    <glyph glyph-name="dotlessi" unicode="&#x131;" horiz-adv-x="606" 
d="M626 176q-78 -71 -180 -128q-124 -67 -204 -67q-52 0 -86.5 31t-34.5 82q0 43 17 102l32 98q29 102 78 256q39 123 39 138q0 41 -43 41q-27 0 -114 -65l-60 70q82 73 188 131q126 69 207 69q43 0 73.5 -26t30.5 -68q0 -34 -63 -237q-24 -81 -72 -242q-41 -129 -41 -156
q0 -45 39 -45q22 0 136 79z" />
    <glyph glyph-name="IJ" unicode="&#x132;" horiz-adv-x="1573" 
d="M905 1458l-16 -94h-17q-68 0 -96 -14q-55 -29 -85 -124q-9 -27 -34 -153l-137 -696q-28 -140 -28 -174q0 -78 53 -98q27 -11 123 -11l-13 -94q-176 8 -256 8q-172 0 -397 -9l16 91h35q79 0 115 41q29 33 63 203q78 379 158 794q25 127 25 152q0 82 -117 82h-64l19 94
q205 -8 297 -8q155 0 356 10zM1780 1458l-12 -94q-19 2 -47 2q-62 0 -97 -35q-28 -28 -45 -98q-13 -55 -149 -733q-37 -185 -90 -280q-74 -133 -217 -195q-90 -38 -183 -38q-68 0 -223 42l59 331h107q-14 -51 -14 -108q0 -137 88 -137q14 0 47 12q54 20 88 90q38 78 63 225
q32 196 99 588q34 195 34 238q0 92 -108 98h-43h-18l16 92q134 -8 291 -8q112 0 354 8z" />
    <glyph glyph-name="ij" unicode="&#x133;" horiz-adv-x="1171" 
d="M649 1257q0 -65 -53 -121.5t-119 -56.5q-45 0 -78.5 30.5t-33.5 76.5q0 69 53 127.5t121 58.5q48 0 79 -33t31 -82zM626 176q-78 -71 -180 -128q-124 -67 -204 -67q-52 0 -86.5 31t-34.5 82q0 43 17 102l32 98q29 102 78 256q39 123 39 138q0 41 -43 41q-27 0 -114 -65
l-60 70q82 73 188 131q126 69 207 69q43 0 73.5 -26t30.5 -68q0 -34 -63 -237q-24 -81 -72 -242q-41 -129 -41 -156q0 -45 39 -45q22 0 136 79zM1241 1290q0 -66 -47 -120t-113 -54q-51 0 -84 31.5t-33 83.5q0 65 54 118.5t118 53.5q45 0 75 -34t30 -79zM1177 825
q0 -113 -112 -425.5t-207 -460.5q-170 -266 -386 -266q-21 0 -71 5l41 161l82 -4q-11 -35 -11 -49q0 -33 37 -33q27 0 53 37q16 24 54 130q37 100 122 386q95 319 95 364q0 63 -45 63q-25 0 -107 -59l-56 66q263 200 407 200q104 0 104 -115z" />
    <glyph glyph-name="Jcircumflex" unicode="&#x134;" horiz-adv-x="903" 
d="M1110 1458l-12 -94q-19 2 -47 2q-62 0 -97 -35q-28 -28 -45 -98q-13 -55 -149 -733q-37 -185 -90 -280q-74 -133 -217 -195q-90 -38 -183 -38q-68 0 -223 42l59 331h107q-14 -51 -14 -108q0 -137 88 -137q14 0 47 12q54 20 88 90q38 78 63 225q32 196 99 588
q34 195 34 238q0 92 -108 98h-43h-18l16 92q134 -8 291 -8q112 0 354 8zM1097 1598l-77 -64q-64 54 -85 75q-42 41 -70 89q-22 -17 -67 -49q-75 -48 -267 -122l-80 90q34 15 98 47q176 97 268 248h224q-19 -67 -19 -108q0 -101 75 -206z" />
    <glyph glyph-name="jcircumflex" unicode="&#x135;" horiz-adv-x="606" 
d="M737 1070l-78 -64q-63 54 -84 75q-42 41 -70 89q-22 -17 -67 -49q-75 -48 -267 -122l-81 90q34 15 98 47q177 97 268 248h225q-19 -67 -19 -108q0 -101 75 -206zM612 825q0 -113 -112 -425.5t-207 -460.5q-170 -266 -386 -266q-21 0 -71 5l41 161l82 -4q-11 -35 -11 -49
q0 -33 37 -33q27 0 53 37q16 24 54 130q37 100 122 386q95 319 95 364q0 63 -45 63q-25 0 -107 -59l-56 66q263 200 407 200q104 0 104 -115z" />
    <glyph glyph-name="Kcedilla" unicode="&#x136;" horiz-adv-x="1544" 
d="M1606 1458l-15 -90q-81 -6 -129 -29q-98 -45 -317 -239q-64 -58 -193 -172q1 -1 78 -170q66 -141 193 -424q36 -84 51 -112q36 -66 76 -95q46 -33 145 -37l-8 -88q-15 0 -40.5 -1t-37.5 -1q-36 0 -107.5 3t-107.5 3q-41 0 -123 -3.5t-123 -3.5h-65l20 89q86 4 86 57
q0 25 -53 138l-217 456l-146 -118q-8 -46 -53 -271q-24 -123 -24 -164q0 -96 104 -96q10 0 32 1t36 1l-27 -93q-52 0 -152 4.5t-149 4.5q-45 0 -122 -3q-87 -4 -122 -5q-29 0 -94 -1l16 95h64q49 0 86 35q32 30 52 111q12 62 24 125q55 272 159 819q9 46 9 71q0 61 -22.5 87
t-82.5 26q-43 0 -69 -2l14 90q96 -4 283 -4q-11 0 383 6l-17 -90q-9 0 -21 1t-18 1q-88 0 -135 -74q-26 -40 -72 -268l-53 -266q30 24 201 166q19 15 57 47q29 26 88 80q48 41 139 129q32 29 91 90q34 41 34 63q0 35 -61 39l14 80q152 -4 221 -4q106 0 220 6zM871 -77
q0 -67 -36 -133q-51 -96 -140 -153q-63 -40 -193 -85l-38 52q120 106 120 238v9q142 36 281 101q6 -22 6 -29z" />
    <glyph glyph-name="kcedilla" unicode="&#x137;" horiz-adv-x="1075" 
d="M1094 791q0 -119 -149 -244q-113 -96 -256 -156l42 -99q49 -120 105 -120q43 0 150 100l56 -74q-221 -220 -362 -220q-61 0 -103 42q-47 46 -150 372q126 29 183 51q98 38 159 101q54 55 54 103q0 55 -59 55q-66 0 -157 -78q-118 -103 -200 -260.5t-104 -317.5l-262 -63
q70 268 268 1050q70 274 70 319q0 84 -94 84q-19 0 -61 -5l18 92q147 15 446 61l-259 -1030q269 359 534 359q131 0 131 -122zM564 -77q0 -67 -36 -133q-51 -96 -140 -153q-63 -40 -193 -85l-38 52q120 106 120 238v9q142 36 281 101q6 -22 6 -29z" />
    <glyph glyph-name="kgreenlandic" unicode="&#x138;" horiz-adv-x="1130" 
d="M1149 791q0 -120 -148 -245q-114 -96 -256 -155q4 -9 41 -98q51 -121 105 -121q49 0 149 100l58 -73q-221 -221 -363 -221q-59 0 -102 42q-46 46 -152 371q135 33 184 52q99 37 160 100q54 54 54 104q0 55 -60 55q-66 0 -157 -79q-117 -103 -199.5 -260.5t-104.5 -317.5
l-262 -62l140 541q20 80 20 123q0 60 -47 60q-33 0 -103 -60l-63 70q4 4 49 41q233 188 371 188q72 0 72 -108q0 -88 -64 -301q279 376 547 376q131 0 131 -122z" />
    <glyph glyph-name="Lacute" unicode="&#x139;" horiz-adv-x="1331" 
d="M1260 369l-66 -370h-1195l24 93q8 0 22.5 -1t20.5 -1q98 0 133 86q10 25 28 111q22 98 121 604l41 209q27 127 27 170q0 104 -137 104h-33l20 88q202 -10 352 -10q149 0 306 6l-17 -90h-24q-81 0 -121 -35q-48 -41 -78 -178q-48 -246 -147 -735q-29 -138 -29 -187
q0 -71 41 -100q55 -39 246 -39h16q162 0 237 56q85 62 101 219h111zM918 1825q-106 -121 -203 -181q-80 -50 -243 -109l-60 67q100 64 148.5 123t94.5 168q142 -49 263 -68z" />
    <glyph glyph-name="lacute" unicode="&#x13a;" horiz-adv-x="563" 
d="M700 1570l-250 -987q-85 -342 -85 -368q0 -59 51 -59q45 0 166 108l61 -70q-217 -216 -416 -216q-137 0 -137 112q0 46 18 112q16 55 31 110q62 251 95 377q42 166 127 498q26 102 26 144q0 88 -88 88q-24 0 -75 -4l25 100q240 17 451 55zM807 1850q-106 -121 -203 -181
q-80 -50 -243 -109l-60 67q100 64 148.5 123t94.5 168q142 -49 263 -68z" />
    <glyph glyph-name="Lcedilla" unicode="&#x13b;" horiz-adv-x="1331" 
d="M1260 369l-66 -370h-1195l24 93q8 0 22.5 -1t20.5 -1q98 0 133 86q10 25 28 111q22 98 121 604l41 209q27 127 27 170q0 104 -137 104h-33l20 88q202 -10 352 -10q149 0 306 6l-17 -90h-24q-81 0 -121 -35q-48 -41 -78 -178q-48 -246 -147 -735q-29 -138 -29 -187
q0 -71 41 -100q55 -39 246 -39h16q162 0 237 56q85 62 101 219h111zM719 -77q0 -67 -36 -133q-51 -96 -140 -153q-63 -40 -193 -85l-38 52q120 106 120 238v9q142 36 281 101q6 -22 6 -29z" />
    <glyph glyph-name="lcedilla" unicode="&#x13c;" horiz-adv-x="563" 
d="M700 1570l-250 -987q-85 -342 -85 -368q0 -59 51 -59q45 0 166 108l61 -70q-217 -216 -416 -216q-137 0 -137 112q0 46 18 112q16 55 31 110q62 251 95 377q42 166 127 498q26 102 26 144q0 88 -88 88q-24 0 -75 -4l25 100q240 17 451 55zM430 -77q0 -67 -36 -133
q-51 -96 -140 -153q-63 -40 -193 -85l-38 52q120 106 120 238v9q142 36 281 101q6 -22 6 -29z" />
    <glyph glyph-name="Lcaron" unicode="&#x13d;" horiz-adv-x="1331" 
d="M1260 369l-66 -370h-1195l24 93q8 0 22.5 -1t20.5 -1q98 0 133 86q10 25 28 111q22 98 121 604l41 209q27 127 27 170q0 104 -137 104h-33l20 88q202 -10 352 -10q149 0 306 6l-17 -90h-24q-81 0 -121 -35q-48 -41 -78 -178q-48 -246 -147 -735q-29 -138 -29 -187
q0 -71 41 -100q55 -39 246 -39h16q162 0 237 56q85 62 101 219h111zM1245 1462q0 -207 -249 -360l-52 70q95 90 95 196q0 102 -50 186q121 48 215 106q41 -101 41 -198z" />
    <glyph glyph-name="lcaron" unicode="&#x13e;" horiz-adv-x="698" 
d="M700 1570l-250 -987q-85 -342 -85 -368q0 -59 51 -59q45 0 166 108l61 -70q-217 -216 -416 -216q-137 0 -137 112q0 46 18 112q16 55 31 110q62 251 95 377q42 166 127 498q26 102 26 144q0 88 -88 88q-24 0 -75 -4l25 100q240 17 451 55zM984 1462q0 -207 -249 -360
l-52 70q95 90 95 196q0 102 -50 186q121 48 215 106q41 -101 41 -198z" />
    <glyph glyph-name="Ldot" unicode="&#x13f;" horiz-adv-x="1331" 
d="M1260 369l-66 -370h-1195l24 93q8 0 22.5 -1t20.5 -1q98 0 133 86q10 25 28 111q22 98 121 604l41 209q27 127 27 170q0 104 -137 104h-33l20 88q202 -10 352 -10q149 0 306 6l-17 -90h-24q-81 0 -121 -35q-48 -41 -78 -178q-48 -246 -147 -735q-29 -138 -29 -187
q0 -71 41 -100q55 -39 246 -39h16q162 0 237 56q85 62 101 219h111zM1013 835q0 -57 -40 -97.5t-97 -40.5t-97.5 40.5t-40.5 97.5t40.5 97t97.5 40t97 -40t40 -97z" />
    <glyph glyph-name="ldot" unicode="&#x140;" horiz-adv-x="864" 
d="M700 1570l-250 -987q-85 -342 -85 -368q0 -59 51 -59q45 0 166 108l61 -70q-217 -216 -416 -216q-137 0 -137 112q0 46 18 112q16 55 31 110q62 251 95 377q42 166 127 498q26 102 26 144q0 88 -88 88q-24 0 -75 -4l25 100q240 17 451 55zM864 835q0 -57 -40 -97.5
t-97 -40.5t-97.5 40.5t-40.5 97.5t40.5 97t97.5 40t97 -40t40 -97z" />
    <glyph glyph-name="Lslash" unicode="&#x141;" horiz-adv-x="1331" 
d="M1260 369l-66 -370h-1195l24 93q8 0 22.5 -1t20.5 -1q98 0 133 86q10 25 28 111q20 97 60 288l-205 -104l27 135l204 105l76 389q27 127 27 170q0 104 -137 104h-33l20 88q202 -10 352 -10q149 0 306 6l-17 -90h-24q-81 0 -121 -35q-47 -40 -78 -178q-8 -35 -57 -283
l438 224l-27 -135l-438 -224q-34 -178 -63 -316t-29 -188q0 -71 41 -100q55 -39 246 -39h16q162 0 237 56q85 62 101 219h111z" />
    <glyph glyph-name="lslash" unicode="&#x142;" horiz-adv-x="563" 
d="M725 1139l-27 -144l-172 -114l-76 -298q-85 -342 -85 -368q0 -59 51 -59q45 0 166 108l61 -70q-217 -216 -416 -216q-137 0 -137 112q0 46 18 112q16 55 31 110q61 249 94 374l-151 -100l27 149l164 108l88 344q26 102 26 144q0 88 -88 88q-24 0 -75 -4l25 100
q240 17 451 55l-136 -536z" />
    <glyph glyph-name="nacute" unicode="&#x144;" 
d="M1218 181q-52 -39 -153 -112q-84 -55 -171 -76q-64 -17 -106 -17q-52 0 -88 27q-41 31 -41 83q0 24 14 79t26 76q108 325 108 396q0 55 -47 55q-56 0 -135 -74q-158 -151 -286 -601l-246 -42q56 213 109.5 424.5t53.5 247.5q0 60 -47 60q-34 0 -103 -59l-62 69q6 7 48 40
q240 189 371 189q72 0 72 -108q0 -82 -51 -259q79 124 211 232q153 125 266 125q58 0 100 -32q45 -35 45 -93q0 -48 -54 -222q-38 -118 -75 -236q-29 -101 -29 -122q0 -63 58 -63q43 0 158 92zM1039 1297q-106 -121 -203 -181q-80 -50 -243 -109l-60 67q100 64 148.5 123
t94.5 168q142 -49 263 -68z" />
    <glyph glyph-name="Ncedilla" unicode="&#x145;" horiz-adv-x="1630" 
d="M1802 1456l-14 -94q-110 0 -156 -74q-36 -59 -88 -316q-33 -174 -65 -347q-45 -231 -131 -696h-23l-831 1208q-6 -26 -74 -422q-39 -224 -62 -400q-10 -79 -10 -122q0 -109 107 -109q9 0 30.5 1t34.5 1l-14 -87q-160 7 -230 7q13 0 -258 -6l21 90h24q61 0 97 31
q47 41 84 227q41 234 127 701q30 160 30 194q0 38 -26 74q-39 53 -123 53h-23l13 88q227 -6 221 -6q49 0 155 8l498 -712q76 -109 225 -328q26 150 80 450q15 76 39 230q19 145 19 160q0 105 -105 110h-35h-39l25 92q28 -1 138 -8q82 -6 134 -6q62 0 205 8zM938 -77
q0 -67 -36 -133q-51 -96 -140 -153q-63 -40 -193 -85l-38 52q120 106 120 238v9q142 36 281 101q6 -22 6 -29z" />
    <glyph glyph-name="ncedilla" unicode="&#x146;" 
d="M1218 181q-52 -39 -153 -112q-84 -55 -171 -76q-64 -17 -106 -17q-52 0 -88 27q-41 31 -41 83q0 24 14 79t26 76q108 325 108 396q0 55 -47 55q-56 0 -135 -74q-158 -151 -286 -601l-246 -42q56 213 109.5 424.5t53.5 247.5q0 60 -47 60q-34 0 -103 -59l-62 69q6 7 48 40
q240 189 371 189q72 0 72 -108q0 -82 -51 -259q79 124 211 232q153 125 266 125q58 0 100 -32q45 -35 45 -93q0 -48 -54 -222q-38 -118 -75 -236q-29 -101 -29 -122q0 -63 58 -63q43 0 158 92zM658 -77q0 -67 -36 -133q-51 -96 -140 -153q-63 -40 -193 -85l-38 52
q120 106 120 238v9q142 36 281 101q6 -22 6 -29z" />
    <glyph glyph-name="Ncaron" unicode="&#x147;" horiz-adv-x="1630" 
d="M1802 1456l-14 -94q-110 0 -156 -74q-36 -59 -88 -316q-33 -174 -65 -347q-45 -231 -131 -696h-23l-831 1208q-6 -26 -74 -422q-39 -224 -62 -400q-10 -79 -10 -122q0 -109 107 -109q9 0 30.5 1t34.5 1l-14 -87q-160 7 -230 7q13 0 -258 -6l21 90h24q61 0 97 31
q47 41 84 227q41 234 127 701q30 160 30 194q0 38 -26 74q-39 53 -123 53h-23l13 88q227 -6 221 -6q49 0 155 8l498 -712q76 -109 225 -328q26 150 80 450q15 76 39 230q19 145 19 160q0 105 -105 110h-35h-39l25 92q28 -1 138 -8q82 -6 134 -6q62 0 205 8zM1485 1837
q-111 -42 -210 -117q-112 -84 -157 -174h-227q22 59 22 112q0 106 -74 202l76 61q83 -47 155 -160q96 80 332 169z" />
    <glyph glyph-name="ncaron" unicode="&#x148;" 
d="M1218 181q-52 -39 -153 -112q-84 -55 -171 -76q-64 -17 -106 -17q-52 0 -88 27q-41 31 -41 83q0 24 14 79t26 76q108 325 108 396q0 55 -47 55q-56 0 -135 -74q-158 -151 -286 -601l-246 -42q56 213 109.5 424.5t53.5 247.5q0 60 -47 60q-34 0 -103 -59l-62 69q6 7 48 40
q240 189 371 189q72 0 72 -108q0 -82 -51 -259q79 124 211 232q153 125 266 125q58 0 100 -32q45 -35 45 -93q0 -48 -54 -222q-38 -118 -75 -236q-29 -101 -29 -122q0 -63 58 -63q43 0 158 92zM1201 1309q-111 -42 -210 -117q-112 -84 -157 -174h-227q22 59 22 112
q0 106 -74 202l76 61q83 -47 155 -160q96 80 332 169z" />
    <glyph glyph-name="napostrophe" unicode="&#x149;" 
d="M1218 181q-52 -39 -153 -112q-84 -55 -171 -76q-64 -17 -106 -17q-52 0 -88 27q-41 31 -41 83q0 24 14 79t26 76q108 325 108 396q0 55 -47 55q-56 0 -135 -74q-158 -151 -286 -601l-246 -42q56 213 109.5 424.5t53.5 247.5q0 60 -47 60q-34 0 -103 -59l-62 69q6 7 48 40
q240 189 371 189q72 0 72 -108q0 -82 -51 -259q79 124 211 232q153 125 266 125q58 0 100 -32q45 -35 45 -93q0 -48 -54 -222q-38 -118 -75 -236q-29 -101 -29 -122q0 -63 58 -63q43 0 158 92zM416 1462q0 -207 -249 -360l-52 70q95 90 95 196q0 102 -50 186q121 48 215 106
q41 -101 41 -198z" />
    <glyph glyph-name="Eng" unicode="&#x14a;" horiz-adv-x="1651" 
d="M1636 725q-62 -329 -284 -553q-196 -198 -375 -198q-116 0 -260 25l45 251h92q2 -100 15 -127q20 -39 94 -39q38 0 90 43q189 157 264 541q29 146 29 265q0 188 -66 267q-81 98 -238 98q-146 0 -370 -174q-84 -402 -146 -727q-30 -162 -30 -192q0 -115 100 -115h27
l-19 -90q-160 4 -299 4q-51 0 -153 -2t-155 -2l23 90q70 0 109 19q49 23 76 105q11 30 31 132l155 784q12 67 12 107q0 77 -39 104q-31 21 -108 21h-27l23 96q160 -14 272 -14q99 0 228 14q-14 -50 -43 -174q255 186 512 186q191 0 312 -147q123 -151 123 -399
q0 -95 -20 -199z" />
    <glyph glyph-name="eng" unicode="&#x14b;" horiz-adv-x="1118" 
d="M1124 797q0 -72 -43 -207l-106 -336q-75 -235 -204 -391q-157 -190 -343 -190q-41 0 -111 4l45 183h87q-13 -59 -13 -74q0 -33 33 -33q81 0 141 168q30 82 114 361q95 315 95 355q0 55 -53 55q-59 0 -135 -74q-169 -162 -291 -602l-248 -42q47 183 144 550q20 77 20 123
q0 60 -47 60q-33 0 -103 -60l-63 70q4 4 49 41q233 188 371 188q72 0 72 -108q0 -84 -52 -260q79 123 217 232q157 126 271 126q153 0 153 -139z" />
    <glyph glyph-name="Omacron" unicode="&#x14c;" horiz-adv-x="1800" 
d="M1806 723q0 -165 -77 -336q-93 -203 -304 -317q-195 -104 -432 -104q-347 0 -583 205q-246 216 -246 558q0 191 94 359q92 165 254 272q198 131 455 131q285 0 501 -142q227 -150 306 -413q32 -109 32 -213zM1507 764q0 168 -59 308q-68 160 -197 237q-116 69 -233 69
q-152 0 -291 -108q-124 -96 -194 -269q-66 -159 -66 -329q0 -228 116 -398q131 -192 347 -192q248 0 422 213q155 190 155 469zM1366 1591h-683v172h683v-172z" />
    <glyph glyph-name="omacron" unicode="&#x14d;" horiz-adv-x="1118" 
d="M1096 600q0 -150 -85 -299.5t-212 -232.5q-140 -90 -328 -90q-133 0 -229 59q-158 98 -158 285q0 159 97 325q80 139 225 217q140 76 305 76t271 -88q114 -93 114 -252zM831 651q0 199 -139 199q-80 0 -161 -77q-84 -79 -134 -228q-47 -135 -47 -264q0 -209 150 -209
q43 0 92 28q106 61 177 247q62 162 62 304zM1055 1122h-683v172h683v-172z" />
    <glyph glyph-name="Obreve" unicode="&#x14e;" horiz-adv-x="1800" 
d="M1806 723q0 -165 -77 -336q-93 -203 -304 -317q-195 -104 -432 -104q-347 0 -583 205q-246 216 -246 558q0 191 94 359q92 165 254 272q198 131 455 131q285 0 501 -142q227 -150 306 -413q32 -109 32 -213zM1507 764q0 168 -59 308q-68 160 -197 237q-116 69 -233 69
q-152 0 -291 -108q-124 -96 -194 -269q-66 -159 -66 -329q0 -228 116 -398q131 -192 347 -192q248 0 422 213q155 190 155 469zM1384 1896q-70 -165 -154 -228q-71 -55 -185 -55t-186 55q-84 63 -152 228l54 28q86 -118 284 -118q197 0 283 118z" />
    <glyph glyph-name="obreve" unicode="&#x14f;" horiz-adv-x="1118" 
d="M1096 600q0 -150 -85 -299.5t-212 -232.5q-140 -90 -328 -90q-133 0 -229 59q-158 98 -158 285q0 159 97 325q80 139 225 217q140 76 305 76t271 -88q114 -93 114 -252zM831 651q0 199 -139 199q-80 0 -161 -77q-84 -79 -134 -228q-47 -135 -47 -264q0 -209 150 -209
q43 0 92 28q106 61 177 247q62 162 62 304zM1091 1368q-70 -165 -154 -228q-71 -55 -185 -55t-186 55q-84 63 -152 228l54 28q86 -118 284 -118q197 0 283 118z" />
    <glyph glyph-name="Odblacute" unicode="&#x150;" horiz-adv-x="1800" 
d="M1806 723q0 -165 -77 -336q-93 -203 -304 -317q-195 -104 -432 -104q-347 0 -583 205q-246 216 -246 558q0 191 94 359q92 165 254 272q198 131 455 131q285 0 501 -142q227 -150 306 -413q32 -109 32 -213zM1507 764q0 168 -59 308q-68 160 -197 237q-116 69 -233 69
q-152 0 -291 -108q-124 -96 -194 -269q-66 -159 -66 -329q0 -228 116 -398q131 -192 347 -192q248 0 422 213q155 190 155 469zM1630 1825q-106 -121 -203 -181q-80 -50 -242 -109l-61 67q100 64 149 123t95 168q142 -49 262 -68zM1237 1825q-106 -121 -203 -181
q-80 -50 -242 -109l-60 67q100 64 148.5 123t94.5 168q141 -49 262 -68z" />
    <glyph glyph-name="odblacute" unicode="&#x151;" horiz-adv-x="1118" 
d="M1096 600q0 -150 -85 -299.5t-212 -232.5q-140 -90 -328 -90q-133 0 -229 59q-158 98 -158 285q0 159 97 325q80 139 225 217q140 76 305 76t271 -88q114 -93 114 -252zM831 651q0 199 -139 199q-80 0 -161 -77q-84 -79 -134 -228q-47 -135 -47 -264q0 -209 150 -209
q43 0 92 28q106 61 177 247q62 162 62 304zM1286 1297q-106 -121 -203 -181q-80 -50 -242 -109l-61 67q100 64 149 123t95 168q142 -49 262 -68zM893 1297q-106 -121 -203 -181q-80 -50 -242 -109l-60 67q100 64 148.5 123t94.5 168q141 -49 262 -68z" />
    <glyph glyph-name="OE" unicode="&#x152;" horiz-adv-x="2296" 
d="M2337 1460l-76 -336l-129 2q31 103 31 129q0 105 -240 105h-41q-113 0 -168 -2l-104 -529q84 1 250 5q56 2 80 7q50 9 72 32t36 98l102 -2q-36 -138 -47 -185q-24 -105 -32 -188l-105 2q21 56 21 72q0 31 -33 45q-49 20 -219 20q-24 0 -72 -1t-72 -1q-51 -267 -82 -418
q-12 -60 -12 -98q0 -64 25 -90q38 -41 184 -41q182 0 265 52q102 65 114 237h110q-40 -158 -75 -378h-660q-115 0 -280 -16.5t-299 -16.5h-11q-298 2 -502 198t-204 489q0 326 201 558q246 282 708 282q94 0 230 -15.5t221 -15.5q69 0 180 -2t135 -2q20 0 58.5 1t58.5 1
q33 0 98.5 -1t97.5 -1q54 0 185 4zM1391 1180q0 196 -314 196q-330 0 -492 -278q-118 -203 -118 -471q0 -230 117 -384q126 -163 331 -163q146 0 216 41q74 43 94 147l159 846q7 33 7 66z" />
    <glyph glyph-name="oe" unicode="&#x153;" horiz-adv-x="1520" 
d="M1540 782q0 -91 -76 -180q-62 -73 -155 -123q-130 -69 -355 -80q-20 -58 -20 -108q0 -144 151 -144q84 0 144 27q46 20 123 80l51 -74q-252 -199 -442 -199q-93 0 -148 34q-48 30 -100 110q-166 -151 -344 -151q-130 0 -209 86q-76 84 -76 214q0 108 55 225
q52 111 133 189q2 2 11 14l6 7q153 152 327 202q65 19 115 19q128 0 230 -144q186 152 360 152q219 0 219 -156zM1319 764q0 72 -74 72q-132 0 -272 -347q184 14 274 115q72 81 72 160zM788 705q0 45 -21 79q-25 37 -67 37q-31 0 -77 -30q-73 -49 -136 -164
q-118 -219 -118 -375q0 -54 22 -94q30 -54 84 -54q52 0 98 39q52 43 103 156q112 250 112 406z" />
    <glyph glyph-name="Racute" unicode="&#x154;" horiz-adv-x="1501" 
d="M1458 0q-82 -26 -194 -26q-181 0 -285 116q-62 70 -150 272q-75 177 -151 334h-84l-88 -428q-10 -52 -10 -75q0 -64 52 -85q34 -14 114 -14l-23 -95q-150 9 -264 9q-63 0 -190 -4.5t-192 -4.5l19 99q19 -2 45 -2q88 0 133 70q23 34 58 209l166 825q10 54 10 78
q0 84 -117 88h-14h-49l18 96q414 -12 610 -12h97q161 0 250 -37q172 -71 172 -256q0 -114 -72 -220q-68 -100 -173 -158q-76 -41 -175 -58q39 -92 127 -283q86 -178 153 -270q63 -86 158 -86q31 0 49 2v-84zM1110 1143q0 112 -70 172q-59 51 -198 51h-115l-115 -567
q78 -8 115 -8q263 0 346 198q37 88 37 154zM1110 1825q-106 -121 -203 -181q-80 -50 -243 -109l-60 67q100 64 148.5 123t94.5 168q142 -49 263 -68z" />
    <glyph glyph-name="racute" unicode="&#x155;" horiz-adv-x="819" 
d="M897 918q-76 -184 -80 -304q-41 4 -59 4q-164 0 -280 -226q-66 -129 -129 -375l-252 -42q37 148 102 372q13 63 43 187q16 62 16 99q0 53 -43 53q-31 0 -128 -71l-47 70q296 228 425 228q70 0 70 -92q0 -61 -44 -245q129 192 225 265q85 64 181 77zM803 1297
q-106 -121 -203 -181q-80 -50 -243 -109l-60 67q100 64 148.5 123t94.5 168q142 -49 263 -68z" />
    <glyph glyph-name="Rcedilla" unicode="&#x156;" horiz-adv-x="1501" 
d="M1458 0q-82 -26 -194 -26q-181 0 -285 116q-62 70 -150 272q-75 177 -151 334h-84l-88 -428q-10 -52 -10 -75q0 -64 52 -85q34 -14 114 -14l-23 -95q-150 9 -264 9q-63 0 -190 -4.5t-192 -4.5l19 99q19 -2 45 -2q88 0 133 70q23 34 58 209l166 825q10 54 10 78
q0 84 -117 88h-14h-49l18 96q414 -12 610 -12h97q161 0 250 -37q172 -71 172 -256q0 -114 -72 -220q-68 -100 -173 -158q-76 -41 -175 -58q39 -92 127 -283q86 -178 153 -270q63 -86 158 -86q31 0 49 2v-84zM1110 1143q0 112 -70 172q-59 51 -198 51h-115l-115 -567
q78 -8 115 -8q263 0 346 198q37 88 37 154zM826 -77q0 -67 -36 -133q-51 -96 -140 -153q-63 -40 -193 -85l-38 52q120 106 120 238v9q142 36 281 101q6 -22 6 -29z" />
    <glyph glyph-name="rcedilla" unicode="&#x157;" horiz-adv-x="819" 
d="M897 918q-76 -184 -80 -304q-41 4 -59 4q-164 0 -280 -226q-66 -129 -129 -375l-252 -42q37 148 102 372q13 63 43 187q16 62 16 99q0 53 -43 53q-31 0 -128 -71l-47 70q296 228 425 228q70 0 70 -92q0 -61 -44 -245q129 192 225 265q85 64 181 77zM468 -77
q0 -67 -36 -133q-51 -96 -140 -153q-63 -40 -193 -85l-38 52q120 106 120 238v9q142 36 281 101q6 -22 6 -29z" />
    <glyph glyph-name="Rcaron" unicode="&#x158;" horiz-adv-x="1501" 
d="M1458 0q-82 -26 -194 -26q-181 0 -285 116q-62 70 -150 272q-75 177 -151 334h-84l-88 -428q-10 -52 -10 -75q0 -64 52 -85q34 -14 114 -14l-23 -95q-150 9 -264 9q-63 0 -190 -4.5t-192 -4.5l19 99q19 -2 45 -2q88 0 133 70q23 34 58 209l166 825q10 54 10 78
q0 84 -117 88h-14h-49l18 96q414 -12 610 -12h97q161 0 250 -37q172 -71 172 -256q0 -114 -72 -220q-68 -100 -173 -158q-76 -41 -175 -58q39 -92 127 -283q86 -178 153 -270q63 -86 158 -86q31 0 49 2v-84zM1110 1143q0 112 -70 172q-59 51 -198 51h-115l-115 -567
q78 -8 115 -8q263 0 346 198q37 88 37 154zM1272 1837q-111 -42 -210 -117q-112 -84 -157 -174h-227q22 59 22 112q0 106 -74 202l76 61q83 -47 155 -160q96 80 332 169z" />
    <glyph glyph-name="rcaron" unicode="&#x159;" horiz-adv-x="819" 
d="M897 918q-76 -184 -80 -304q-41 4 -59 4q-164 0 -280 -226q-66 -129 -129 -375l-252 -42q37 148 102 372q13 63 43 187q16 62 16 99q0 53 -43 53q-31 0 -128 -71l-47 70q296 228 425 228q70 0 70 -92q0 -61 -44 -245q129 192 225 265q85 64 181 77zM961 1309
q-111 -42 -210 -117q-112 -84 -157 -174h-227q22 59 22 112q0 106 -74 202l76 61q83 -47 155 -160q96 80 332 169z" />
    <glyph glyph-name="Sacute" unicode="&#x15a;" horiz-adv-x="1118" 
d="M1108 1440l-45 -320h-117q8 66 8 92q0 72 -73 121q-65 43 -142 43q-109 0 -182 -59q-82 -67 -82 -162q0 -119 187 -223q219 -123 277 -175q132 -118 132 -292q0 -110 -65 -219q-162 -268 -549 -268q-123 0 -381 32l55 357h119q-6 -40 -6 -70q0 -106 74 -166
q68 -55 176 -55q116 0 203 67q94 73 94 185q0 145 -179 262q-87 53 -175 107q-103 66 -153 131q-65 86 -65 196q0 92 45 184q134 275 486 275q104 0 358 -43zM1012 1825q-106 -121 -203 -181q-80 -50 -243 -109l-60 67q100 64 148.5 123t94.5 168q142 -49 263 -68z" />
    <glyph glyph-name="sacute" unicode="&#x15b;" horiz-adv-x="903" 
d="M888 886l-62 -251l-139 6q9 45 9 64q0 56 -42.5 94.5t-100.5 38.5q-39 0 -71.5 -30.5t-32.5 -68.5q0 -73 114 -147q140 -91 170 -119q82 -78 82 -186q0 -104 -71 -183q-103 -115 -330 -115q-186 0 -380 49q40 155 59 276l157 -9q-4 -45 -4 -65q0 -74 50 -116
q46 -40 122 -40q57 0 99 34t42 89q0 83 -110 151q-147 90 -165 106q-79 70 -79 175q0 130 100.5 210.5t292.5 80.5q120 0 290 -44zM826 1297q-106 -121 -203 -181q-80 -50 -243 -109l-60 67q100 64 148.5 123t94.5 168q142 -49 263 -68z" />
    <glyph glyph-name="Scircumflex" unicode="&#x15c;" horiz-adv-x="1118" 
d="M1108 1440l-45 -320h-117q8 66 8 92q0 72 -73 121q-65 43 -142 43q-109 0 -182 -59q-82 -67 -82 -162q0 -119 187 -223q219 -123 277 -175q132 -118 132 -292q0 -110 -65 -219q-162 -268 -549 -268q-123 0 -381 32l55 357h119q-6 -40 -6 -70q0 -106 74 -166
q68 -55 176 -55q116 0 203 67q94 73 94 185q0 145 -179 262q-87 53 -175 107q-103 66 -153 131q-65 86 -65 196q0 92 45 184q134 275 486 275q104 0 358 -43zM1034 1598l-77 -64q-64 54 -85 75q-42 41 -70 89q-22 -17 -67 -49q-75 -48 -267 -122l-80 90q34 15 98 47
q176 97 268 248h224q-19 -67 -19 -108q0 -101 75 -206z" />
    <glyph glyph-name="scircumflex" unicode="&#x15d;" horiz-adv-x="903" 
d="M888 886l-62 -251l-139 6q9 45 9 64q0 56 -42.5 94.5t-100.5 38.5q-39 0 -71.5 -30.5t-32.5 -68.5q0 -73 114 -147q140 -91 170 -119q82 -78 82 -186q0 -104 -71 -183q-103 -115 -330 -115q-186 0 -380 49q40 155 59 276l157 -9q-4 -45 -4 -65q0 -74 50 -116
q46 -40 122 -40q57 0 99 34t42 89q0 83 -110 151q-147 90 -165 106q-79 70 -79 175q0 130 100.5 210.5t292.5 80.5q120 0 290 -44zM856 1070l-77 -64q-64 54 -85 75q-42 41 -70 89q-22 -17 -67 -49q-75 -48 -267 -122l-80 90q34 15 98 47q176 97 268 248h224
q-19 -67 -19 -108q0 -101 75 -206z" />
    <glyph glyph-name="Scedilla" unicode="&#x15e;" horiz-adv-x="1118" 
d="M1108 1440l-45 -320h-117q8 66 8 92q0 72 -73 121q-65 43 -142 43q-109 0 -182 -59q-82 -67 -82 -162q0 -119 187 -223q219 -123 277 -175q132 -118 132 -292q0 -110 -65 -219q-162 -268 -549 -268q-123 0 -381 32l55 357h119q-6 -40 -6 -70q0 -106 74 -166
q68 -55 176 -55q116 0 203 67q94 73 94 185q0 145 -179 262q-87 53 -175 107q-103 66 -153 131q-65 86 -65 196q0 92 45 184q134 275 486 275q104 0 358 -43zM648 -77q0 -67 -36 -133q-51 -96 -140 -153q-63 -40 -193 -85l-38 52q120 106 120 238v9q142 36 281 101
q6 -22 6 -29z" />
    <glyph glyph-name="scedilla" unicode="&#x15f;" horiz-adv-x="903" 
d="M888 886l-62 -251l-139 6q9 45 9 64q0 56 -42.5 94.5t-100.5 38.5q-39 0 -71.5 -30.5t-32.5 -68.5q0 -73 114 -147q140 -91 170 -119q82 -78 82 -186q0 -104 -71 -183q-103 -115 -330 -115q-186 0 -380 49q40 155 59 276l157 -9q-4 -45 -4 -65q0 -74 50 -116
q46 -40 122 -40q57 0 99 34t42 89q0 83 -110 151q-147 90 -165 106q-79 70 -79 175q0 130 100.5 210.5t292.5 80.5q120 0 290 -44zM539 -77q0 -67 -36 -133q-51 -96 -140 -153q-63 -40 -193 -85l-38 52q120 106 120 238v9q142 36 281 101q6 -22 6 -29z" />
    <glyph glyph-name="Scaron" unicode="&#x160;" horiz-adv-x="1118" 
d="M1108 1440l-45 -320h-117q8 66 8 92q0 72 -73 121q-65 43 -142 43q-109 0 -182 -59q-82 -67 -82 -162q0 -119 187 -223q219 -123 277 -175q132 -118 132 -292q0 -110 -65 -219q-162 -268 -549 -268q-123 0 -381 32l55 357h119q-6 -40 -6 -70q0 -106 74 -166
q68 -55 176 -55q116 0 203 67q94 73 94 185q0 145 -179 262q-87 53 -175 107q-103 66 -153 131q-65 86 -65 196q0 92 45 184q134 275 486 275q104 0 358 -43zM1227 1837q-111 -42 -210 -117q-112 -84 -157 -174h-227q22 59 22 112q0 106 -74 202l76 61q83 -47 155 -160
q96 80 332 169z" />
    <glyph glyph-name="scaron" unicode="&#x161;" horiz-adv-x="903" 
d="M888 886l-62 -251l-139 6q9 45 9 64q0 56 -42.5 94.5t-100.5 38.5q-39 0 -71.5 -30.5t-32.5 -68.5q0 -73 114 -147q140 -91 170 -119q82 -78 82 -186q0 -104 -71 -183q-103 -115 -330 -115q-186 0 -380 49q40 155 59 276l157 -9q-4 -45 -4 -65q0 -74 50 -116
q46 -40 122 -40q57 0 99 34t42 89q0 83 -110 151q-147 90 -165 106q-79 70 -79 175q0 130 100.5 210.5t292.5 80.5q120 0 290 -44zM1084 1309q-111 -42 -210 -117q-112 -84 -157 -174h-227q22 59 22 112q0 106 -74 202l76 61q83 -47 155 -160q96 80 332 169z" />
    <glyph glyph-name="Tcedilla" unicode="&#x162;" horiz-adv-x="1288" 
d="M1483 1458l-68 -338h-119q31 89 31 133q0 101 -178 101q-4 0 -176 -6q-79 -370 -191 -957q-30 -161 -30 -203q0 -87 118 -94h43h21l-31 -94q-174 10 -311 10q-113 0 -359 -11l23 101q114 4 156 47q32 34 54 122l28 134q62 318 188 953q-25 2 -70 2q-161 0 -234 -40
q-98 -53 -114 -200h-117l48 340q163 -4 237 -4q72 0 214 2t214 2h623zM709 -77q0 -67 -36 -133q-51 -96 -140 -153q-63 -40 -193 -85l-38 52q120 106 120 238v9q142 36 281 101q6 -22 6 -29z" />
    <glyph glyph-name="tcedilla" unicode="&#x163;" horiz-adv-x="606" 
d="M698 911l-27 -100h-162q-28 -118 -87 -353q-45 -172 -45 -210q0 -70 53 -70q37 0 144 94l58 -70q-230 -219 -411 -219q-48 0 -81.5 29.5t-33.5 77.5q0 69 29 182q25 91 49 182l91 357h-182l27 100h180l49 192q144 26 249 54l-62 -246h162zM432 -77q0 -67 -36 -133
q-51 -96 -140 -153q-63 -40 -193 -85l-38 52q120 106 120 238v9q142 36 281 101q6 -22 6 -29z" />
    <glyph glyph-name="Tcaron" unicode="&#x164;" horiz-adv-x="1288" 
d="M1483 1458l-68 -338h-119q31 89 31 133q0 101 -178 101q-4 0 -176 -6q-79 -370 -191 -957q-30 -161 -30 -203q0 -87 118 -94h43h21l-31 -94q-174 10 -311 10q-113 0 -359 -11l23 101q114 4 156 47q32 34 54 122l28 134q62 318 188 953q-25 2 -70 2q-161 0 -234 -40
q-98 -53 -114 -200h-117l48 340q163 -4 237 -4q72 0 214 2t214 2h623zM1322 1837q-111 -42 -210 -117q-112 -84 -157 -174h-227q22 59 22 112q0 106 -74 202l76 61q83 -47 155 -160q96 80 332 169z" />
    <glyph glyph-name="tcaron" unicode="&#x165;" horiz-adv-x="606" 
d="M698 911l-27 -100h-162q-28 -118 -87 -353q-45 -172 -45 -210q0 -70 53 -70q37 0 144 94l58 -70q-230 -219 -411 -219q-48 0 -81.5 29.5t-33.5 77.5q0 69 29 182q25 91 49 182l91 357h-182l27 100h180l49 192q144 26 249 54l-62 -246h162zM944 1462q0 -207 -249 -360
l-52 70q95 90 95 196q0 102 -50 186q121 48 215 106q41 -101 41 -198z" />
    <glyph glyph-name="Tbar" unicode="&#x166;" horiz-adv-x="1288" 
d="M1483 1458l-68 -338h-119q31 89 31 133q0 101 -178 101q-4 0 -176 -6q-62 -291 -136 -672h285l-22 -119h-286l-32 -166q-30 -160 -30 -203q0 -87 118 -94h43h21l-31 -94q-174 10 -311 10q-113 0 -359 -11l23 101q114 4 156 47q32 34 54 122l28 134l31 154h-275l22 119
h277l133 680q-25 2 -70 2q-161 0 -234 -40q-98 -53 -114 -200h-117l48 340q163 -4 237 -4q72 0 214 2t214 2h623z" />
    <glyph glyph-name="tbar" unicode="&#x167;" horiz-adv-x="606" 
d="M698 911l-27 -100h-162l-48 -199h170l-25 -104h-171l-13 -50q-45 -174 -45 -210q0 -70 53 -70q37 0 144 94l58 -70q-230 -219 -411 -219q-48 0 -81.5 29.5t-33.5 77.5q0 69 29 182q25 91 49 182l14 54h-118l24 104h121l50 199h-182l27 100h180l49 192q144 26 249 54
l-62 -246h162z" />
    <glyph glyph-name="Utilde" unicode="&#x168;" horiz-adv-x="1587" 
d="M1759 1462l-20 -88q-102 -4 -137 -47q-30 -36 -62 -180q-49 -221 -156 -660q-8 -35 -30 -104q-156 -413 -631 -413q-206 0 -348 107q-156 119 -156 318q0 76 49 324q29 151 88 455q13 60 13 94q0 77 -115 84q-37 2 -59 2l18 100q154 -14 256 -14q253 0 420 14l-21 -94
h-43q-75 0 -120 -37q-24 -20 -41 -51q-27 -50 -109 -500q-13 -65 -37 -194q-18 -107 -18 -162q0 -149 85 -238.5t234 -89.5q175 0 293 102q106 93 162 269q20 65 67 313l76 393q17 91 17 115q0 84 -113 88h-16h-45l16 90q115 -4 166 -4h135q33 0 89 3q68 4 93 5zM1438 1767
q0 -153 -67 -222q-49 -50 -125 -50q-70 0 -181.5 62.5t-150.5 62.5q-17 0 -39 -12q-37 -19 -41 -88h-108q0 117 53 195q60 91 170 91q63 0 134 -36q60 -35 121 -69q36 -20 58 -20q64 0 72 91h102v-9h-2z" />
    <glyph glyph-name="utilde" unicode="&#x169;" 
d="M1191 206q-60 -49 -191 -144q-128 -79 -216 -79q-102 0 -102 99q0 50 50 217q-88 -119 -216 -210q-149 -106 -266 -106q-51 0 -81 35t-30 84q0 70 37 207l58 208q30 122 30 136q0 58 -47 58q-35 0 -115 -74l-54 72q302 229 423 229q90 0 90 -94q0 -35 -39 -167
q-104 -354 -104 -411q0 -65 57 -65q29 0 80 40q205 163 318 662q87 14 257 57l-116 -447q-53 -210 -53 -253q0 -61 45 -61q30 0 70 30q29 26 59 51zM1091 1300q0 -153 -67 -222q-49 -50 -125 -50q-70 0 -181.5 62.5t-150.5 62.5q-17 0 -39 -12q-37 -19 -41 -88h-108
q0 117 53 195q60 91 170 91q63 0 134 -36q60 -35 121 -69q36 -20 58 -20q64 0 72 91h102v-9h-2z" />
    <glyph glyph-name="Umacron" unicode="&#x16a;" horiz-adv-x="1587" 
d="M1759 1462l-20 -88q-102 -4 -137 -47q-30 -36 -62 -180q-49 -221 -156 -660q-8 -35 -30 -104q-156 -413 -631 -413q-206 0 -348 107q-156 119 -156 318q0 76 49 324q29 151 88 455q13 60 13 94q0 77 -115 84q-37 2 -59 2l18 100q154 -14 256 -14q253 0 420 14l-21 -94
h-43q-75 0 -120 -37q-24 -20 -41 -51q-27 -50 -109 -500q-13 -65 -37 -194q-18 -107 -18 -162q0 -149 85 -238.5t234 -89.5q175 0 293 102q106 93 162 269q20 65 67 313l76 393q17 91 17 115q0 84 -113 88h-16h-45l16 90q115 -4 166 -4h135q33 0 89 3q68 4 93 5zM1434 1591
h-683v172h683v-172z" />
    <glyph glyph-name="umacron" unicode="&#x16b;" 
d="M1191 206q-60 -49 -191 -144q-128 -79 -216 -79q-102 0 -102 99q0 50 50 217q-88 -119 -216 -210q-149 -106 -266 -106q-51 0 -81 35t-30 84q0 70 37 207l58 208q30 122 30 136q0 58 -47 58q-35 0 -115 -74l-54 72q302 229 423 229q90 0 90 -94q0 -35 -39 -167
q-104 -354 -104 -411q0 -65 57 -65q29 0 80 40q205 163 318 662q87 14 257 57l-116 -447q-53 -210 -53 -253q0 -61 45 -61q30 0 70 30q29 26 59 51zM1098 1122h-683v172h683v-172z" />
    <glyph glyph-name="Ubreve" unicode="&#x16c;" horiz-adv-x="1587" 
d="M1759 1462l-20 -88q-102 -4 -137 -47q-30 -36 -62 -180q-49 -221 -156 -660q-8 -35 -30 -104q-156 -413 -631 -413q-206 0 -348 107q-156 119 -156 318q0 76 49 324q29 151 88 455q13 60 13 94q0 77 -115 84q-37 2 -59 2l18 100q154 -14 256 -14q253 0 420 14l-21 -94
h-43q-75 0 -120 -37q-24 -20 -41 -51q-27 -50 -109 -500q-13 -65 -37 -194q-18 -107 -18 -162q0 -149 85 -238.5t234 -89.5q175 0 293 102q106 93 162 269q20 65 67 313l76 393q17 91 17 115q0 84 -113 88h-16h-45l16 90q115 -4 166 -4h135q33 0 89 3q68 4 93 5zM1437 1896
q-70 -165 -154 -228q-71 -55 -185 -55t-186 55q-84 63 -152 228l54 28q86 -118 284 -118q197 0 283 118z" />
    <glyph glyph-name="ubreve" unicode="&#x16d;" 
d="M1191 206q-60 -49 -191 -144q-128 -79 -216 -79q-102 0 -102 99q0 50 50 217q-88 -119 -216 -210q-149 -106 -266 -106q-51 0 -81 35t-30 84q0 70 37 207l58 208q30 122 30 136q0 58 -47 58q-35 0 -115 -74l-54 72q302 229 423 229q90 0 90 -94q0 -35 -39 -167
q-104 -354 -104 -411q0 -65 57 -65q29 0 80 40q205 163 318 662q87 14 257 57l-116 -447q-53 -210 -53 -253q0 -61 45 -61q30 0 70 30q29 26 59 51zM1070 1368q-70 -165 -154 -228q-71 -55 -185 -55t-186 55q-84 63 -152 228l54 28q86 -118 284 -118q197 0 283 118z" />
    <glyph glyph-name="Uring" unicode="&#x16e;" horiz-adv-x="1587" 
d="M1759 1462l-20 -88q-102 -4 -137 -47q-30 -36 -62 -180q-49 -221 -156 -660q-8 -35 -30 -104q-156 -413 -631 -413q-206 0 -348 107q-156 119 -156 318q0 76 49 324q29 151 88 455q13 60 13 94q0 77 -115 84q-37 2 -59 2l18 100q154 -14 256 -14q253 0 420 14l-21 -94
h-43q-75 0 -120 -37q-24 -20 -41 -51q-27 -50 -109 -500q-13 -65 -37 -194q-18 -107 -18 -162q0 -149 85 -238.5t234 -89.5q175 0 293 102q106 93 162 269q20 65 67 313l76 393q17 91 17 115q0 84 -113 88h-16h-45l16 90q115 -4 166 -4h135q33 0 89 3q68 4 93 5zM1290 1755
q0 -89 -64 -153t-153 -64t-153 64t-64 153t64 153t153 64t153 -64t64 -153zM1187 1755q0 47 -33.5 80.5t-80.5 33.5q-48 0 -81.5 -33.5t-33.5 -80.5q0 -48 33.5 -81.5t81.5 -33.5q47 0 80.5 33.5t33.5 81.5z" />
    <glyph glyph-name="uring" unicode="&#x16f;" 
d="M1191 206q-60 -49 -191 -144q-128 -79 -216 -79q-102 0 -102 99q0 50 50 217q-88 -119 -216 -210q-149 -106 -266 -106q-51 0 -81 35t-30 84q0 70 37 207l58 208q30 122 30 136q0 58 -47 58q-35 0 -115 -74l-54 72q302 229 423 229q90 0 90 -94q0 -35 -39 -167
q-104 -354 -104 -411q0 -65 57 -65q29 0 80 40q205 163 318 662q87 14 257 57l-116 -447q-53 -210 -53 -253q0 -61 45 -61q30 0 70 30q29 26 59 51zM961 1227q0 -89 -64 -153t-153 -64t-153 64t-64 153t64 153t153 64t153 -64t64 -153zM858 1227q0 47 -33.5 80.5t-80.5 33.5
q-48 0 -81.5 -33.5t-33.5 -80.5q0 -48 33.5 -81.5t81.5 -33.5q47 0 80.5 33.5t33.5 81.5z" />
    <glyph glyph-name="Udblacute" unicode="&#x170;" horiz-adv-x="1587" 
d="M1759 1462l-20 -88q-102 -4 -137 -47q-30 -36 -62 -180q-49 -221 -156 -660q-8 -35 -30 -104q-156 -413 -631 -413q-206 0 -348 107q-156 119 -156 318q0 76 49 324q29 151 88 455q13 60 13 94q0 77 -115 84q-37 2 -59 2l18 100q154 -14 256 -14q253 0 420 14l-21 -94
h-43q-75 0 -120 -37q-24 -20 -41 -51q-27 -50 -109 -500q-13 -65 -37 -194q-18 -107 -18 -162q0 -149 85 -238.5t234 -89.5q175 0 293 102q106 93 162 269q20 65 67 313l76 393q17 91 17 115q0 84 -113 88h-16h-45l16 90q115 -4 166 -4h135q33 0 89 3q68 4 93 5zM1595 1825
q-106 -121 -203 -181q-80 -50 -242 -109l-61 67q100 64 149 123t95 168q142 -49 262 -68zM1202 1825q-106 -121 -203 -181q-80 -50 -242 -109l-60 67q100 64 148.5 123t94.5 168q141 -49 262 -68z" />
    <glyph glyph-name="udblacute" unicode="&#x171;" 
d="M1191 206q-60 -49 -191 -144q-128 -79 -216 -79q-102 0 -102 99q0 50 50 217q-88 -119 -216 -210q-149 -106 -266 -106q-51 0 -81 35t-30 84q0 70 37 207l58 208q30 122 30 136q0 58 -47 58q-35 0 -115 -74l-54 72q302 229 423 229q90 0 90 -94q0 -35 -39 -167
q-104 -354 -104 -411q0 -65 57 -65q29 0 80 40q205 163 318 662q87 14 257 57l-116 -447q-53 -210 -53 -253q0 -61 45 -61q30 0 70 30q29 26 59 51zM1259 1297q-106 -121 -203 -181q-80 -50 -242 -109l-61 67q100 64 149 123t95 168q142 -49 262 -68zM866 1297
q-106 -121 -203 -181q-80 -50 -242 -109l-60 67q100 64 148.5 123t94.5 168q141 -49 262 -68z" />
    <glyph glyph-name="Uogonek" unicode="&#x172;" horiz-adv-x="1587" 
d="M1759 1462l-20 -88q-102 -4 -137 -47q-30 -36 -62 -180q-49 -221 -156 -660q-8 -35 -30 -104q-156 -413 -631 -413q-206 0 -348 107q-156 119 -156 318q0 76 49 324q29 151 88 455q13 60 13 94q0 77 -115 84q-37 2 -59 2l18 100q154 -14 256 -14q253 0 420 14l-21 -94
h-43q-75 0 -120 -37q-24 -20 -41 -51q-27 -50 -109 -500q-13 -65 -37 -194q-18 -107 -18 -162q0 -149 85 -238.5t234 -89.5q175 0 293 102q106 93 162 269q20 65 67 313l76 393q17 91 17 115q0 84 -113 88h-16h-45l16 90q115 -4 166 -4h135q33 0 89 3q68 4 93 5zM949 -351
q-30 -40 -100 -69.5t-137 -29.5q-210 0 -210 170q0 96 114 188q93 75 188 100h90q-192 -153 -192 -269q0 -94 70 -94q78 0 135 53z" />
    <glyph glyph-name="uogonek" unicode="&#x173;" 
d="M1191 206q-60 -49 -191 -144q-128 -79 -216 -79q-102 0 -102 99q0 50 50 217q-88 -119 -216 -210q-149 -106 -266 -106q-51 0 -81 35t-30 84q0 70 37 207l58 208q30 122 30 136q0 58 -47 58q-35 0 -115 -74l-54 72q302 229 423 229q90 0 90 -94q0 -35 -39 -167
q-104 -354 -104 -411q0 -65 57 -65q29 0 80 40q205 163 318 662q87 14 257 57l-116 -447q-53 -210 -53 -253q0 -61 45 -61q30 0 70 30q29 26 59 51zM929 -351q-30 -40 -100 -69.5t-137 -29.5q-210 0 -210 170q0 96 114 188q93 75 188 100h90q-192 -153 -192 -269
q0 -94 70 -94q78 0 135 53z" />
    <glyph glyph-name="Wcircumflex" unicode="&#x174;" horiz-adv-x="1929" 
d="M2128 1454l-21 -88q-95 -17 -147 -78q-21 -24 -113 -190q-32 -59 -118 -226q-129 -246 -322 -600q-55 -99 -162 -300l-69 -43q-26 297 -117 989q-324 -628 -516 -952l-76 -45q-25 425 -82 1244q-5 71 -9 92q-11 53 -41 77.5t-140 35.5l16 86q176 -12 256 -12
q-14 0 360 12l-22 -96q-83 0 -111 -15q-41 -23 -41 -96q0 -3 9 -121q1 -28 8 -143q13 -178 39 -536q63 124 192 374q19 34 55 103q14 27 41 84q16 27 45 82q95 178 177 370l49 27l112 -1073q24 46 72 137q107 197 305 598q47 106 47 158q0 63 -86 63q-5 0 -15.5 -1t-16.5 -1
l20 90q150 -10 264 -10q43 0 158 4zM1503 1598l-77 -64q-64 54 -85 75q-42 41 -70 89q-22 -17 -67 -49q-75 -48 -267 -122l-80 90q34 15 98 47q176 97 268 248h224q-19 -67 -19 -108q0 -101 75 -206z" />
    <glyph glyph-name="wcircumflex" unicode="&#x175;" horiz-adv-x="1544" 
d="M1604 829q0 -72 -71 -206q-93 -180 -260 -356q-184 -193 -352 -263q-65 -26 -104 -26q-117 0 -117 133q0 66 29 167q7 17 16 54q-82 -118 -171 -204q-153 -147 -287 -147q-129 0 -129 125q0 66 36 201l56 204q26 108 26 126q0 61 -49 61q-32 0 -123 -73l-58 65
q84 81 200 150q140 84 225 84q96 0 96 -90q0 -34 -20 -111q-16 -57 -31 -114q-26 -92 -51 -185q-35 -127 -35 -180q0 -47 43 -47q70 0 202 184q153 216 210 497q51 8 150 29q31 8 99 24q-28 -117 -86 -348q-71 -281 -71 -335q0 -51 51 -51q29 0 77 38q96 75 189 214
q105 157 105 258q0 63 -47 63q-3 0 -54 -22l-31 81q163 107 234 107q103 0 103 -107zM1241 1070l-77 -64q-64 54 -85 75q-42 41 -70 89q-22 -17 -67 -49q-75 -48 -267 -122l-80 90q34 15 98 47q176 97 268 248h224q-19 -67 -19 -108q0 -101 75 -206z" />
    <glyph glyph-name="Ycircumflex" unicode="&#x176;" horiz-adv-x="1417" 
d="M1618 1473l-21 -97q-105 -5 -170 -71q-14 -15 -100 -138q-135 -191 -401 -577q-16 -82 -47 -244q-29 -143 -29 -160q0 -88 119 -88h4q16 0 65 4l-24 -100q-30 0 -86.5 1t-83.5 1q-164 0 -504 -7l16 91h39q87 0 125 39q35 36 55 135q22 107 58 305q-78 221 -246 660
q-36 87 -88 114q-23 13 -63 13h-39l18 100q297 -10 352 -10q36 0 246 10l-14 -92q-8 0 -20.5 1t-16.5 1q-74 0 -74 -68q0 -27 39 -129q23 -57 68 -172q32 -94 100 -280q7 9 20 26q14 23 41 66q41 61 86 137q58 91 170 277q39 67 39 98q0 52 -61 55q-12 2 -39 2l14 90
q140 -4 203 -4q140 0 250 11zM1235 1598l-77 -64q-64 54 -85 75q-42 41 -70 89q-22 -17 -67 -49q-75 -48 -267 -122l-80 90q34 15 98 47q176 97 268 248h224q-19 -67 -19 -108q0 -101 75 -206z" />
    <glyph glyph-name="ycircumflex" unicode="&#x177;" horiz-adv-x="1075" 
d="M1114 831q0 -89 -148 -335q-104 -174 -217 -326q-177 -239 -318 -383q-144 -146 -302 -146q-55 0 -137 32q23 135 29 252h81v-9.5v-9.5q0 -41 16 -62q34 -46 103 -46q128 0 219 124q-67 258 -102 403q-23 101 -78 303q-28 91 -82 91q-30 0 -85 -61l-64 50q61 77 138 143
q104 89 165 89q42 0 74 -30q43 -40 96 -235q44 -166 126 -525q281 452 281 546q0 66 -57 66q-24 0 -75 -28l-41 64q204 140 276 140q44 0 73 -31.5t29 -75.5zM946 1070l-77 -64q-64 54 -85 75q-42 41 -70 89q-22 -17 -67 -49q-75 -48 -267 -122l-80 90q34 15 98 47
q176 97 268 248h224q-19 -67 -19 -108q0 -101 75 -206z" />
    <glyph glyph-name="Ydieresis" unicode="&#x178;" horiz-adv-x="1417" 
d="M1618 1473l-21 -97q-105 -5 -170 -71q-14 -15 -100 -138q-135 -191 -401 -577q-16 -82 -47 -244q-29 -143 -29 -160q0 -88 119 -88h4q16 0 65 4l-24 -100q-30 0 -86.5 1t-83.5 1q-164 0 -504 -7l16 91h39q87 0 125 39q35 36 55 135q22 107 58 305q-78 221 -246 660
q-36 87 -88 114q-23 13 -63 13h-39l18 100q297 -10 352 -10q36 0 246 10l-14 -92q-8 0 -20.5 1t-16.5 1q-74 0 -74 -68q0 -27 39 -129q23 -57 68 -172q32 -94 100 -280q7 9 20 26q14 23 41 66q41 61 86 137q58 91 170 277q39 67 39 98q0 52 -61 55q-12 2 -39 2l14 90
q140 -4 203 -4q140 0 250 11zM1333 1707q0 -64 -50 -113t-114 -49q-106 0 -106 117q0 8 10 44q15 52 58.5 87t97.5 35q46 0 75 -37t29 -84zM889 1713q0 -66 -53.5 -116t-120.5 -50q-95 0 -95 115q0 68 47 119t113 51q48 0 78.5 -35t30.5 -84z" />
    <glyph glyph-name="Zacute" unicode="&#x179;" horiz-adv-x="1374" 
d="M1466 1464q-343 -452 -1024 -1355q123 1 371 10q117 6 157 15q84 17 140 71q62 59 111 166h102l-76 -371q-241 4 -717 4q-53 0 -160 -1t-161 -1q-59 0 -207 -3q17 23 76 99q46 62 139 185q131 171 455 600q68 92 207 276q49 64 145 193h-113q-366 0 -467 -78
q-64 -50 -102 -164l-113 6l64 350q264 -6 254 -6q57 0 173 1t173 1q56 0 169 -1t169 -1q151 0 235 4zM1172 1825q-106 -121 -203 -181q-80 -50 -243 -109l-60 67q100 64 148.5 123t94.5 168q142 -49 263 -68z" />
    <glyph glyph-name="zacute" unicode="&#x17a;" horiz-adv-x="903" 
d="M936 918l-572 -820h75q131 0 196 21q115 36 155 162h102l-76 -281h-816l580 831h-88q-142 0 -194 -50q-30 -28 -66 -113h-117q42 113 79 243zM852 1297q-106 -121 -203 -181q-80 -50 -243 -109l-60 67q100 64 148.5 123t94.5 168q142 -49 263 -68z" />
    <glyph glyph-name="Zdot" unicode="&#x17b;" horiz-adv-x="1374" 
d="M1466 1464q-343 -452 -1024 -1355q123 1 371 10q117 6 157 15q84 17 140 71q62 59 111 166h102l-76 -371q-241 4 -717 4q-53 0 -160 -1t-161 -1q-59 0 -207 -3q17 23 76 99q46 62 139 185q131 171 455 600q68 92 207 276q49 64 145 193h-113q-366 0 -467 -78
q-64 -50 -102 -164l-113 6l64 350q264 -6 254 -6q57 0 173 1t173 1q56 0 169 -1t169 -1q151 0 235 4zM1041 1753q0 -57 -40 -97.5t-97 -40.5t-97.5 40.5t-40.5 97.5t40.5 97t97.5 40t97 -40t40 -97z" />
    <glyph glyph-name="zdot" unicode="&#x17c;" horiz-adv-x="903" 
d="M936 918l-572 -820h75q131 0 196 21q115 36 155 162h102l-76 -281h-816l580 831h-88q-142 0 -194 -50q-30 -28 -66 -113h-117q42 113 79 243zM746 1225q0 -57 -40 -97.5t-97 -40.5t-97.5 40.5t-40.5 97.5t40.5 97t97.5 40t97 -40t40 -97z" />
    <glyph glyph-name="Zcaron" unicode="&#x17d;" horiz-adv-x="1374" 
d="M1466 1464q-343 -452 -1024 -1355q123 1 371 10q117 6 157 15q84 17 140 71q62 59 111 166h102l-76 -371q-241 4 -717 4q-53 0 -160 -1t-161 -1q-59 0 -207 -3q17 23 76 99q46 62 139 185q131 171 455 600q68 92 207 276q49 64 145 193h-113q-366 0 -467 -78
q-64 -50 -102 -164l-113 6l64 350q264 -6 254 -6q57 0 173 1t173 1q56 0 169 -1t169 -1q151 0 235 4zM1371 1837q-111 -42 -210 -117q-112 -84 -157 -174h-227q22 59 22 112q0 106 -74 202l76 61q83 -47 155 -160q96 80 332 169z" />
    <glyph glyph-name="zcaron" unicode="&#x17e;" horiz-adv-x="903" 
d="M936 918l-572 -820h75q131 0 196 21q115 36 155 162h102l-76 -281h-816l580 831h-88q-142 0 -194 -50q-30 -28 -66 -113h-117q42 113 79 243zM1064 1309q-111 -42 -210 -117q-112 -84 -157 -174h-227q22 59 22 112q0 106 -74 202l76 61q83 -47 155 -160q96 80 332 169z
" />
    <glyph glyph-name="florin" unicode="&#x192;" horiz-adv-x="1147" 
d="M1328 1417l-78 -241h-124q33 81 33 129q0 36 -28.5 62t-67.5 26q-102 0 -169 -125q-63 -118 -117 -389h302l-36 -111h-294l-135 -464q-104 -360 -278 -548q-168 -181 -382 -181q-54 0 -81 5q20 71 47 224h36q0 -118 85 -118q148 0 252 368l201 714h-299l35 111h289
l53 185q119 423 491 423q139 0 265 -70z" />
    <glyph glyph-name="Aringacute" unicode="&#x1fa;" horiz-adv-x="1458" 
d="M1436 94l-25 -94q-139 6 -410 6h-204l26 94q36 0 95 13q30 17 30 77q0 52 -26 308h-404l-115 -195q-65 -110 -65 -147q0 -62 74 -62q6 0 18.5 -1t20.5 -1l-23 -93q-164 7 -235 7q-38 0 -115 -3.5t-118 -3.5l23 93q79 0 136 43q29 22 102 137q235 368 378.5 583t430.5 652
l76 4l117 -1210q6 -74 10 -92q12 -61 41 -84q40 -33 106 -33q11 0 29 1t27 1zM909 629l-37 440l-274 -440h311zM1325 1755q0 -89 -64 -153t-153 -64t-153 64t-64 153t64 153t153 64t153 -64t64 -153zM1222 1755q0 47 -33.5 80.5t-80.5 33.5q-48 0 -81.5 -33.5t-33.5 -80.5
q0 -48 33.5 -81.5t81.5 -33.5q47 0 80.5 33.5t33.5 81.5zM1029 2065q-106 -121 -203 -181q-80 -50 -243 -109l-60 67q100 64 148.5 123t94.5 168q142 -49 263 -68z" />
    <glyph glyph-name="aringacute" unicode="&#x1fb;" 
d="M1195 194q-84 -82 -182 -142q-122 -74 -208 -74q-137 0 -137 147q0 49 14 115q-221 -262 -434 -262q-91 0 -145 57q-52 55 -52 147q0 110 72 254q61 122 148 224q142 166 305 227q117 43 342 43q71 0 216 -4q-198 -595 -198 -707q0 -53 41 -53q38 0 158 104zM859 827
q-6 1 -23 2h-23q-76 0 -129 -26q-185 -90 -301 -405q-37 -99 -37 -156q0 -90 82 -90q69 0 173 121q155 181 258 554zM1079 1227q0 -89 -64 -153t-153 -64t-153 64t-64 153t64 153t153 64t153 -64t64 -153zM976 1227q0 47 -33.5 80.5t-80.5 33.5q-48 0 -81.5 -33.5
t-33.5 -80.5q0 -48 33.5 -81.5t81.5 -33.5q47 0 80.5 33.5t33.5 81.5zM809 1584q-106 -121 -203 -181q-80 -50 -243 -109l-60 67q100 64 148.5 123t94.5 168q142 -49 263 -68z" />
    <glyph glyph-name="AEacute" unicode="&#x1fc;" horiz-adv-x="2183" 
d="M2224 1454l-67 -332h-113q27 76 27 109q0 83 -70 109q-41 16 -141 16h-234l-106 -531h65q177 0 273 21q36 8 59 28q22 24 29 80h92q-40 -148 -72 -358l-94 2q10 51 10 64q0 69 -131 69h-92q-107 0 -158 -2l-61 -299q-37 -176 -37 -235q0 -71 59 -93q34 -12 137 -12
t179 16q105 23 158 95q43 59 69 180l104 -2q-15 -70 -45 -207q-5 -24 -30 -172l-1008 2q8 0 -176 -5l18 97h6q132 0 170 27q46 32 77 141q9 29 36 164l62 303l-392 -2q-23 -28 -364 -467q-64 -82 -64 -115q0 -55 66 -55q14 0 67 4l-32 -99q-127 9 -226 9q-110 0 -281 -7
l15 91q68 5 150 62q104 72 218 200q94 114 189 228q86 101 146 178q18 24 55 71q78 96 281 347q83 104 83 141q0 47 -83 47h-89l19 94q242 -4 444 -4zM1358 1368h-21q-12 -17 -358 -450q-27 -34 -80 -99h338zM1807 1825q-106 -121 -203 -181q-80 -50 -243 -109l-60 67
q100 64 148.5 123t94.5 168q142 -49 263 -68z" />
    <glyph glyph-name="aeacute" unicode="&#x1fd;" horiz-adv-x="1548" 
d="M1569 772q0 -133 -185 -250q-148 -94 -389 -127q-6 -37 -6 -73q0 -158 166 -158q118 0 229 98l56 -86q-281 -198 -486 -198q-221 0 -221 215q0 34 8 100q-271 -315 -481 -315q-93 0 -152 65q-57 63 -57 158q0 168 150 366q169 225 358 303q103 43 219 53q24 2 223 5
q47 0 148 9q96 7 145 7q275 0 275 -172zM1341 788q0 76 -63 76q-21 0 -55 -16q-131 -62 -207 -359q95 4 155 35.5t113 108.5q57 84 57 155zM893 825q-16 2 -47 2q-171 0 -326 -170q-70 -76 -124 -182q-62 -121 -62 -207t76 -86q91 0 200 103q103 96 176 251q47 100 107 289z
M1288 1297q-106 -121 -203 -181q-80 -50 -243 -109l-60 67q100 64 148.5 123t94.5 168q142 -49 263 -68z" />
    <glyph glyph-name="Oslashacute" unicode="&#x1fe;" horiz-adv-x="1800" 
d="M1833 1446l-234 -207q205 -224 205 -514q0 -179 -78 -340q-100 -208 -307 -318q-192 -101 -436 -101q-316 0 -582 210l-200 -176h-135l272 244q-172 211 -172 489q0 179 78 328q109 209 304 321q190 109 429 109q321 0 555 -191l164 146h137zM1393 1176
q-150 204 -373 204q-90 0 -188 -45q-94 -43 -160 -110q-97 -99 -154 -257q-53 -149 -53 -296q0 -133 49 -275zM1509 766q0 132 -39 254q-9 28 -32 76l-883 -781q134 -233 373 -233q163 0 299 96q174 124 239 320q43 129 43 268zM1286 1825q-106 -121 -203 -181
q-80 -50 -243 -109l-60 67q100 64 148.5 123t94.5 168q142 -49 263 -68z" />
    <glyph glyph-name="oslashacute" unicode="&#x1ff;" horiz-adv-x="1118" 
d="M1094 596q0 -148 -86 -298.5t-213 -233.5q-133 -86 -330 -86q-92 0 -173 31l-87 -121h-97q66 86 118 160q-144 100 -144 278q0 165 97 319q52 84 93 122q55 51 96 78q152 97 341 97q84 0 158 -26l94 124h92l-115 -154q156 -100 156 -290zM791 812q-46 36 -101 36
q-124 0 -218 -144q-72 -110 -106 -260q-20 -91 -20 -143q0 -32 3 -83q75 100 225 301q71 99 217 293zM831 655q0 41 -4 82l-445 -606q44 -59 116 -59q108 0 199 131q59 85 98 217q36 127 36 235zM940 1297q-106 -121 -203 -181q-80 -50 -243 -109l-60 67q100 64 148.5 123
t94.5 168q142 -49 263 -68z" />
    <glyph glyph-name="circumflex" unicode="&#x2c6;" horiz-adv-x="578" 
d="M612 1070l-77 -64q-64 54 -85 75q-42 41 -70 89q-22 -17 -67 -49q-75 -48 -267 -122l-80 90q34 15 98 47q176 97 268 248h224q-19 -67 -19 -108q0 -101 75 -206z" />
    <glyph glyph-name="caron" unicode="&#x2c7;" horiz-adv-x="578" 
d="M613 1309q-111 -42 -210 -117q-112 -84 -157 -174h-227q22 59 22 112q0 106 -74 202l76 61q83 -47 155 -160q96 80 332 169z" />
    <glyph glyph-name="breve" unicode="&#x2d8;" horiz-adv-x="578" 
d="M628 1368q-70 -165 -154 -228q-71 -55 -185 -55t-186 55q-84 63 -152 228l54 28q86 -118 284 -118q197 0 283 118z" />
    <glyph glyph-name="dotaccent" unicode="&#x2d9;" horiz-adv-x="578" 
d="M590 1225q0 -57 -40 -97.5t-97 -40.5t-97.5 40.5t-40.5 97.5t40.5 97t97.5 40t97 -40t40 -97z" />
    <glyph glyph-name="ring" unicode="&#x2da;" horiz-adv-x="578" 
d="M506 1227q0 -89 -64 -153t-153 -64t-153 64t-64 153t64 153t153 64t153 -64t64 -153zM403 1227q0 47 -33.5 80.5t-80.5 33.5q-48 0 -81.5 -33.5t-33.5 -80.5q0 -48 33.5 -81.5t81.5 -33.5q47 0 80.5 33.5t33.5 81.5z" />
    <glyph glyph-name="ogonek" unicode="&#x2db;" horiz-adv-x="578" 
d="M513 -351q-30 -40 -100 -69.5t-137 -29.5q-210 0 -210 170q0 96 114 188q93 75 188 100h90q-192 -153 -192 -269q0 -94 70 -94q78 0 135 53z" />
    <glyph glyph-name="tilde" unicode="&#x2dc;" horiz-adv-x="578" 
d="M645 1300q0 -153 -67 -222q-49 -50 -125 -50q-70 0 -181.5 62.5t-150.5 62.5q-17 0 -39 -12q-37 -19 -41 -88h-108q0 117 53 195q60 91 170 91q63 0 134 -36q60 -35 121 -69q36 -20 58 -20q64 0 72 91h102v-9h-2z" />
    <glyph glyph-name="hungarumlaut" unicode="&#x2dd;" horiz-adv-x="578" 
d="M739 1297q-106 -121 -203 -181q-80 -50 -242 -109l-61 67q100 64 149 123t95 168q142 -49 262 -68zM346 1297q-106 -121 -203 -181q-80 -50 -242 -109l-60 67q100 64 148.5 123t94.5 168q141 -49 262 -68z" />
    <glyph glyph-name="pi" unicode="&#x3c0;" horiz-adv-x="2056" 
 />
    <glyph glyph-name="Wgrave" unicode="&#x1e80;" horiz-adv-x="1929" 
d="M2128 1454l-21 -88q-95 -17 -147 -78q-21 -24 -113 -190q-32 -59 -118 -226q-129 -246 -322 -600q-55 -99 -162 -300l-69 -43q-26 297 -117 989q-324 -628 -516 -952l-76 -45q-25 425 -82 1244q-5 71 -9 92q-11 53 -41 77.5t-140 35.5l16 86q176 -12 256 -12
q-14 0 360 12l-22 -96q-83 0 -111 -15q-41 -23 -41 -96q0 -3 9 -121q1 -28 8 -143q13 -178 39 -536q63 124 192 374q19 34 55 103q14 27 41 84q16 27 45 82q95 178 177 370l49 27l112 -1073q24 46 72 137q107 197 305 598q47 106 47 158q0 63 -86 63q-5 0 -15.5 -1t-16.5 -1
l20 90q150 -10 264 -10q43 0 158 4zM1469 1610l-68 -73q-21 4 -79 28q-120 49 -200 108q-73 54 -171 160q134 24 272 72q66 -157 173 -243q23 -17 73 -52z" />
    <glyph glyph-name="wgrave" unicode="&#x1e81;" horiz-adv-x="1544" 
d="M1604 829q0 -72 -71 -206q-93 -180 -260 -356q-184 -193 -352 -263q-65 -26 -104 -26q-117 0 -117 133q0 66 29 167q7 17 16 54q-82 -118 -171 -204q-153 -147 -287 -147q-129 0 -129 125q0 66 36 201l56 204q26 108 26 126q0 61 -49 61q-32 0 -123 -73l-58 65
q84 81 200 150q140 84 225 84q96 0 96 -90q0 -34 -20 -111q-16 -57 -31 -114q-26 -92 -51 -185q-35 -127 -35 -180q0 -47 43 -47q70 0 202 184q153 216 210 497q51 8 150 29q31 8 99 24q-28 -117 -86 -348q-71 -281 -71 -335q0 -51 51 -51q29 0 77 38q96 75 189 214
q105 157 105 258q0 63 -47 63q-3 0 -54 -22l-31 81q163 107 234 107q103 0 103 -107zM1241 1082l-68 -73q-21 4 -79 28q-120 49 -200 108q-73 54 -171 160q134 24 272 72q66 -157 173 -243q23 -17 73 -52z" />
    <glyph glyph-name="Wacute" unicode="&#x1e82;" horiz-adv-x="1929" 
d="M2128 1454l-21 -88q-95 -17 -147 -78q-21 -24 -113 -190q-32 -59 -118 -226q-129 -246 -322 -600q-55 -99 -162 -300l-69 -43q-26 297 -117 989q-324 -628 -516 -952l-76 -45q-25 425 -82 1244q-5 71 -9 92q-11 53 -41 77.5t-140 35.5l16 86q176 -12 256 -12
q-14 0 360 12l-22 -96q-83 0 -111 -15q-41 -23 -41 -96q0 -3 9 -121q1 -28 8 -143q13 -178 39 -536q63 124 192 374q19 34 55 103q14 27 41 84q16 27 45 82q95 178 177 370l49 27l112 -1073q24 46 72 137q107 197 305 598q47 106 47 158q0 63 -86 63q-5 0 -15.5 -1t-16.5 -1
l20 90q150 -10 264 -10q43 0 158 4zM1475 1825q-106 -121 -203 -181q-80 -50 -243 -109l-60 67q100 64 148.5 123t94.5 168q142 -49 263 -68z" />
    <glyph glyph-name="wacute" unicode="&#x1e83;" horiz-adv-x="1544" 
d="M1604 829q0 -72 -71 -206q-93 -180 -260 -356q-184 -193 -352 -263q-65 -26 -104 -26q-117 0 -117 133q0 66 29 167q7 17 16 54q-82 -118 -171 -204q-153 -147 -287 -147q-129 0 -129 125q0 66 36 201l56 204q26 108 26 126q0 61 -49 61q-32 0 -123 -73l-58 65
q84 81 200 150q140 84 225 84q96 0 96 -90q0 -34 -20 -111q-16 -57 -31 -114q-26 -92 -51 -185q-35 -127 -35 -180q0 -47 43 -47q70 0 202 184q153 216 210 497q51 8 150 29q31 8 99 24q-28 -117 -86 -348q-71 -281 -71 -335q0 -51 51 -51q29 0 77 38q96 75 189 214
q105 157 105 258q0 63 -47 63q-3 0 -54 -22l-31 81q163 107 234 107q103 0 103 -107zM1229 1297q-106 -121 -203 -181q-80 -50 -243 -109l-60 67q100 64 148.5 123t94.5 168q142 -49 263 -68z" />
    <glyph glyph-name="Wdieresis" unicode="&#x1e84;" horiz-adv-x="1929" 
d="M2128 1454l-21 -88q-95 -17 -147 -78q-21 -24 -113 -190q-32 -59 -118 -226q-129 -246 -322 -600q-55 -99 -162 -300l-69 -43q-26 297 -117 989q-324 -628 -516 -952l-76 -45q-25 425 -82 1244q-5 71 -9 92q-11 53 -41 77.5t-140 35.5l16 86q176 -12 256 -12
q-14 0 360 12l-22 -96q-83 0 -111 -15q-41 -23 -41 -96q0 -3 9 -121q1 -28 8 -143q13 -178 39 -536q63 124 192 374q19 34 55 103q14 27 41 84q16 27 45 82q95 178 177 370l49 27l112 -1073q24 46 72 137q107 197 305 598q47 106 47 158q0 63 -86 63q-5 0 -15.5 -1t-16.5 -1
l20 90q150 -10 264 -10q43 0 158 4zM1581 1714q0 -64 -50 -113t-114 -49q-106 0 -106 117q0 8 10 44q15 52 58.5 87t97.5 35q46 0 75 -37t29 -84zM1137 1720q0 -66 -53.5 -116t-120.5 -50q-95 0 -95 115q0 68 47 119t113 51q48 0 78.5 -35t30.5 -84z" />
    <glyph glyph-name="wdieresis" unicode="&#x1e85;" horiz-adv-x="1544" 
d="M1604 829q0 -72 -71 -206q-93 -180 -260 -356q-184 -193 -352 -263q-65 -26 -104 -26q-117 0 -117 133q0 66 29 167q7 17 16 54q-82 -118 -171 -204q-153 -147 -287 -147q-129 0 -129 125q0 66 36 201l56 204q26 108 26 126q0 61 -49 61q-32 0 -123 -73l-58 65
q84 81 200 150q140 84 225 84q96 0 96 -90q0 -34 -20 -111q-16 -57 -31 -114q-26 -92 -51 -185q-35 -127 -35 -180q0 -47 43 -47q70 0 202 184q153 216 210 497q51 8 150 29q31 8 99 24q-28 -117 -86 -348q-71 -281 -71 -335q0 -51 51 -51q29 0 77 38q96 75 189 214
q105 157 105 258q0 63 -47 63q-3 0 -54 -22l-31 81q163 107 234 107q103 0 103 -107zM1384 1247q0 -64 -50 -113t-114 -49q-106 0 -106 117q0 8 10 44q15 52 58.5 87t97.5 35q46 0 75 -37t29 -84zM940 1253q0 -66 -53.5 -116t-120.5 -50q-95 0 -95 115q0 68 47 119t113 51
q48 0 78.5 -35t30.5 -84z" />
    <glyph glyph-name="Ygrave" unicode="&#x1ef2;" horiz-adv-x="1417" 
d="M1618 1473l-21 -97q-105 -5 -170 -71q-14 -15 -100 -138q-135 -191 -401 -577q-16 -82 -47 -244q-29 -143 -29 -160q0 -88 119 -88h4q16 0 65 4l-24 -100q-30 0 -86.5 1t-83.5 1q-164 0 -504 -7l16 91h39q87 0 125 39q35 36 55 135q22 107 58 305q-78 221 -246 660
q-36 87 -88 114q-23 13 -63 13h-39l18 100q297 -10 352 -10q36 0 246 10l-14 -92q-8 0 -20.5 1t-16.5 1q-74 0 -74 -68q0 -27 39 -129q23 -57 68 -172q32 -94 100 -280q7 9 20 26q14 23 41 66q41 61 86 137q58 91 170 277q39 67 39 98q0 52 -61 55q-12 2 -39 2l14 90
q140 -4 203 -4q140 0 250 11zM1170 1610l-68 -73q-21 4 -79 28q-120 49 -200 108q-73 54 -171 160q134 24 272 72q66 -157 173 -243q23 -17 73 -52z" />
    <glyph glyph-name="ygrave" unicode="&#x1ef3;" horiz-adv-x="1075" 
d="M1114 831q0 -89 -148 -335q-104 -174 -217 -326q-177 -239 -318 -383q-144 -146 -302 -146q-55 0 -137 32q23 135 29 252h81v-9.5v-9.5q0 -41 16 -62q34 -46 103 -46q128 0 219 124q-67 258 -102 403q-23 101 -78 303q-28 91 -82 91q-30 0 -85 -61l-64 50q61 77 138 143
q104 89 165 89q42 0 74 -30q43 -40 96 -235q44 -166 126 -525q281 452 281 546q0 66 -57 66q-24 0 -75 -28l-41 64q204 140 276 140q44 0 73 -31.5t29 -75.5zM905 1082l-68 -73q-21 4 -79 28q-120 49 -200 108q-73 54 -171 160q134 24 272 72q66 -157 173 -243
q23 -17 73 -52z" />
    <glyph glyph-name="endash" unicode="&#x2013;" 
d="M1135 600l-42 -227h-977l47 227h972z" />
    <glyph glyph-name="emdash" unicode="&#x2014;" horiz-adv-x="1374" 
d="M1470 537h-1374v129h1374v-129z" />
    <glyph glyph-name="quoteleft" unicode="&#x2018;" horiz-adv-x="391" 
d="M592 1437q-156 -105 -156 -231q0 -68 60 -155q-109 -47 -285 -143q-41 110 -41 169q0 235 370 429z" />
    <glyph glyph-name="quoteright" unicode="&#x2019;" horiz-adv-x="391" 
d="M537 1327q0 -118 -85 -222q-42 -50 -132 -116q-93 -67 -156 -91l-51 70q157 102 157 230q0 75 -59 155q113 46 285 144q41 -101 41 -170z" />
    <glyph glyph-name="quotesinglbase" unicode="&#x201a;" horiz-adv-x="522" 
d="M381 170q0 -131 -116 -244q-73 -72 -230 -165l-35 50q147 102 147 240q0 66 -59 152q120 54 256 129q37 -111 37 -162z" />
    <glyph glyph-name="quotedblleft" unicode="&#x201c;" horiz-adv-x="733" 
d="M911 1442q-151 -93 -151 -236q0 -67 57 -151q-90 -39 -262 -123q-31 99 -31 162q0 96 73 189q64 82 214 175q21 11 67 39zM534 1445q-149 -109 -149 -233q0 -64 59 -155l-262 -125q-32 88 -32 164q0 173 231 331q39 21 118 70z" />
    <glyph glyph-name="quotedblright" unicode="&#x201d;" horiz-adv-x="733" 
d="M874 1325q0 -124 -114 -244q-91 -95 -227 -163l-35 54q145 101 145 230q0 62 -63 157l258 130q36 -119 36 -164zM500 1315q0 -215 -346 -403l-35 50q147 98 147 240q0 71 -59 151q72 33 256 127q37 -87 37 -165z" />
    <glyph glyph-name="quotedblbase" unicode="&#x201e;" horiz-adv-x="895" 
d="M754 172q0 -207 -340 -402l-35 51q78 63 104 100q39 55 39 132q0 60 -61 156l258 131q35 -92 35 -168zM381 170q0 -131 -116 -244q-73 -72 -230 -165l-35 50q147 102 147 240q0 66 -59 152q120 54 256 129q37 -111 37 -162z" />
    <glyph glyph-name="dagger" unicode="&#x2020;" horiz-adv-x="903" 
d="M1049 1087l-34 -176h-332l-178 -911h-215l178 911h-336l35 176h335l74 369h217l-73 -369h329z" />
    <glyph glyph-name="daggerdbl" unicode="&#x2021;" horiz-adv-x="903" 
d="M1049 1087l-34 -176h-332l-72 -364h336l-34 -176h-336l-72 -371h-215l72 371h-332l34 176h332l72 364h-336l35 176h335l74 369h217l-73 -369h329z" />
    <glyph glyph-name="bullet" unicode="&#x2022;" horiz-adv-x="690" 
d="M690 727q0 -106 -70 -177t-176 -71q-104 0 -177.5 71t-73.5 175t74 177t179 73q104 0 174 -72t70 -176z" />
    <glyph glyph-name="ellipsis" unicode="&#x2026;" horiz-adv-x="2048" 
d="M1855 164q0 -73 -54 -127t-126 -54q-54 0 -85.5 36t-31.5 92q0 70 56 124t127 54q49 0 83 -38q31 -37 31 -87zM1173 162q0 -73 -54 -127t-127 -54q-54 0 -85 36t-31 92q0 70 55.5 124t126.5 54q50 0 82.5 -37.5t32.5 -87.5zM490 164q0 -73 -54 -127t-127 -54
q-54 0 -85 36t-31 92q0 70 55.5 124t126.5 54q50 0 82.5 -37.5t32.5 -87.5z" />
    <glyph glyph-name="perthousand" unicode="&#x2030;" horiz-adv-x="2425" 
d="M2410 584q0 -261 -138 -443q-116 -152 -263 -152q-123 0 -186 97q-54 82 -54 209q0 130 45 273q47 153 124 244q100 116 208 116q136 0 206 -111q58 -92 58 -233zM1700 584q0 -261 -138 -443q-116 -152 -264 -152q-123 0 -186 97q-53 82 -53 209q0 130 44 273
q48 153 125 244q99 116 208 116q135 0 205 -111q59 -92 59 -233zM1466 1456l-911 -1454h-130l910 1454h131zM825 1126q0 -260 -138 -442q-116 -154 -263 -154q-123 0 -187 99q-53 82 -53 209q0 130 44 272q48 154 125 244q99 116 208 116q136 0 206 -110q58 -92 58 -234z
M2222 703q0 143 -55 143q-87 0 -156 -286q-55 -229 -55 -361q0 -136 57 -136q13 0 30 14q58 44 122 252q57 187 57 365v9zM1511 703q0 143 -55 143q-87 0 -156 -286q-55 -229 -55 -361q0 -136 58 -136q12 0 30 14q58 44 121 252q57 187 57 365v9zM637 1246q0 143 -55 143
q-87 0 -156 -286q-55 -229 -55 -362q0 -135 57 -135q12 0 30 14q58 44 122 252q57 187 57 365v9z" />
    <glyph glyph-name="guilsinglleft" unicode="&#x2039;" horiz-adv-x="600" 
d="M595 875l-285 -435l98 -381l-76 -40l-255 432q2 2 453 485z" />
    <glyph glyph-name="guilsinglright" unicode="&#x203a;" horiz-adv-x="584" 
d="M581 485q-200 -209 -410 -441q-13 -13 -42 -44l-67 59l286 433l-99 382l76 43z" />
    <glyph glyph-name="fraction" unicode="&#x2044;" horiz-adv-x="264" 
d="M734 1456l-909 -1454h-130l909 1454h130z" />
    <glyph glyph-name="trademark" unicode="&#x2122;" horiz-adv-x="1587" 
d="M1759 764q-127 6 -176 6q-4 0 -147 -4v57h14q63 0 63 80v6l-3 345l-203 -494h-62q-54 106 -198 422l-33 69v-282q0 4 2 -74q2 -68 74 -76v-51q-91 4 -117 4q-23 0 -109 -4v51q48 4 62 25q13 18 18 115q2 13 2 34v12v11l6 321q0 62 -88 66v53l216 -2q6 -13 235 -500
l214 502h218v-53h-18q-66 0 -66 -80v-10l6 -289q1 -34 4 -110q2 -56 9 -68q12 -22 62 -23h15v-59zM823 1260h-53q0 131 -115 131h-53v-469v-9v-9q0 -44 9 -60q12 -23 54 -23q8 0 17 1v-56q-156 4 -166 4q-4 0 -164 -4v55h21q61 0 61 86v482h-31q-73 0 -103.5 -28t-33.5 -101
h-53v194h610v-194z" />
    <glyph glyph-name="partialdiff" unicode="&#x2202;" horiz-adv-x="2056" 
 />
    <glyph glyph-name="product" unicode="&#x220f;" horiz-adv-x="2056" 
 />
    <glyph glyph-name="summation" unicode="&#x2211;" horiz-adv-x="2056" 
 />
    <glyph glyph-name="integral" unicode="&#x222b;" horiz-adv-x="2056" 
 />
    <glyph glyph-name="fi" unicode="&#xf001;" horiz-adv-x="1202" 
d="M1261 1595l-80 -311h-143q43 83 43 139q0 36 -65 55q-48 15 -94 15q-121 0 -174 -39t-94.5 -155.5t-91.5 -380.5h603l-162 -538q-45 -157 -45 -175q0 -45 39 -45q25 0 136 79l59 -63q-80 -72 -182 -129q-122 -66 -203 -66q-52 0 -86.5 31t-34.5 82q0 43 49 200
q33 114 103 340q39 116 39 138q0 39 -43 39h-296l-49 -216q-59 -265 -84 -350q-58 -192 -146 -328q-127 -199 -312 -244q-34 -8 -119 -12q13 68 13 175q57 -52 99 -52q29 0 57 16q52 30 93 157q38 116 101 427q29 143 87 427h-138l23 104l135 2q86 355 240 508
q179 177 523 177q96 0 200 -7z" />
    <glyph glyph-name="fl" unicode="&#xf002;" horiz-adv-x="1176" 
d="M1312 1570l-249 -987q-86 -342 -86 -368q0 -59 51 -59q45 0 166 108l61 -70q-217 -216 -415 -216q-138 0 -138 112q0 43 19 112q15 55 31 110l182 725q24 85 47 171q35 128 35 166q0 121 -148 121q-143 0 -215 -196q-38 -104 -91 -381h145l-20 -107h-149l-49 -216
q-58 -262 -85 -350q-57 -191 -145 -328q-122 -193 -312 -244q-30 -7 -119 -12q13 68 13 175q61 -52 99 -52q31 0 57 16q53 32 93 157q39 119 101 427q29 143 87 427h-138l23 104l135 2q53 219 128 357q79 143 221 235q137 88 266 88q105 0 214 -57q47 7 185 30z" />
    <glyph glyph-name="glyph367" 
d="M1231 1165l-152 -151q111 -138 111 -318q0 -183 -113 -323l152 -154l-94 -92l-152 154q-142 -111 -317 -111q-171 0 -322 111l-151 -150l-95 92l154 150q-113 153 -113 325q0 170 113 318l-150 149l93 92l149 -147q147 111 322 111q178 0 319 -111l152 150zM1065 696
q0 171 -114.5 287.5t-284.5 116.5q-173 0 -287.5 -115.5t-114.5 -288.5q0 -172 116.5 -288.5t289.5 -116.5q170 0 282.5 117t112.5 288z" />
    <glyph glyph-name="glyph368" horiz-adv-x="391" 
d="M497 1462q0 -207 -249 -360l-52 70q95 90 95 196q0 102 -50 186q121 48 215 106q41 -101 41 -198z" />
    </font>
</defs>
</svg>
